<?xml version="1.0" encoding="UTF-8"?><svg id="Lotus" xmlns="http://www.w3.org/2000/svg" viewBox="0 0 1080 1080"><defs><style>.cls-1{fill:#231f20;}</style></defs><path class="cls-1" d="m471.66,516.93c-5.25-9.25-7.73-17.67-7.73-17.67,0,0,5.42,6.85,10.63,16.03,3.14,5.55,6.38,11.04,9.76,16.43,3.37,5.39,6.93,10.68,10.6,15.88,3.05,4.3,5.58,8.36,7.39,11.33,1.81,2.98,2.9,4.87,2.9,4.87,0,0-1.73-1.35-4.21-3.84-2.49-2.48-5.72-6.09-8.81-10.43-3.7-5.26-7.29-10.58-10.7-16.04-3.41-5.45-6.67-10.98-9.83-16.56Z"/><path class="cls-1" d="m639.26,488.83c.33-3.83.87-7.29,1.25-9.83.21-1.27.38-2.31.5-3.02.14-.72.22-1.12.22-1.12,0,0,.11.39.3,1.1.17.71.45,1.74.64,3.03.45,2.57.74,6.19.4,10.14-.85,9.53-2.81,18.89-5.4,28.03-1.06,3.8-2.58,7.05-3.78,9.36-1.23,2.3-2.14,3.65-2.14,3.65,0,0,.13-1.63.56-4.18.4-2.56,1.11-6.01,2.15-9.74,2.55-8.99,4.47-18.15,5.29-27.41Z"/><path class="cls-1" d="m556.03,507.37c13.56-1.95,26.33-4.77,37.66-8.28,11.31-3.53,21.23-7.67,28.89-12.28,3.83-2.3,7.1-4.69,9.7-7.1,2.58-2.42,4.44-4.87,5.57-7.09,1.12-2.22,1.54-4.16,1.61-5.48.08-.66,0-1.17.01-1.51,0-.34-.01-.52-.01-.52,0,0,.02.17.06.51.02.34.15.85.13,1.52.05,1.34-.2,3.36-1.18,5.76-.97,2.39-2.72,5.09-5.2,7.78-2.5,2.68-5.71,5.37-9.5,7.96-15.21,10.39-39.52,19.1-67.11,23.04-16.66,2.33-33.59,3.16-50.44,1.52-8.41-.88-16.83-2.35-24.96-5.24-4.05-1.46-8.03-3.35-11.66-6.02-1.79-1.37-3.48-2.97-4.86-4.9-1.38-1.92-2.42-4.22-2.76-6.68-.35-2.45,0-4.96.79-7.18.79-2.24,1.96-4.25,3.3-6.06,2.74-3.57,6.03-6.5,9.52-9.03,7-5.05,14.67-8.8,22.5-12,15.72-6.28,32.21-10.2,48.86-12.62,27.6-3.91,53.37-2.34,70.88,3.39,4.36,1.43,8.2,3.12,11.34,4.99,3.14,1.89,5.57,3.99,7.17,6.02,1.61,2.03,2.41,3.9,2.74,5.2.21.64.22,1.16.3,1.49.06.34.08.51.08.51,0,0-.04-.17-.13-.5-.11-.32-.17-.83-.43-1.45-.43-1.25-1.38-2.99-3.07-4.81-1.7-1.82-4.17-3.65-7.32-5.25-3.16-1.59-6.97-2.97-11.29-4.11-8.64-2.29-19.32-3.5-31.17-3.73-11.86-.2-24.91.65-38.48,2.57-16.35,2.37-32.55,6.24-47.84,12.34-7.6,3.1-15.02,6.75-21.56,11.47-3.26,2.36-6.25,5.06-8.59,8.11-2.27,3.06-3.76,6.61-3.27,10.01.47,3.4,2.89,6.39,5.93,8.7,3.1,2.28,6.73,4.04,10.51,5.39,7.61,2.71,15.75,4.15,23.91,5,16.38,1.59,33.02.79,49.38-1.5Z"/><path class="cls-1" d="m439.53,335.45c-.07,2.29-.23,4.56-.23,6.83.01,2.26.03,4.51.04,6.75.02,2.23,0,4.45.06,6.65.12,2.19.23,4.35.35,6.5l.08,1.61.16,1.6c.11,1.06.22,2.12.33,3.17.21,2.1.4,4.19.75,6.23.31,2.05.62,4.08.93,6.08.39,1.99.78,3.96,1.16,5.9,1.68,7.74,3.59,15.05,5.91,21.73.28.84.53,1.68.82,2.5.3.82.6,1.62.89,2.42.6,1.6,1.14,3.18,1.75,4.71,1.24,3.04,2.37,5.99,3.63,8.73,4.84,11.05,9.54,19.65,12.87,25.54,1.69,2.93,3,5.22,3.92,6.75.91,1.54,1.38,2.34,1.38,2.34,0,0-.53-.77-1.54-2.24-1.02-1.47-2.47-3.66-4.34-6.49-3.69-5.69-8.88-14.05-14.27-24.98-1.39-2.71-2.66-5.64-4.04-8.66-.67-1.52-1.29-3.1-1.96-4.7-.33-.8-.66-1.61-.99-2.42-.33-.82-.62-1.66-.93-2.5-2.59-6.7-4.77-14.07-6.69-21.93-.44-1.98-.88-3.98-1.33-6-.38-2.04-.72-4.11-1.08-6.2-.4-2.08-.64-4.21-.89-6.36-.13-1.07-.26-2.15-.38-3.24l-.19-1.63-.11-1.65c-.14-2.2-.29-4.42-.44-6.66-.08-2.24-.08-4.48-.12-6.75-.03-2.27-.05-4.55-.08-6.85,0-2.3.15-4.61.22-6.94.74-19.42,3.49-38.81,8.68-57.58,5.28-18.73,12.68-36.91,22.51-53.73,9.68-16.9,21.67-32.44,35.25-46.37,6.81-6.96,14.05-13.49,21.68-19.54,1.88-1.54,3.86-2.97,5.79-4.45,1.98-1.42,3.94-2.87,5.96-4.23,1-.7,2.01-1.38,3.04-2.04,1.02-.67,2.04-1.34,3.09-1.98,1.03-.66,2.08-1.28,3.14-1.91l1.6-.92.85-.48,1.59-.85,1.08.34.54.17.39.13,1.11.39c.73.26,1.46.54,2.17.83,1.44.57,2.86,1.16,4.27,1.78,2.81,1.25,5.59,2.55,8.3,3.97,5.45,2.8,10.74,5.89,15.88,9.21,15.68,10.18,29.11,22.01,40.14,33.77,2.8,2.91,5.36,5.89,7.88,8.76,2.43,2.94,4.84,5.76,7,8.62,4.44,5.62,8.24,11.1,11.64,16.15,6.73,10.13,11.45,18.77,14.65,24.74,1.56,3.01,2.71,5.38,3.51,6.97.79,1.6,1.21,2.44,1.21,2.44,0,0-1.89-3.23-5.32-9.08-3.55-5.76-8.72-14.09-15.85-23.83-3.59-4.85-7.58-10.12-12.17-15.52-2.24-2.75-4.71-5.45-7.2-8.28-2.58-2.75-5.18-5.62-8.01-8.42-11.16-11.31-24.52-22.7-39.86-32.66-5.02-3.25-10.19-6.27-15.5-9-2.65-1.38-5.35-2.65-8.06-3.86-1.36-.6-2.73-1.17-4.11-1.72-.69-.27-1.38-.54-2.07-.79l-1.18-.42-.73.41-1.53.88c-1.02.61-2.04,1.21-3.04,1.85-1.01.62-2.01,1.27-3,1.93-1,.64-1.99,1.31-2.97,1.99-1.98,1.33-3.9,2.75-5.83,4.14-1.89,1.45-3.83,2.85-5.67,4.36-7.48,5.94-14.59,12.34-21.27,19.17-13.33,13.68-25.09,28.92-34.58,45.5-9.64,16.5-16.89,34.33-22.08,52.71-5.09,18.42-7.79,37.47-8.52,56.58Z"/><path class="cls-1" d="m664.32,288.56c-1.68,4.31-3.05,8.67-4.51,12.92-1.29,4.31-2.67,8.53-3.78,12.75-2.37,8.39-4.27,16.6-5.91,24.45-3.24,15.72-5.26,30.07-6.43,42.18-1.19,12.11-1.57,21.97-1.66,28.78-.01,1.7-.03,3.22-.04,4.53.02,1.31.04,2.42.06,3.32.03,1.8.04,2.74.04,2.74,0,0-.08-.94-.23-2.73-.07-.9-.17-2.01-.27-3.32-.07-1.31-.15-2.83-.24-4.53-.32-6.82-.49-16.73.16-28.96.62-12.22,2.11-26.76,4.98-42.72,1.45-7.97,3.21-16.31,5.49-24.85,1.06-4.29,2.41-8.58,3.69-12.96,1.44-4.33,2.82-8.76,4.52-13.12l2.96-7.94c1.03-2.63,2.17-5.23,3.25-7.84l1.64-3.91c.53-1.31,1.19-2.57,1.78-3.86l3.64-7.68c5.17-10.09,10.99-19.93,18.15-28.88,3.51-4.52,7.58-8.63,11.89-12.48,4.47-3.69,9.34-6.99,14.8-9.28l2.08-.79c.69-.26,1.38-.54,2.11-.7l2.17-.56,1.08-.28c.37-.07.74-.11,1.11-.16,1.49-.2,2.97-.47,4.49-.43l1.13-.02h.57c.19,0,.35-.03.63.02.48.08,1.02.16,1.45.27l1.12.37c.77.23,1.42.54,2.11.82.7.28,1.36.59,2.01.92.65.32,1.32.63,1.96.97l1.9,1.05c2.52,1.41,4.95,2.95,7.31,4.58,9.42,6.54,17.85,14.39,25.14,23.17,7.32,8.76,13.56,18.4,18.62,28.61,10.13,20.44,15.65,42.96,17.33,65.56,1.44,18.76.24,36.7-2.02,52.76-.64,4-1.27,7.91-1.87,11.7-.75,3.77-1.55,7.41-2.29,10.93-.38,1.76-.75,3.49-1.11,5.19-.44,1.68-.87,3.33-1.3,4.95-.85,3.23-1.67,6.33-2.46,9.29-3.45,11.74-6.51,21.14-8.97,27.52-2.36,6.4-3.67,9.95-3.67,9.95,0,0,1.08-3.62,3.02-10.16,2.07-6.5,4.59-16.04,7.5-27.85.65-2.97,1.34-6.08,2.05-9.33.36-1.62.72-3.27,1.09-4.96.3-1.7.6-3.43.91-5.19.62-3.52,1.25-7.15,1.91-10.9.49-3.77,1-7.64,1.53-11.62,1.83-15.92,2.73-33.56,1.32-51.94-1.65-22.16-7.05-44.1-16.88-63.96-4.92-9.92-10.97-19.27-18.06-27.75-7.06-8.5-15.23-16.1-24.27-22.37-2.26-1.56-4.58-3.03-6.96-4.37l-1.79-.99c-.6-.32-1.21-.6-1.82-.9-.61-.31-1.21-.59-1.82-.83-.61-.24-1.23-.55-1.81-.71l-.88-.29c-.25-.06-.41-.07-.62-.13-.07-.04-.26-.02-.42-.02h-.49s-.97.03-.97.03c-1.3-.05-2.59.21-3.89.37-.32.05-.65.08-.97.14l-.96.25-1.91.49c-.65.13-1.26.39-1.88.63l-1.86.71c-4.92,2.06-9.44,5.11-13.63,8.57-4.06,3.63-7.93,7.54-11.31,11.89-6.89,8.61-12.58,18.2-17.64,28.1l-3.57,7.55c-.58,1.27-1.22,2.5-1.75,3.79l-1.62,3.86c-1.06,2.58-2.18,5.13-3.2,7.73l-2.92,7.85Z"/><path class="cls-1" d="m924.15,319.65c-.08-.96-.23-2.68-.18-2.2h0s0,0,0,0l-.3-.15c-.46-.23-.9-.47-1.38-.67-1.86-.89-3.82-1.57-5.76-2.22-3.92-1.23-7.95-1.93-11.93-2.2-1.99-.22-3.97-.1-5.93-.13-.98.06-1.95.15-2.92.23-.97.07-1.94.14-2.88.33-1.9.33-3.8.56-5.62,1.1-.92.23-1.83.46-2.74.69-.9.25-1.77.6-2.65.89-.88.3-1.75.61-2.61.91-.86.31-1.67.73-2.51,1.09-1.65.76-3.31,1.41-4.86,2.3-1.57.83-3.13,1.64-4.62,2.53-1.5.87-2.99,1.71-4.41,2.61-5.74,3.52-10.96,7.05-15.65,10.36-9.4,6.63-16.81,12.31-21.9,16.26-5.09,3.96-7.86,6.21-7.86,6.21,0,0,2.59-2.45,7.42-6.74,4.84-4.27,11.91-10.39,21.04-17.5,4.56-3.56,9.66-7.33,15.34-11.13,1.41-.97,2.89-1.89,4.39-2.82,1.48-.96,3.06-1.85,4.65-2.76,1.56-.96,3.29-1.71,5-2.56.86-.4,1.71-.87,2.6-1.22.9-.34,1.81-.69,2.73-1.04.92-.33,1.83-.73,2.78-1.01.96-.27,1.92-.54,2.89-.81,1.92-.61,3.94-.92,5.97-1.31,1.01-.22,2.04-.32,3.08-.42,1.04-.1,2.08-.22,3.13-.3,2.11-.01,4.24-.16,6.39.04,4.3.23,8.66.94,12.93,2.24,2.12.69,4.25,1.42,6.33,2.4.52.22,1.04.5,1.56.76.15.08.22.11.43.22l.7.41.7.41.35.21c.11.08.28.11.25.28.28,2.63.28,3.12.4,4.34,1.73,21.2,3.15,42.42,3.93,63.71.36,10.64.6,21.3.27,32.01-.04,2.66-.24,5.38-.46,8.08l-.45,4.03c-.15,1.34-.39,2.67-.57,4-.36,2.67-.93,5.3-1.4,7.95-.59,2.62-1.1,5.26-1.77,7.85-5.15,20.83-13.08,40.89-23.17,59.78-5.06,9.44-10.66,18.59-16.82,27.36-6.2,8.74-12.96,17.08-20.23,24.96-12.1,13.01-25.12,24.01-37.99,32.44-1.62,1.03-3.22,2.06-4.8,3.06-1.58,1.01-3.12,2.02-4.73,2.88-1.58.9-3.15,1.78-4.68,2.65-1.54.86-3.03,1.75-4.58,2.48-3.06,1.51-6,3.01-8.86,4.36-2.91,1.25-5.7,2.45-8.37,3.59-1.32.6-2.65,1.08-3.95,1.55-1.29.47-2.56.93-3.78,1.38-2.46.88-4.74,1.79-6.96,2.4-2.2.66-4.25,1.28-6.13,1.85-.94.28-1.84.55-2.7.81-.86.25-1.7.42-2.48.62-6.28,1.5-9.75,2.33-9.75,2.33,0,0,3.4-1.06,9.56-2.98.77-.25,1.59-.47,2.43-.77.84-.31,1.72-.63,2.64-.97,1.84-.67,3.84-1.4,5.98-2.19,2.16-.73,4.39-1.76,6.77-2.75,1.19-.5,2.42-1.02,3.67-1.55,1.26-.52,2.55-1.06,3.83-1.72,2.58-1.25,5.29-2.56,8.1-3.92,2.77-1.46,5.61-3.06,8.57-4.66,1.5-.77,2.93-1.71,4.42-2.61,1.48-.91,2.99-1.83,4.52-2.76,1.55-.9,3.04-1.95,4.56-2.98,1.52-1.03,3.07-2.08,4.63-3.14,12.42-8.63,24.99-19.61,36.86-32.37,7.13-7.73,13.77-15.93,19.86-24.51,6.06-8.61,11.57-17.61,16.54-26.9,9.92-18.57,17.73-38.33,22.78-58.75.66-2.55,1.16-5.12,1.74-7.68.45-2.58,1.02-5.15,1.36-7.74.18-1.29.41-2.59.56-3.88l.43-3.89c.21-2.59.4-5.17.44-7.82.32-10.53.09-21.12-.27-31.71-.77-21.18-2.19-42.36-3.92-63.5Z"/><path class="cls-1" d="m974.06,583.79c-.91-1.45-1.81-2.88-2.71-4.31-.91-1.38-1.81-2.75-2.7-4.12-.45-.68-.88-1.37-1.34-2.03-.48-.65-.96-1.29-1.44-1.93-.48-.64-.95-1.28-1.42-1.92-.47-.64-.93-1.28-1.45-1.86-3.91-4.91-8.29-9.1-12.84-12.57-.58-.42-1.15-.84-1.72-1.26-.57-.42-1.13-.85-1.74-1.19-1.19-.73-2.37-1.45-3.53-2.16-2.43-1.23-4.76-2.49-7.17-3.4-2.34-1.06-4.75-1.73-7.01-2.54-1.16-.32-2.3-.64-3.41-.95-.56-.16-1.11-.31-1.65-.46-.55-.13-1.1-.25-1.64-.38-8.63-2.01-15.8-3.01-20.73-3.75-4.94-.72-7.68-1.11-7.68-1.11,0,0,2.76.15,7.75.43,4.99.34,12.22.79,21.1,2.29.56.09,1.12.19,1.69.28.56.12,1.14.25,1.71.37,1.16.25,2.34.51,3.54.77,2.37.7,4.89,1.27,7.39,2.25,2.55.83,5.06,2.03,7.67,3.22,1.26.7,2.53,1.41,3.82,2.13.66.34,1.27.76,1.89,1.19.62.42,1.24.84,1.87,1.27,4.95,3.51,9.71,7.83,13.9,12.9.56.6,1.05,1.27,1.55,1.92.5.66,1.01,1.32,1.51,1.98.51.66,1.01,1.33,1.52,2,.49.68.94,1.39,1.41,2.09.94,1.4,1.88,2.82,2.83,4.24.89,1.42,1.8,2.84,2.7,4.28,4.16,6.55,8.4,13.06,12.69,19.54l6.45,9.71,7.47,11.1-13.86,15.18-12.75,13.86c-8.52,9.22-17.08,18.42-25.73,27.53-4.32,4.56-8.68,9.09-13.1,13.59-2.23,2.23-4.42,4.48-6.8,6.63-1.18,1.07-2.3,2.21-3.54,3.22l-3.67,3.06c-1.2,1.05-2.49,1.98-3.76,2.94l-3.81,2.87-3.94,2.68c-1.32.88-2.6,1.83-3.97,2.63-5.38,3.38-10.88,6.56-16.56,9.39-12.3,6.21-24.67,10.71-36.16,13.83-1.44.38-2.86.75-4.26,1.12-.7.18-1.4.37-2.09.55-.7.15-1.39.29-2.08.44-2.76.57-5.44,1.13-8.03,1.66-2.61.4-5.14.78-7.56,1.16-1.21.17-2.39.39-3.57.5-1.17.11-2.31.22-3.43.33-2.23.21-4.36.41-6.37.6-2.02.12-3.92.17-5.7.24-1.78.06-3.43.12-4.95.18-1.52.05-2.92-.04-4.17-.04-5-.12-7.76-.19-7.76-.19,0,0,2.76-.18,7.74-.5,1.24-.09,2.63-.12,4.14-.29,1.51-.17,3.14-.35,4.9-.55,1.76-.2,3.64-.38,5.62-.63,1.98-.32,4.07-.65,6.26-1,1.1-.17,2.22-.35,3.37-.53,1.15-.18,2.3-.46,3.49-.7,2.37-.49,4.84-1,7.39-1.53,2.52-.64,5.14-1.31,7.82-2,.67-.17,1.35-.34,2.03-.51.67-.2,1.35-.41,2.03-.62,1.36-.41,2.75-.83,4.15-1.25,11.17-3.45,23.19-8.12,35.21-14.19,5.55-2.77,10.93-5.88,16.18-9.17,1.34-.78,2.59-1.71,3.88-2.56l3.84-2.61,3.71-2.79c1.23-.94,2.49-1.84,3.66-2.85l3.56-2.97c1.2-.97,2.28-2.08,3.43-3.11,2.28-2.05,4.47-4.3,6.67-6.51,4.38-4.46,8.73-8.98,13.04-13.52,8.63-9.09,17.17-18.28,25.69-27.49l12.74-13.85,11.53-12.62-5.56-8.27-6.47-9.73c-4.29-6.5-8.55-13.02-12.73-19.61Z"/><path class="cls-1" d="m689.25,777.46c-16.02.38-31.33-1.36-44.82-4.73-13.48-3.37-25.2-8.42-33.78-14.65-2.13-1.57-4.06-3.2-5.78-4.85-1.7-1.68-3.16-3.4-4.4-5.11-2.42-3.46-3.84-6.88-4.38-9.79-.57-2.9-.45-5.21-.26-6.73.08-.76.23-1.33.29-1.72.07-.38.11-.58.11-.58,0,0-.02.2-.06.59-.03.39-.14.97-.16,1.73-.07,1.52-.01,3.79.73,6.55.72,2.77,2.3,5.95,4.82,9.11,1.29,1.56,2.78,3.12,4.51,4.64,1.74,1.49,3.68,2.96,5.81,4.36,8.57,5.57,20.14,9.97,33.38,12.86,13.25,2.9,28.21,4.32,43.88,3.95,18.91-.46,37.78-3.65,55.66-9.74,17.83-6.15,34.77-15.21,49.01-27.55,14.32-12.26,26.16-27.36,35.41-43.81,2.29-4.13,4.41-8.35,6.38-12.64,1.92-4.31,3.67-8.69,5.2-13.14,1.5-4.46,2.78-8.99,3.75-13.57.96-4.57,1.61-9.21,1.68-13.8.06-3.79-.27-7.54-1.35-10.86-.22-.86-.62-1.59-.96-2.36-.35-.72-.7-1.21-1.23-1.71-.52-.48-1.14-.89-1.82-1.24-.71-.33-1.45-.63-2.25-.84-3.21-.87-6.8-.9-10.26-.73-3.48.19-6.91.65-10.25,1.2-6.68,1.13-13,2.63-18.89,4.14-5.89,1.52-11.35,3.06-16.34,4.5-9.97,2.89-18.03,5.31-23.64,6.84-5.61,1.55-8.76,2.19-8.76,2.19,0,0,3.09-.9,8.56-2.84,5.48-1.92,13.36-4.86,23.18-8.27,4.92-1.7,10.32-3.51,16.2-5.29,5.87-1.77,12.21-3.53,19.03-4.89,3.42-.67,6.95-1.25,10.65-1.54,3.69-.25,7.56-.36,11.6.65,1.01.25,2.03.62,3.03,1.08,1,.49,1.98,1.12,2.87,1.92.88.78,1.66,1.86,2.15,2.86.45.97.96,1.95,1.24,2.96,1.34,4.03,1.68,8.19,1.63,12.31-.08,4.98-.78,9.85-1.78,14.64-1.01,4.78-2.34,9.47-3.89,14.08-1.58,4.59-3.39,9.1-5.36,13.53-2.01,4.41-4.19,8.74-6.54,12.97-9.49,16.87-21.62,32.35-36.38,45-14.72,12.75-32.15,22.07-50.44,28.37-18.35,6.25-37.64,9.5-56.97,9.97Z"/><path class="cls-1" d="m678.99,745.7c-4.41,1.11-8.68,2.31-12.92,3-2.11.39-4.18.77-6.2,1.14-2.04.29-4.05.5-6,.74-1.96.22-3.86.46-5.71.64-1.86.09-3.67.18-5.42.26-1.75.07-3.43.15-5.05.22-1.62.04-3.18-.06-4.66-.08-2.97-.1-5.65-.14-8-.3-2.34-.26-4.36-.48-6-.67-3.28-.39-5.09-.61-5.09-.61,0,0,1.83-.03,5.13-.07,1.65,0,3.66-.02,5.99-.04,2.33-.1,4.99-.33,7.91-.5,1.46-.11,2.99-.15,4.58-.32,1.59-.19,3.24-.4,4.95-.6,1.71-.2,3.47-.41,5.29-.62,1.8-.31,3.66-.63,5.57-.95,1.9-.33,3.86-.63,5.84-1,1.97-.43,3.99-.88,6.04-1.33,4.12-.79,8.29-2.03,12.61-3.12,10.34-2.91,20.5-6.51,30.35-10.83,9.84-4.35,19.37-9.4,28.45-15.12,2.29-1.4,4.47-2.97,6.71-4.44,1.1-.76,2.16-1.58,3.24-2.36,1.07-.8,2.18-1.56,3.19-2.42l3.1-2.52,3.14-2.61c2.11-1.74,4.17-3.54,6.35-5.19,8.58-6.79,17.55-13.16,27.26-18.46,3.59-1.91,7.22-3.62,10.86-4.97.93-.31,1.84-.62,2.75-.93.92-.28,1.85-.52,2.76-.77.94-.19,1.84-.43,2.8-.55.47-.08.94-.15,1.42-.18l.36-.03h.09s.04-.01.04-.01h.02s-.03,0-.06,0h0s.02,0,.02,0h.08s.04-.02.08-.06c.05-.05.03-.02.14-.15l.77-.89c.52-.58,1.03-1.15,1.54-1.72,1.02-1.13,2.04-2.21,3.05-3.25,2.01-2.09,4-4.01,5.91-5.79,3.82-3.55,7.4-6.44,10.47-8.67,1.52-1.13,2.95-2.06,4.18-2.89,1.27-.77,2.33-1.46,3.23-1.96,1.8-.98,2.78-1.51,2.78-1.51,0,0-.89.65-2.54,1.87-.82.61-1.78,1.42-2.93,2.33-1.12.96-2.41,2.03-3.79,3.3-2.78,2.51-6,5.68-9.47,9.46-1.73,1.89-3.54,3.92-5.38,6.09-.92,1.09-1.85,2.2-2.79,3.36-.46.58-.93,1.16-1.41,1.75-.64.82-1.29,1.65-1.94,2.49l-1.22.05h-.31s-.1.02-.1.02h-.02s-.04,0-.04,0h-.07s-.29.05-.29.05c-.38.04-.78.12-1.18.21-.8.13-1.62.39-2.44.59-.82.26-1.66.51-2.5.79-.84.31-1.68.62-2.54.93-3.39,1.36-6.83,3.04-10.29,4.88-9.36,5.11-18.18,11.35-26.61,18.03-2.14,1.63-4.18,3.41-6.26,5.12l-3.12,2.59-3.22,2.62c-1.06.9-2.2,1.67-3.3,2.5-1.11.81-2.21,1.65-3.34,2.43-2.29,1.51-4.53,3.12-6.87,4.55-9.29,5.86-19,11-29.03,15.43-10.04,4.39-20.4,8.08-30.96,11.04Z"/><path class="cls-1" d="m637.47,860.32c3-2.52,5.93-4.98,8.76-7.36,2.77-2.35,5.38-4.72,7.79-7.06,4.83-4.68,8.96-9.14,12.31-13.01,3.36-3.86,5.94-7.12,7.67-9.41.86-1.15,1.53-2.05,1.96-2.67.44-.62.68-.94.68-.94,0,0-.18.36-.52,1.04-.33.69-.86,1.67-1.55,2.95-1.4,2.53-3.55,6.13-6.52,10.38-2.96,4.26-6.74,9.16-11.39,14.24-2.33,2.54-4.89,5.1-7.68,7.63-2.82,2.53-5.67,4.97-8.66,7.52-9.73,8.39-19.26,17.01-28.44,25.98-4.61,4.46-9.1,9.04-13.5,13.7-2.21,2.32-4.36,4.69-6.49,7.07-1.07,1.19-2.11,2.4-3.15,3.61-1.14,1.35-1.61,1.86-4.06,4.98l-2.11-.9-1.49-.61-2.1-.83-4.22-1.63-8.49-3.21-17.04-6.28c-14.74-5.35-27.93-10.69-37.4-14.73-9.48-4.03-15.27-6.71-15.27-6.71,0,0,6.17,1.66,16.02,4.66,9.85,3.01,23.39,7.32,38.15,12.68l17.07,6.29,8.52,3.22,4.25,1.65,2.74,1.09,2.09-2.49c1.06-1.24,2.12-2.47,3.21-3.68,2.16-2.43,4.35-4.82,6.58-7.17,4.45-4.71,8.99-9.33,13.63-13.83,9.26-9.04,18.85-17.72,28.64-26.16Z"/><path class="cls-1" d="m683.7,821.27c5.27-10.78,9.39-20.87,12.59-28.13,2.94-7.35,4.94-11.89,4.94-11.89,0,0-.95,4.83-2.87,12.59-2.18,7.66-5.34,18.31-10.71,29.31-6.34,13.32-13.96,26.08-23.06,37.75-9.08,11.68-19.62,22.24-31.31,31.31-9.74,7.48-19.54,12.77-26.77,16.14-1.78.91-3.49,1.53-4.95,2.15-1.47.59-2.74,1.1-3.78,1.52-2.08.8-3.23,1.25-3.23,1.25,0,0,1.04-.66,2.92-1.86.95-.59,2.1-1.3,3.44-2.13,1.33-.84,2.9-1.7,4.53-2.83,6.66-4.3,15.65-10.39,25.14-17.68,11.41-8.86,21.68-19.14,30.54-30.55,8.87-11.4,16.33-23.88,22.56-36.95Z"/><path class="cls-1" d="m466.51,863.04c-3.13-4.99-5.58-10.08-7.21-14.91-.46-1.19-.75-2.41-1.11-3.56-.35-1.15-.67-2.28-.88-3.39-.24-1.1-.46-2.17-.68-3.2-.18-1.03-.3-2.03-.44-2.98-.12-.95-.28-1.84-.33-2.71-.05-.86-.1-1.67-.15-2.43-.04-.75-.08-1.46-.12-2.1,0-.65.02-1.24.02-1.77.05-2.12.08-3.29.08-3.29,0,0,.21,1.15.6,3.23.09.52.19,1.09.3,1.72.15.62.31,1.3.48,2.03.17.72.35,1.5.54,2.32.18.82.47,1.67.72,2.56.27.89.51,1.83.82,2.8.33.96.68,1.95,1.04,2.98.33,1.04.75,2.08,1.19,3.15.45,1.07.83,2.19,1.36,3.29,1.94,4.47,4.5,9.18,7.48,13.92,7.24,11.47,17.08,21.24,28.16,29.15,11.11,7.93,23.5,14.06,36.45,18.41,10.72,3.66,20.75,6.05,28.1,7.55,3.68.71,6.68,1.28,8.77,1.58,2.09.35,3.24.54,3.24.54,0,0-1.17.05-3.29.15-2.12.11-5.2.09-9-.09-7.58-.42-18.15-1.8-29.21-5.57-13.35-4.48-26.11-10.79-37.61-19-11.47-8.2-21.71-18.35-29.32-30.38Z"/><path class="cls-1" d="m818.91,812.56c-.92-17.37-4.57-32.82-8.78-43.46-2.03-5.35-4.21-9.48-5.67-12.35-1.59-2.81-2.48-4.36-2.48-4.36,0,0,1.1,1.4,3.06,4,1.83,2.68,4.51,6.58,7.09,11.83,2.61,5.22,5.24,11.73,7.22,19.23,1.05,3.74,1.83,7.73,2.54,11.89.67,4.17,1.12,8.51,1.39,12.97.41,7.08.35,14.17-.13,21.23-.24,3.53-.59,7.05-1.05,10.57-.23,1.76-.49,3.51-.78,5.26l-.46,2.63-.26,1.32-.2.93-.29,1.27-1.95,1.21-1.18.7c-.79.46-1.58.91-2.38,1.34-1.59.88-3.2,1.72-4.82,2.53-3.24,1.62-6.52,3.16-9.87,4.54-6.67,2.83-13.53,5.18-20.54,7.04-14,3.71-28.72,5.37-43.27,3.71-8.96-1.03-17.32-3.48-24.43-6.69-3.59-1.55-6.78-3.44-9.76-5.19-2.85-1.96-5.56-3.69-7.77-5.62-1.13-.93-2.22-1.79-3.22-2.65-.95-.91-1.84-1.77-2.68-2.57-.83-.8-1.6-1.55-2.31-2.24-.67-.73-1.26-1.41-1.8-2.02-2.13-2.44-3.31-3.79-3.31-3.79,0,0,1.35,1.18,3.79,3.3.6.53,1.28,1.12,2.01,1.77.78.6,1.62,1.24,2.53,1.94.9.7,1.86,1.44,2.89,2.23,1.06.74,2.21,1.47,3.39,2.27,9.38,6.48,24.01,13.01,41.16,14.92,13.89,1.58,28.06,0,41.64-3.59,6.8-1.8,13.48-4.09,19.97-6.85,3.26-1.35,6.45-2.85,9.6-4.42,1.57-.79,3.13-1.61,4.67-2.45.77-.42,1.53-.85,2.29-1.29l1.45-.86.32-1.6.45-2.53c.28-1.7.53-3.4.76-5.11.44-3.42.78-6.85,1.02-10.3.46-6.89.52-13.8.12-20.68Z"/><path class="cls-1" d="m412.96,916.94c8.88-4.04,17.02-8.54,24.2-13.02,1.78-1.15,3.51-2.27,5.2-3.36,1.67-1.12,3.23-2.29,4.77-3.37,3.13-2.12,5.82-4.39,8.38-6.34.63-.5,1.27-.96,1.85-1.46.58-.5,1.14-.99,1.69-1.46,1.1-.94,2.14-1.83,3.12-2.67,1.99-1.63,3.56-3.18,4.88-4.41,2.65-2.47,4.12-3.83,4.12-3.83,0,0-1.29,1.53-3.63,4.3-1.18,1.38-2.59,3.11-4.41,4.93-.9.93-1.86,1.93-2.87,2.98-.51.53-1.04,1.07-1.58,1.62-.55.55-1.14,1.07-1.74,1.63-2.41,2.19-4.97,4.7-7.99,7.06-1.49,1.2-3.01,2.49-4.64,3.73-1.66,1.2-3.36,2.44-5.11,3.7-7.1,4.92-15.33,9.79-24.43,13.93-17.92,8.19-37.13,13.37-56.62,15.87-9.75,1.24-19.57,1.89-29.4,1.82-4.91,0-9.83-.21-14.73-.57-2.45-.17-4.9-.41-7.35-.69-1.22-.15-2.45-.29-3.67-.47l-.92-.13-1.2-.19c-1.21-.19-2.37-.42-3.56-.64l.99-8.58.81-6.53c.55-4.35,1.12-8.69,1.73-13.04,1.35-9.8,2.91-19.1,4.53-27.52,1.64-8.42,3.36-15.96,4.98-22.25.83-3.14,1.63-5.97,2.35-8.44.78-2.46,1.44-4.58,2.03-6.3,1.27-3.4,1.98-5.28,1.98-5.28,0,0-.47,1.95-1.32,5.47-.37,1.77-.82,3.93-1.34,6.45-.46,2.52-.98,5.4-1.55,8.57-1.08,6.37-2.24,13.96-3.47,22.4-1.18,8.45-2.48,17.75-3.84,27.5-.6,4.32-1.17,8.65-1.72,12.99l-1.34,10.96h0s1.49.22,1.49.22c1.18.17,2.37.31,3.56.46,2.38.27,4.78.5,7.18.67,4.8.35,9.61.55,14.42.56,9.63.06,19.26-.57,28.81-1.79,19.09-2.45,37.88-7.52,55.37-15.51Z"/><path class="cls-1" d="m427.65,819.88c29.91-7.44,55.5-19.26,72.86-29.62,8.7-5.18,15.47-9.85,19.99-13.29,1.16-.83,2.15-1.6,3-2.29.86-.68,1.59-1.25,2.18-1.71,1.18-.93,1.8-1.41,1.8-1.41,0,0-.58.53-1.68,1.55-.55.51-1.23,1.14-2.04,1.88-.8.75-1.74,1.6-2.84,2.51-4.28,3.77-10.76,8.91-19.25,14.6-8.51,5.66-19.05,11.86-31.4,17.43-1.55.69-3.11,1.39-4.69,2.1-1.59.69-3.22,1.33-4.86,2.01-3.27,1.39-6.69,2.58-10.14,3.87-1.74.61-3.51,1.18-5.29,1.78-.89.3-1.78.59-2.68.89-.91.27-1.81.54-2.73.82-1.83.54-3.67,1.08-5.52,1.63-1.87.49-3.75.98-5.64,1.48-18.32,4.58-37.12,7.35-56.02,7.82-9.45.24-18.91,0-28.33-.89-9.41-.91-18.78-2.38-28.01-4.46-9.24-2.04-18.32-4.82-27.18-8.18-8.88-3.27-17.56-7.37-25.57-12.64-3.99-2.65-7.83-5.6-11.29-9-3.44-3.41-6.6-7.19-9.02-11.49-1.24-2.13-2.28-4.38-3.11-6.71-.85-2.33-1.47-4.74-1.83-7.2-.78-4.91-.5-9.96.56-14.77,1.83-7.99,5.71-15.04,10.26-21.01,4.57-6,9.83-10.99,15.15-15.28,10.69-8.55,21.62-14.27,30.96-18.41,9.37-4.12,17.26-6.64,22.72-8.25,2.74-.79,4.87-1.37,6.33-1.73,1.45-.37,2.22-.56,2.22-.56,0,0-.74.26-2.16.74-1.42.47-3.5,1.22-6.17,2.2-5.32,1.99-12.97,5.01-22,9.58-8.99,4.58-19.45,10.69-29.54,19.28-5.02,4.3-9.94,9.22-14.16,14.95-4.21,5.7-7.7,12.27-9.34,19.46-.96,4.33-1.2,8.8-.51,13.15.31,2.18.87,4.32,1.62,6.39.73,2.08,1.67,4.1,2.79,6.02,4.44,7.74,11.34,13.99,18.94,19.01,7.64,5.03,16.02,9,24.7,12.19,8.66,3.29,17.54,6.01,26.59,8,9.04,2.03,18.22,3.48,27.45,4.37,9.24.88,18.53,1.11,27.81.87,18.56-.45,37.05-3.18,55.07-7.68Z"/><path class="cls-1" d="m329.89,802.51c-8.97-.44-17.34-1.73-24.91-2.9-7.56-1.19-14.33-2.31-20.04-2.89-5.71-.6-10.36-.64-13.54-.17-.8.08-1.49.25-2.1.35-.6.16-1.11.27-1.52.39-.81.27-1.23.41-1.23.41,0,0,.4-.2,1.17-.59.39-.18.89-.37,1.47-.6.6-.18,1.28-.45,2.08-.64,3.17-.88,7.94-1.4,13.79-1.34,5.86.04,12.78.63,20.4,1.42,7.62.77,15.95,1.77,24.63,2.19,2.61.13,5.22.13,7.9.11l7.97-.03c5.31-.03,10.62-.24,15.94-.36,10.61-.48,21.23-1.05,31.8-2.1,10.58-.92,21.11-2.34,31.61-3.93,5.23-.9,10.48-1.7,15.68-2.78,2.6-.53,5.22-.97,7.8-1.56l7.77-1.72c17.14-3.91,32.48-8.2,43.54-11.55,2.76-.86,5.26-1.64,7.45-2.32,2.2-.68,4.06-1.35,5.6-1.84,3.09-1,4.79-1.56,4.79-1.56,0,0-1.62.78-4.54,2.19-1.47.69-3.25,1.58-5.37,2.5-2.12.91-4.54,1.94-7.21,3.09-10.75,4.4-25.96,9.8-43.29,13.75l-7.85,1.74c-2.61.6-5.25,1.05-7.88,1.58-5.25,1.08-10.55,1.89-15.82,2.8-10.59,1.6-21.21,3.03-31.88,3.96-10.66,1.06-21.35,1.63-32.04,2.11-5.35.12-10.7.33-16.05.36l-8.03.03c-2.66.02-5.38.02-8.09-.11Z"/><path class="cls-1" d="m195.87,712.37c13.95,5.76,26.94,10.21,36.43,13.24,2.38.74,4.52,1.47,6.42,2.04,1.9.57,3.54,1.06,4.88,1.46,2.67.83,4.16,1.29,4.16,1.29,0,0-1.53-.22-4.3-.62-1.39-.21-3.08-.47-5.05-.78-1.97-.32-4.18-.79-6.65-1.27-9.82-1.98-23.33-5.44-37.56-11.31-8.56-3.59-16.94-7.65-24.96-12.38-2.03-1.14-3.99-2.42-5.94-3.69-1.99-1.22-3.86-2.63-5.77-3.98-.47-.34-.96-.67-1.42-1.03l-1.38-1.09-2.76-2.18c-.91-.75-1.77-1.55-2.66-2.33-.88-.79-1.78-1.54-2.59-2.4l-2.5-2.52c-.81-.86-1.57-1.79-2.35-2.69-.38-.45-.79-.9-1.15-1.36l-1.07-1.39c-.7-.93-1.44-1.85-2.11-2.8-2.74-3.76-5.33-7.61-7.85-11.49-5.03-7.77-9.74-15.7-14.35-23.69-1.77-3.09-3.46-6.14-5.05-9.1-.78-1.49-1.55-2.95-2.31-4.38-.97-1.89-1.93-3.74-2.85-5.54.88-.74,1.74-1.48,2.6-2.21.49-.4.98-.8,1.46-1.19.97-.78,1.92-1.54,2.84-2.29,1.86-1.48,3.64-2.88,5.34-4.18,3.39-2.6,6.42-4.83,8.98-6.62,2.56-1.79,4.61-3.16,6.07-4.03.71-.45,1.29-.76,1.67-.98.38-.21.58-.32.58-.32,0,0-.18.14-.52.42-.34.28-.86.67-1.49,1.22-1.29,1.08-3.12,2.72-5.42,4.81-2.28,2.11-5.02,4.65-8.15,7.55-1.56,1.45-3.2,2.99-4.93,4.61-.87.81-1.75,1.63-2.66,2.48-.45.42-.91.85-1.37,1.28-.16.14-.14.13-.16.16l-.04.06-.07.1s.09.11.14.2c.06.1.05.04.31.5.39.68.79,1.37,1.19,2.06.8,1.39,1.62,2.81,2.46,4.26,1.67,2.9,3.4,5.9,5.16,8.97,4.58,7.94,9.26,15.82,14.23,23.5,2.48,3.83,5.03,7.62,7.7,11.29.65.93,1.36,1.8,2.04,2.71l1.03,1.35c.35.44.72.84,1.08,1.27.73.83,1.43,1.69,2.19,2.5l2.36,2.37c.76.81,1.63,1.53,2.46,2.28.85.74,1.66,1.5,2.53,2.22l2.65,2.1,1.32,1.05c.45.34.92.66,1.37.99,1.85,1.3,3.65,2.66,5.58,3.85,1.9,1.23,3.79,2.47,5.77,3.58,7.81,4.61,16.02,8.59,24.42,12.11Z"/><path class="cls-1" d="m256.13,649.57c1.91.77,3.81,1.54,5.7,2.3.94.38,1.89.76,2.82,1.14.95.35,1.9.69,2.84,1.03,3.77,1.38,7.49,2.74,11.15,4.08,1.83.67,3.64,1.34,5.43,2,1.81.6,3.61,1.19,5.39,1.78,3.55,1.18,7.03,2.34,10.43,3.47,1.7.55,3.36,1.16,5.04,1.65,1.67.5,3.32.98,4.95,1.47,3.25.97,6.41,1.91,9.46,2.83,6.08,1.93,11.85,3.32,17.08,4.74,2.62.7,5.11,1.37,7.47,2,1.18.32,2.33.63,3.44.93,1.12.26,2.21.52,3.25.76,4.2.99,7.81,1.84,10.77,2.53,5.91,1.42,9.18,2.2,9.18,2.2,0,0-3.32-.54-9.31-1.53-3-.51-6.67-1.13-10.93-1.85-1.06-.18-2.17-.38-3.3-.57-1.13-.24-2.29-.48-3.49-.73-2.4-.51-4.93-1.05-7.59-1.61-5.31-1.16-11.18-2.29-17.35-3.98-3.1-.8-6.31-1.63-9.61-2.48-1.65-.43-3.33-.87-5.02-1.31-1.7-.45-3.39-1-5.11-1.51-3.45-1.05-6.98-2.12-10.58-3.22-1.8-.55-3.62-1.11-5.46-1.68-1.82-.63-3.65-1.27-5.5-1.92-3.7-1.31-7.46-2.63-11.28-3.98-.95-.34-1.91-.68-2.87-1.02-.95-.38-1.9-.75-2.85-1.13-1.91-.76-3.83-1.53-5.76-2.31l-6.65-2.68-3.32-1.34-3.27-1.46-13.09-5.86c-4.33-2.02-8.58-4.21-12.88-6.31l-3.21-1.59-1.61-.8-1.57-.86-6.3-3.44c-16.78-9.18-33.03-19.4-48.19-31.16l-5.59-4.53-2.79-2.27c-.93-.75-1.87-1.5-2.74-2.33l-5.34-4.84c-1.78-1.62-3.59-3.19-5.23-4.96-3.34-3.47-6.84-6.78-9.87-10.55-1.56-1.84-3.15-3.67-4.68-5.51l-4.45-5.55c-5.97-7.38-12.08-14.65-18.24-21.89l-9.3-10.81-4.68-5.37-6.26-7.1c.72-.6,1.47-1.18,2.21-1.76l1.12-.87c.2-.15.38-.26.57-.39l.34-.22c.85-.57,1.71-1.12,2.59-1.6,1.73-1.05,3.53-1.9,5.32-2.79,7.7-3.67,15.67-5.96,23.42-7.58,3.86-.93,7.72-1.39,11.48-1.98,1.88-.33,3.76-.43,5.6-.61,1.85-.17,3.68-.33,5.48-.49l1.35-.12,1.34-.04c.89-.03,1.78-.06,2.66-.08,1.76-.05,3.5-.1,5.21-.16.86-.02,1.71-.05,2.55-.07.84.02,1.68.04,2.51.06,1.66.04,3.29.09,4.9.13,1.6.05,3.18.09,4.73.13,1.55.03,3.06.22,4.55.33,2.97.25,5.81.49,8.53.71,10.83,1.24,19.54,2.56,25.49,3.82,5.96,1.17,9.26,1.81,9.26,1.81,0,0-3.34-.4-9.37-1.14-6.01-.86-14.76-1.63-25.56-2.32-2.7-.1-5.53-.2-8.48-.3-1.47-.03-2.98-.16-4.51-.12-1.53.02-3.09.04-4.68.06-1.59.02-3.2.04-4.84.06-.82,0-1.64.02-2.48.03-.83.05-1.67.11-2.51.16-1.68.11-3.39.21-5.12.32-.87.05-1.74.11-2.61.16l-1.32.08-1.32.15c-1.76.21-3.55.41-5.36.63-1.8.23-3.64.36-5.46.73-3.65.66-7.41,1.17-11.14,2.14-7.5,1.68-15.17,3.97-22.45,7.44-1.69.84-3.39,1.65-4.99,2.61-.83.45-1.6.95-2.37,1.46l-.3.2,7.87,9.01,9.32,10.84c6.18,7.25,12.31,14.55,18.31,21.97l4.48,5.59c1.51,1.82,3.04,3.58,4.56,5.37,2.93,3.66,6.37,6.9,9.63,10.29,1.6,1.72,3.38,3.27,5.13,4.86l5.24,4.75c.86.81,1.78,1.55,2.7,2.29l2.75,2.23,5.5,4.46c14.93,11.58,31,21.69,47.6,30.78l6.23,3.4,1.56.85,1.59.79,3.18,1.58c4.25,2.08,8.46,4.25,12.76,6.26l12.97,5.8,3.24,1.45,3.3,1.33,6.59,2.65Z"/><path class="cls-1" d="m140.07,598.19c-8.34-8.69-15.99-17.27-22.68-25.3-6.67-8.04-12.38-15.54-16.92-22.02-4.54-6.47-7.94-11.89-10.17-15.7-1.14-1.89-1.96-3.4-2.53-4.4-.57-1.01-.86-1.55-.86-1.55,0,0,.35.5,1.02,1.45.68.94,1.63,2.36,2.94,4.13,2.57,3.57,6.4,8.66,11.35,14.76,4.94,6.1,11.03,13.2,17.96,20.92,6.95,7.71,14.74,16.04,23.04,24.69,2.49,2.64,5.03,5.13,7.6,7.64l3.96,3.63c1.32,1.21,2.72,2.34,4.07,3.51,5.49,4.61,11.19,8.99,17.13,13.05,1.47,1.04,2.95,2.06,4.46,3.03l4.52,2.95c3.07,1.88,6.1,3.82,9.23,5.6,6.19,3.67,12.57,7.05,18.99,10.32,12.9,6.45,26.12,12.27,39.63,17.36,13.5,5.12,27.22,9.65,41.14,13.52,23.03,6.47,44.24,11.07,59.71,13.8,3.87.7,7.38,1.26,10.46,1.77,3.09.47,5.75.87,7.93,1.19,4.37.6,6.78.94,6.78.94,0,0-2.44-.09-6.85-.26-2.2-.1-4.9-.3-8.03-.5-3.12-.25-6.69-.55-10.61-.98-15.7-1.66-37.33-5.23-60.58-11.76-14.03-3.91-27.88-8.47-41.51-13.64-13.64-5.14-27-11.02-40.05-17.54-6.5-3.32-12.95-6.73-19.23-10.46-3.17-1.8-6.25-3.78-9.37-5.68l-4.59-3c-1.54-.99-3.04-2.02-4.54-3.08-6.04-4.13-11.85-8.59-17.46-13.31-1.39-1.2-2.81-2.35-4.16-3.59l-4.06-3.72c-2.62-2.56-5.26-5.15-7.75-7.79Z"/><path class="cls-1" d="m216.87,488.02c10,17.32,21.25,32.82,32.32,46.19,11.11,13.35,22.08,24.58,31.88,33.35,4.92,4.37,9.52,8.15,13.69,11.3,4.2,3.1,7.9,5.68,11.07,7.57.79.48,1.53.93,2.23,1.36.72.39,1.38.76,2,1.11,1.24.7,2.29,1.27,3.18,1.67,1.75.85,2.67,1.3,2.67,1.3,0,0-.95-.39-2.75-1.13-.91-.35-2-.86-3.28-1.48-.64-.31-1.34-.64-2.08-.99-.72-.39-1.49-.8-2.31-1.24-3.29-1.72-7.14-4.11-11.53-7.04-4.36-2.97-9.17-6.56-14.31-10.76-10.24-8.44-21.72-19.38-33.27-32.62-11.51-13.25-23.14-28.8-33.3-46.4-6.04-10.55-11.43-21.51-15.73-32.95-2.14-5.72-3.96-11.56-5.48-17.5-.36-1.49-.67-2.99-1-4.49-.16-.75-.34-1.5-.48-2.25l-.35-2.28-.7-4.56c-.14-.76-.21-1.52-.27-2.29l-.19-2.3c-1.07-12.24-.35-24.59,1.86-36.61,1.04-6.03,2.5-11.97,4.23-17.83l.65-2.2.71-2.18c.46-1.46.96-2.9,1.49-4.34.5-1.45,1.07-2.87,1.62-4.3l.87-2.14.14-.33.23-.51.46-1.03.93-2.05,19.3,6.55,17.44,5.85c11.63,3.88,23.27,7.73,34.93,11.52,11.66,3.79,23.33,7.53,35.04,11.16l4.39,1.35,2.2.67c.74.23,1.44.43,2.25.73.77.29,1.58.52,2.31.88l2.22,1.02c1.41.77,2.84,1.52,4.16,2.4,5.39,3.39,10.14,7.48,14.7,11.69,3.74,3.48,7.27,7.05,10.64,10.67,3.38,3.61,6.61,7.24,9.72,10.86,6.22,7.24,12,14.39,17.4,21.27,10.79,13.77,20.13,26.45,27.94,37.11,7.8,10.67,14.04,19.35,18.35,25.35,4.3,6.01,6.68,9.33,6.68,9.33,0,0-2.57-3.18-7.23-8.92-4.61-5.77-11.29-14.12-19.54-24.44-8.24-10.32-18-22.65-29.08-36.12-5.54-6.73-11.42-13.74-17.68-20.83-3.13-3.55-6.36-7.11-9.71-10.65-3.34-3.55-6.82-7.05-10.47-10.43-4.44-4.1-9.05-8.05-14.05-11.19-1.23-.82-2.53-1.49-3.8-2.2l-1.96-.9c-.65-.32-1.33-.5-1.99-.75-.63-.25-1.4-.46-2.13-.69l-2.2-.68-4.4-1.35c-11.73-3.63-23.42-7.38-35.09-11.18-11.67-3.8-23.32-7.65-34.97-11.53l-33-11.13-.92,2.24c-.53,1.38-1.08,2.76-1.57,4.17-.51,1.39-.99,2.8-1.44,4.22l-.69,2.12-.63,2.14c-1.68,5.71-3.11,11.5-4.11,17.36-2.16,11.7-2.84,23.66-1.81,35.45l.19,2.21c.05.74.12,1.47.26,2.2l.68,4.38.34,2.19c.14.73.31,1.45.47,2.17.32,1.45.61,2.9.97,4.34,1.46,5.75,3.24,11.44,5.33,17.02,4.19,11.16,9.49,21.92,15.42,32.3Z"/><path class="cls-1" d="m374.84,502.94c22.3,33.75,39.05,66.47,49.69,90.7,2.56,6.1,4.88,11.62,6.92,16.47.53,1.2.95,2.4,1.37,3.55.42,1.15.82,2.25,1.2,3.31.77,2.12,1.47,4.05,2.09,5.79,2.49,6.96,3.87,10.81,3.87,10.81,0,0-1.61-3.76-4.51-10.56-.72-1.7-1.52-3.59-2.4-5.66-.44-1.03-.89-2.11-1.37-3.24-.47-1.12-.95-2.29-1.54-3.47-2.25-4.74-4.8-10.13-7.63-16.09-11.6-23.69-29.18-55.65-51.36-89.23-13.27-20.33-27.38-40.13-42.22-59.35-7.39-9.64-15.03-19.08-22.85-28.35l-2.95-3.45-1.42-1.64-.94.2-1.06.25c-.71.17-1.42.36-2.12.57-1.41.4-2.8.87-4.17,1.38-5.48,2.06-10.66,4.93-14.94,8.79-4.29,3.83-7.53,8.7-9.32,14.12-.89,2.71-1.37,5.55-1.63,8.42-.06,1.44-.17,2.88-.08,4.34,0,1.45.16,2.9.31,4.36.05.72.19,1.47.31,2.21l.37,2.22.74,4.45c.27,1.48.44,2.97.78,4.44l1.02,4.4,1.02,4.4.51,2.2c.17.73.42,1.45.62,2.17l2.59,8.65c3.83,11.41,8.26,22.67,13.82,33.39,5.27,10.86,11.67,21.14,18.27,31.26,11.21,16.6,23.47,31.31,35.27,44.06,3,3.15,5.85,6.29,8.74,9.22,2.95,2.88,5.82,5.67,8.59,8.37,1.39,1.35,2.73,2.7,4.09,3.98,1.39,1.25,2.76,2.47,4.1,3.67,2.68,2.4,5.25,4.71,7.7,6.91,10.03,8.55,18.28,15.36,24.22,19.74,5.86,4.51,9.1,7,9.1,7,0,0-3.38-2.29-9.51-6.44-6.19-4.06-14.79-10.45-25.22-18.62-2.55-2.12-5.22-4.33-8.01-6.64-1.39-1.16-2.81-2.34-4.26-3.54-1.42-1.24-2.81-2.55-4.26-3.86-2.88-2.64-5.85-5.36-8.92-8.17-3-2.88-5.96-5.97-9.06-9.08-12.22-12.6-24.85-27.32-36.23-44.16-6.7-10.26-13.19-20.7-18.55-31.74-5.64-10.9-10.16-22.37-14.07-34.01l-2.65-8.83c-.21-.74-.46-1.47-.64-2.22l-.52-2.25-1.05-4.49-1.05-4.49c-.34-1.5-.53-3.03-.8-4.55l-.75-4.56-.38-2.28c-.12-.76-.27-1.51-.32-2.31-.16-1.58-.33-3.15-.33-4.74-.09-1.59.02-3.19.09-4.78.28-3.19.83-6.38,1.83-9.46,2.02-6.15,5.76-11.73,10.55-16.01,4.78-4.31,10.44-7.42,16.34-9.64,1.48-.55,2.97-1.05,4.49-1.48.76-.22,1.52-.42,2.29-.61l1.16-.27,1.29-.27c.75-.13,1.49-.25,2.24-.36l1.34,1.48.63.7.37.43.75.87,2.98,3.48c7.87,9.34,15.55,18.82,22.98,28.5,14.91,19.31,29.08,39.19,42.42,59.63Z"/><path class="cls-1" d="m600.14,658.69c8.99,2.18,17.72,4.71,25.84,8.28,4.05,1.79,7.95,3.92,11.42,6.72,1.7,1.45,3.3,3.09,4.51,5.09.61.99,1.08,2.1,1.41,3.26.12.6.29,1.15.34,1.79.07.64.04,1.27-.03,1.9-.35,2.51-1.57,4.47-2.8,6.14-1.27,1.68-2.68,3.09-4.1,4.41-2.86,2.63-5.82,4.87-8.71,6.96-5.81,4.14-11.41,7.66-16.54,10.82-10.28,6.29-18.76,11.08-24.62,14.4-5.88,3.28-9.13,5.09-9.13,5.09,0,0,3.13-2.02,8.78-5.68,5.64-3.67,13.84-8.93,23.79-15.66,4.96-3.37,10.38-7.11,15.94-11.38,2.76-2.15,5.57-4.44,8.18-6.99,1.3-1.28,2.55-2.63,3.58-4.08,1.02-1.44,1.83-3,1.98-4.48.02-.37.04-.73-.01-1.09-.03-.36-.18-.77-.25-1.16-.24-.77-.58-1.54-1.05-2.27-.93-1.46-2.25-2.8-3.74-4.01-3.07-2.37-6.72-4.32-10.6-5.96-7.78-3.3-16.34-5.73-25.18-7.86-10.69-2.55-21.55-4.51-32.46-6.2-10.91-1.68-21.87-3.06-32.86-4.26-21.98-2.38-44.05-4.06-66.13-5.21l-8.28-.39-1.74-.07c.27-.12-.67.3-1.23.56l-3.71,1.77c-4.93,2.41-9.8,4.97-14.57,7.7-9.52,5.45-18.76,11.46-27.11,18.45-4.15,3.51-8.11,7.25-11.49,11.4-3.38,4.14-6.23,8.69-7.8,13.59l-.45,1.86-.23.93c-.05.31-.08.63-.12.94l-.23,1.88.03,1.88v.94s.13.84.13.84c.03.28.09.56.18.84.08.28.14.55.23.83.42,1.08.91,2.16,1.64,3.15,1.37,2.02,3.27,3.8,5.34,5.38,2.08,1.58,4.36,2.98,6.72,4.25,7.88,4.17,16.32,7.05,24.51,9.53,8.22,2.45,16.29,4.4,24.03,6.09,15.48,3.36,29.6,5.67,41.47,7.45,11.88,1.77,21.54,2.95,28.23,3.71,3.34.38,5.94.64,7.7.8,1.76.17,2.69.22,2.69.22,0,0-.93.01-2.7-.03-1.77-.04-4.39-.14-7.75-.31-6.73-.35-16.45-.99-28.44-2.22-11.98-1.25-26.24-3.02-41.94-6.01-7.85-1.5-16.05-3.31-24.46-5.68-8.39-2.41-17.04-5.28-25.41-9.69-2.51-1.35-4.98-2.86-7.3-4.63-2.32-1.77-4.54-3.81-6.3-6.38-.91-1.25-1.6-2.7-2.17-4.2-.12-.38-.22-.78-.33-1.17-.12-.39-.21-.78-.25-1.19l-.17-1.21-.02-1.14-.02-2.28.26-2.25c.05-.37.08-.75.14-1.12l.26-1.09.54-2.18c1.82-5.68,5-10.66,8.6-15.08,3.62-4.44,7.76-8.34,12.06-11.98,8.65-7.24,18.07-13.35,27.76-18.9,4.85-2.77,9.79-5.37,14.81-7.83l3.79-1.81.96-.44.65-.29c.32-.14.62-.33.98-.26l2.41.09,8.32.39c22.17,1.16,44.3,2.84,66.38,5.23,11.04,1.2,22.06,2.59,33.05,4.28,10.99,1.7,21.95,3.68,32.81,6.27Z"/><path class="cls-1" d="m841.08,728.17c-7.88,1.88-15.18,2.77-20.48,3.17-2.65.21-4.81.26-6.29.31-1.49.02-2.31.04-2.31.04,0,0,.79-.25,2.2-.71,1.42-.45,3.48-1.04,6.02-1.79,5.08-1.48,12.07-3.41,19.84-5.27,18.76-4.51,37.13-10.66,54.71-18.58,7.27-3.29,13.96-6.08,18.85-8.08,2.45-.99,4.42-1.82,5.81-2.35,1.39-.53,2.17-.82,2.17-.82,0,0-.65.5-1.83,1.41-1.19.89-2.91,2.2-5.12,3.68-4.4,2.98-10.7,6.8-18.09,10.14-17.84,8.04-36.48,14.27-55.48,18.84Z"/><path class="cls-1" d="m438.42,879.27c5.07-5.1,9.91-9.5,13.48-12.66,1.8-1.57,3.24-2.86,4.27-3.71,1.04-.85,1.61-1.33,1.61-1.33,0,0-.39.63-1.1,1.78-.73,1.13-1.76,2.78-3.16,4.72-2.77,3.91-6.87,9.12-12.01,14.3-12.46,12.44-25.94,23.96-40.79,33.6-6.18,3.96-12.27,6.73-16.8,8.35-1.12.44-2.16.76-3.08,1.04-.92.27-1.71.5-2.35.69-1.3.35-2.01.55-2.01.55,0,0,.62-.42,1.74-1.17.56-.36,1.25-.81,2.05-1.32.8-.5,1.71-1.06,2.69-1.74,3.99-2.57,9.37-6.2,15.4-10.06,14.52-9.41,27.79-20.75,40.08-33.02Z"/><path class="cls-1" d="m288.28,303.99c-6.17,16.23-10.86,31.21-13.22,42.35-1.2,5.56-1.95,10.12-2.37,13.29-.25,1.58-.36,2.82-.48,3.66-.11.84-.16,1.28-.16,1.28,0,0,0-.44-.03-1.29,0-.84-.06-2.09-.02-3.7.01-3.21.22-7.87.9-13.61,1.29-11.47,5.03-27.11,11.28-43.53.92-2.5,1.91-4.96,2.87-7.44,1.03-2.47,2.03-4.98,3.19-7.4,2.24-4.88,4.71-9.63,7.37-14.27,2.66-4.64,5.48-9.18,8.44-13.62,1.48-2.22,3-4.42,4.56-6.58.77-1.09,1.57-2.16,2.37-3.24l1.21-1.6,1.59-2.04c.11-.11.21-.25.33-.34l.38-.23c.25-.15.54-.22.85-.25.31-.02.64,0,.96.02l.83.08,2.01.25,3.94.57c2.62.41,5.22.85,7.82,1.31,5.2.93,10.37,1.95,15.53,3.04,10.31,2.2,20.56,4.71,30.72,7.59,16.9,4.77,31.71,10.83,41.95,16.09,5.13,2.61,9.15,4.98,11.86,6.7,2.72,1.72,4.16,2.74,4.16,2.74,0,0-1.59-.8-4.49-2.14-2.9-1.34-7.13-3.21-12.44-5.3-10.6-4.22-25.53-9.15-42.25-13.87-10.05-2.85-20.21-5.34-30.43-7.52-5.11-1.09-10.24-2.1-15.38-3.02-2.57-.46-5.15-.89-7.72-1.29l-3.85-.56-2.05-.25-2.02,2.65c-.78,1.05-1.56,2.1-2.32,3.17-1.53,2.12-3.02,4.28-4.48,6.46-2.91,4.36-5.68,8.81-8.28,13.36-2.61,4.54-5.02,9.18-7.2,13.92-1.13,2.36-2.09,4.77-3.09,7.18-.95,2.45-1.93,4.9-2.84,7.37Z"/><path class="cls-1" d="m709.19,489.43c1.03,40.13,1.22,76.48,1.11,102.79-.06,13.16-.17,23.8-.29,31.16-.12,7.36-.19,11.43-.19,11.43,0,0-.18-4.07-.5-11.42-.29-7.35-.7-17.99-1.22-31.13-.98-26.29-2.26-62.6-3.29-102.72-.63-24.21-1.32-48.42-2.1-72.63l-.3-9.08-.08-2.27-.06-1.75v-.57s.37-.42.37-.42l.77-.83.86-.89.82-.83c.55-.55,1.1-1.09,1.66-1.62,4.47-4.27,9.25-8.21,14.52-11.58,2.63-1.68,5.39-3.2,8.31-4.46,2.92-1.25,6-2.24,9.26-2.69,3.24-.45,6.68-.32,9.93.69,3.25.99,6.19,2.87,8.57,5.17.57.6,1.16,1.18,1.71,1.79l1.49,1.94c.96,1.3,1.74,2.6,2.61,3.9l2.36,3.99,2.2,4.06c2.82,5.47,5.26,11.11,7.47,16.82,4.34,11.46,7.66,23.3,9.82,35.35,4.41,24.07,4.59,48.95.21,73.06-.22,1.25-.44,2.49-.66,3.74-.28,1.23-.56,2.45-.83,3.68-.28,1.22-.55,2.44-.83,3.65-.28,1.21-.53,2.43-.89,3.61-.67,2.38-1.34,4.73-2,7.07l-.5,1.75-.58,1.72c-.39,1.14-.78,2.28-1.16,3.41-1.45,4.56-3.3,8.88-5.01,13.14l-.64,1.59-.72,1.55c-.48,1.03-.96,2.05-1.44,3.07-.96,2.03-1.87,4.06-2.85,6.02-7.98,15.63-16.95,28.69-25.24,38.97-.98,1.33-2.07,2.52-3.08,3.72-1.02,1.19-2.02,2.35-2.98,3.48-.97,1.13-1.91,2.22-2.82,3.28-.89,1.08-1.88,2.02-2.77,2.98-1.81,1.9-3.49,3.66-5.03,5.28-.77.81-1.51,1.59-2.22,2.32-.74.71-1.45,1.38-2.11,2.01-5.35,5.05-8.31,7.85-8.31,7.85,0,0,2.79-2.96,7.82-8.33.63-.67,1.29-1.37,1.99-2.12.66-.77,1.36-1.59,2.09-2.43,1.46-1.69,3.04-3.53,4.74-5.51.83-1,1.77-1.98,2.6-3.09.86-1.1,1.74-2.23,2.65-3.39.91-1.16,1.85-2.36,2.81-3.59.95-1.24,1.98-2.46,2.9-3.82,7.79-10.52,16.18-23.72,23.66-39.26.91-1.95,1.76-3.96,2.67-5.97.45-1.01.9-2.02,1.35-3.04l.68-1.53.6-1.58c1.6-4.22,3.35-8.47,4.71-12.96.37-1.11.73-2.23,1.1-3.35l.55-1.69.48-1.72c.63-2.3,1.26-4.61,1.9-6.94.35-1.16.58-2.35.85-3.54.26-1.19.53-2.38.8-3.58.27-1.2.54-2.39.81-3.6.21-1.21.42-2.43.64-3.66,4.28-23.58,4.11-47.92-.21-71.49-2.12-11.8-5.37-23.38-9.61-34.57-2.16-5.58-4.54-11.07-7.27-16.37l-2.12-3.92-2.27-3.83c-.82-1.21-1.6-2.51-2.44-3.65l-1.28-1.66c-.47-.51-.95-.99-1.43-1.49-1.97-1.9-4.27-3.36-6.82-4.14-2.54-.79-5.29-.92-8.04-.54-5.52.79-10.88,3.38-15.81,6.5-4.95,3.16-9.56,6.95-13.84,11.05-.54.51-1.06,1.03-1.59,1.55l-1.49,1.54h0s.02.52.02.52l.08,2.27.3,9.08c.78,24.22,1.47,48.44,2.1,72.66Z"/></svg>