<svg class="lotus" id="Lotus" xmlns="http://www.w3.org/2000/svg" xmlns:xlink="http://www.w3.org/1999/xlink" x="0px" y="0px"
	viewBox="0 0 1080 1080" xml:space="preserve">


<path class="lotus" d="M471.7,516.9c-5.3-9.3-7.7-17.7-7.7-17.7s5.4,6.8,10.6,16c3.1,5.5,6.4,11,9.8,16.4c3.4,5.4,6.9,10.7,10.6,15.9
	c3,4.3,5.6,8.4,7.4,11.3c1.8,3,2.9,4.9,2.9,4.9s-1.7-1.4-4.2-3.8c-2.5-2.5-5.7-6.1-8.8-10.4c-3.7-5.3-7.3-10.6-10.7-16
	C478.1,528,474.8,522.5,471.7,516.9z"/>


<path class="lotus" d="M639.3,488.8c0.3-3.8,0.9-7.3,1.2-9.8c0.2-1.3,0.4-2.3,0.5-3c0.1-0.7,0.2-1.1,0.2-1.1s0.1,0.4,0.3,1.1
	c0.2,0.7,0.5,1.7,0.6,3c0.5,2.6,0.7,6.2,0.4,10.1c-0.8,9.5-2.8,18.9-5.4,28c-1.1,3.8-2.6,7.1-3.8,9.4c-1.2,2.3-2.1,3.6-2.1,3.6
	s0.1-1.6,0.6-4.2c0.4-2.6,1.1-6,2.2-9.7C636.5,507.3,638.4,498.1,639.3,488.8z"/>


<path class="lotus" d="M556,507.4c13.6-1.9,26.3-4.8,37.7-8.3c11.3-3.5,21.2-7.7,28.9-12.3c3.8-2.3,7.1-4.7,9.7-7.1c2.6-2.4,4.4-4.9,5.6-7.1
	c1.1-2.2,1.5-4.2,1.6-5.5c0.1-0.7,0-1.2,0-1.5c0-0.3,0-0.5,0-0.5s0,0.2,0.1,0.5c0,0.3,0.2,0.8,0.1,1.5c0.1,1.3-0.2,3.4-1.2,5.8
	c-1,2.4-2.7,5.1-5.2,7.8c-2.5,2.7-5.7,5.4-9.5,8c-15.2,10.4-39.5,19.1-67.1,23c-16.7,2.3-33.6,3.2-50.4,1.5
	c-8.4-0.9-16.8-2.3-25-5.2c-4.1-1.5-8-3.3-11.7-6c-1.8-1.4-3.5-3-4.9-4.9c-1.4-1.9-2.4-4.2-2.8-6.7c-0.3-2.5,0-5,0.8-7.2
	c0.8-2.2,2-4.2,3.3-6.1c2.7-3.6,6-6.5,9.5-9c7-5,14.7-8.8,22.5-12c15.7-6.3,32.2-10.2,48.9-12.6c27.6-3.9,53.4-2.3,70.9,3.4
	c4.4,1.4,8.2,3.1,11.3,5c3.1,1.9,5.6,4,7.2,6c1.6,2,2.4,3.9,2.7,5.2c0.2,0.6,0.2,1.2,0.3,1.5c0.1,0.3,0.1,0.5,0.1,0.5
	s0-0.2-0.1-0.5c-0.1-0.3-0.2-0.8-0.4-1.4c-0.4-1.2-1.4-3-3.1-4.8c-1.7-1.8-4.2-3.6-7.3-5.3c-3.2-1.6-7-3-11.3-4.1
	c-8.6-2.3-19.3-3.5-31.2-3.7c-11.9-0.2-24.9,0.7-38.5,2.6c-16.3,2.4-32.6,6.2-47.8,12.3c-7.6,3.1-15,6.7-21.6,11.5
	c-3.3,2.4-6.2,5.1-8.6,8.1c-2.3,3.1-3.8,6.6-3.3,10c0.5,3.4,2.9,6.4,5.9,8.7c3.1,2.3,6.7,4,10.5,5.4c7.6,2.7,15.7,4.1,23.9,5
	C523,510.5,539.7,509.7,556,507.4z"/>


<path class="lotus" d="M439.5,335.4c-0.1,2.3-0.2,4.6-0.2,6.8c0,2.3,0,4.5,0,6.7c0,2.2,0,4.5,0.1,6.6c0.1,2.2,0.2,4.4,0.3,6.5l0.1,1.6l0.2,1.6
	c0.1,1.1,0.2,2.1,0.3,3.2c0.2,2.1,0.4,4.2,0.8,6.2c0.3,2,0.6,4.1,0.9,6.1c0.4,2,0.8,4,1.2,5.9c1.7,7.7,3.6,15.1,5.9,21.7
	c0.3,0.8,0.5,1.7,0.8,2.5c0.3,0.8,0.6,1.6,0.9,2.4c0.6,1.6,1.1,3.2,1.7,4.7c1.2,3,2.4,6,3.6,8.7c4.8,11,9.5,19.7,12.9,25.5
	c1.7,2.9,3,5.2,3.9,6.7c0.9,1.5,1.4,2.3,1.4,2.3s-0.5-0.8-1.5-2.2c-1-1.5-2.5-3.7-4.3-6.5c-3.7-5.7-8.9-14.1-14.3-25
	c-1.4-2.7-2.7-5.6-4-8.7c-0.7-1.5-1.3-3.1-2-4.7c-0.3-0.8-0.7-1.6-1-2.4c-0.3-0.8-0.6-1.7-0.9-2.5c-2.6-6.7-4.8-14.1-6.7-21.9
	c-0.4-2-0.9-4-1.3-6c-0.4-2-0.7-4.1-1.1-6.2c-0.4-2.1-0.6-4.2-0.9-6.4c-0.1-1.1-0.3-2.2-0.4-3.2l-0.2-1.6l-0.1-1.6
	c-0.1-2.2-0.3-4.4-0.4-6.7c-0.1-2.2-0.1-4.5-0.1-6.8c0-2.3-0.1-4.6-0.1-6.8c0-2.3,0.2-4.6,0.2-6.9c0.7-19.4,3.5-38.8,8.7-57.6
	c5.3-18.7,12.7-36.9,22.5-53.7c9.7-16.9,21.7-32.4,35.2-46.4c6.8-7,14-13.5,21.7-19.5c1.9-1.5,3.9-3,5.8-4.5c2-1.4,3.9-2.9,6-4.2
	c1-0.7,2-1.4,3-2c1-0.7,2-1.3,3.1-2c1-0.7,2.1-1.3,3.1-1.9l1.6-0.9l0.9-0.5l1.6-0.9l1.1,0.3l0.5,0.2l0.4,0.1l1.1,0.4
	c0.7,0.3,1.5,0.5,2.2,0.8c1.4,0.6,2.9,1.2,4.3,1.8c2.8,1.3,5.6,2.6,8.3,4c5.5,2.8,10.7,5.9,15.9,9.2c15.7,10.2,29.1,22,40.1,33.8
	c2.8,2.9,5.4,5.9,7.9,8.8c2.4,2.9,4.8,5.8,7,8.6c4.4,5.6,8.2,11.1,11.6,16.1c6.7,10.1,11.4,18.8,14.6,24.7c1.6,3,2.7,5.4,3.5,7
	c0.8,1.6,1.2,2.4,1.2,2.4s-1.9-3.2-5.3-9.1c-3.6-5.8-8.7-14.1-15.8-23.8c-3.6-4.9-7.6-10.1-12.2-15.5c-2.2-2.7-4.7-5.5-7.2-8.3
	c-2.6-2.8-5.2-5.6-8-8.4c-11.2-11.3-24.5-22.7-39.9-32.7c-5-3.3-10.2-6.3-15.5-9c-2.6-1.4-5.3-2.6-8.1-3.9
	c-1.4-0.6-2.7-1.2-4.1-1.7c-0.7-0.3-1.4-0.5-2.1-0.8l-1.2-0.4l-0.7,0.4l-1.5,0.9c-1,0.6-2,1.2-3,1.9c-1,0.6-2,1.3-3,1.9
	c-1,0.6-2,1.3-3,2c-2,1.3-3.9,2.7-5.8,4.1c-1.9,1.5-3.8,2.9-5.7,4.4c-7.5,5.9-14.6,12.3-21.3,19.2c-13.3,13.7-25.1,28.9-34.6,45.5
	c-9.6,16.5-16.9,34.3-22.1,52.7C443,297.3,440.3,316.3,439.5,335.4z"/>


<path class="lotus" d="M664.3,288.6c-1.7,4.3-3.1,8.7-4.5,12.9c-1.3,4.3-2.7,8.5-3.8,12.7c-2.4,8.4-4.3,16.6-5.9,24.5
	c-3.2,15.7-5.3,30.1-6.4,42.2c-1.2,12.1-1.6,22-1.7,28.8c0,1.7,0,3.2,0,4.5c0,1.3,0,2.4,0.1,3.3c0,1.8,0,2.7,0,2.7
	s-0.1-0.9-0.2-2.7c-0.1-0.9-0.2-2-0.3-3.3c-0.1-1.3-0.2-2.8-0.2-4.5c-0.3-6.8-0.5-16.7,0.2-29c0.6-12.2,2.1-26.8,5-42.7
	c1.5-8,3.2-16.3,5.5-24.8c1.1-4.3,2.4-8.6,3.7-13c1.4-4.3,2.8-8.8,4.5-13.1l3-7.9c1-2.6,2.2-5.2,3.2-7.8l1.6-3.9
	c0.5-1.3,1.2-2.6,1.8-3.9l3.6-7.7c5.2-10.1,11-19.9,18.1-28.9c3.5-4.5,7.6-8.6,11.9-12.5c4.5-3.7,9.3-7,14.8-9.3l2.1-0.8
	c0.7-0.3,1.4-0.5,2.1-0.7l2.2-0.6l1.1-0.3c0.4-0.1,0.7-0.1,1.1-0.2c1.5-0.2,3-0.5,4.5-0.4l1.1,0l0.6,0c0.2,0,0.4,0,0.6,0
	c0.5,0.1,1,0.2,1.4,0.3l1.1,0.4c0.8,0.2,1.4,0.5,2.1,0.8c0.7,0.3,1.4,0.6,2,0.9c0.7,0.3,1.3,0.6,2,1l1.9,1c2.5,1.4,4.9,3,7.3,4.6
	c9.4,6.5,17.9,14.4,25.1,23.2c7.3,8.8,13.6,18.4,18.6,28.6c10.1,20.4,15.6,43,17.3,65.6c1.4,18.8,0.2,36.7-2,52.8
	c-0.6,4-1.3,7.9-1.9,11.7c-0.7,3.8-1.6,7.4-2.3,10.9c-0.4,1.8-0.7,3.5-1.1,5.2c-0.4,1.7-0.9,3.3-1.3,4.9c-0.9,3.2-1.7,6.3-2.5,9.3
	c-3.5,11.7-6.5,21.1-9,27.5c-2.4,6.4-3.7,9.9-3.7,9.9s1.1-3.6,3-10.2c2.1-6.5,4.6-16,7.5-27.9c0.7-3,1.3-6.1,2-9.3
	c0.4-1.6,0.7-3.3,1.1-5c0.3-1.7,0.6-3.4,0.9-5.2c0.6-3.5,1.3-7.2,1.9-10.9c0.5-3.8,1-7.6,1.5-11.6c1.8-15.9,2.7-33.6,1.3-51.9
	c-1.6-22.2-7-44.1-16.9-64c-4.9-9.9-11-19.3-18.1-27.7c-7.1-8.5-15.2-16.1-24.3-22.4c-2.3-1.6-4.6-3-7-4.4l-1.8-1
	c-0.6-0.3-1.2-0.6-1.8-0.9c-0.6-0.3-1.2-0.6-1.8-0.8c-0.6-0.2-1.2-0.5-1.8-0.7l-0.9-0.3c-0.2-0.1-0.4-0.1-0.6-0.1
	c-0.1,0-0.3,0-0.4,0l-0.5,0l-1,0c-1.3,0-2.6,0.2-3.9,0.4c-0.3,0-0.6,0.1-1,0.1l-1,0.2l-1.9,0.5c-0.6,0.1-1.3,0.4-1.9,0.6l-1.9,0.7
	c-4.9,2.1-9.4,5.1-13.6,8.6c-4.1,3.6-7.9,7.5-11.3,11.9c-6.9,8.6-12.6,18.2-17.6,28.1l-3.6,7.5c-0.6,1.3-1.2,2.5-1.7,3.8l-1.6,3.9
	c-1.1,2.6-2.2,5.1-3.2,7.7L664.3,288.6z"/>


<path class="lotus" d="M924.1,319.7c-0.1-1-0.2-2.7-0.2-2.2l0,0l0,0l-0.3-0.2c-0.5-0.2-0.9-0.5-1.4-0.7c-1.9-0.9-3.8-1.6-5.8-2.2
	c-3.9-1.2-7.9-1.9-11.9-2.2c-2-0.2-4-0.1-5.9-0.1c-1,0.1-2,0.2-2.9,0.2c-1,0.1-1.9,0.1-2.9,0.3c-1.9,0.3-3.8,0.6-5.6,1.1
	c-0.9,0.2-1.8,0.5-2.7,0.7c-0.9,0.2-1.8,0.6-2.6,0.9c-0.9,0.3-1.7,0.6-2.6,0.9c-0.9,0.3-1.7,0.7-2.5,1.1c-1.6,0.8-3.3,1.4-4.9,2.3
	c-1.6,0.8-3.1,1.6-4.6,2.5c-1.5,0.9-3,1.7-4.4,2.6c-5.7,3.5-11,7-15.7,10.4c-9.4,6.6-16.8,12.3-21.9,16.3c-5.1,4-7.9,6.2-7.9,6.2
	s2.6-2.5,7.4-6.7c4.8-4.3,11.9-10.4,21-17.5c4.6-3.6,9.7-7.3,15.3-11.1c1.4-1,2.9-1.9,4.4-2.8c1.5-1,3.1-1.9,4.7-2.8
	c1.6-1,3.3-1.7,5-2.6c0.9-0.4,1.7-0.9,2.6-1.2c0.9-0.3,1.8-0.7,2.7-1c0.9-0.3,1.8-0.7,2.8-1c1-0.3,1.9-0.5,2.9-0.8
	c1.9-0.6,3.9-0.9,6-1.3c1-0.2,2-0.3,3.1-0.4c1-0.1,2.1-0.2,3.1-0.3c2.1,0,4.2-0.2,6.4,0c4.3,0.2,8.7,0.9,12.9,2.2
	c2.1,0.7,4.3,1.4,6.3,2.4c0.5,0.2,1,0.5,1.6,0.8c0.1,0.1,0.2,0.1,0.4,0.2l0.7,0.4l0.7,0.4l0.3,0.2c0.1,0.1,0.3,0.1,0.2,0.3
	c0.3,2.6,0.3,3.1,0.4,4.3c1.7,21.2,3.2,42.4,3.9,63.7c0.4,10.6,0.6,21.3,0.3,32c0,2.7-0.2,5.4-0.5,8.1l-0.4,4
	c-0.1,1.3-0.4,2.7-0.6,4c-0.4,2.7-0.9,5.3-1.4,7.9c-0.6,2.6-1.1,5.3-1.8,7.9c-5.2,20.8-13.1,40.9-23.2,59.8
	c-5.1,9.4-10.7,18.6-16.8,27.4c-6.2,8.7-13,17.1-20.2,25c-12.1,13-25.1,24-38,32.4c-1.6,1-3.2,2.1-4.8,3.1c-1.6,1-3.1,2-4.7,2.9
	c-1.6,0.9-3.1,1.8-4.7,2.6c-1.5,0.9-3,1.8-4.6,2.5c-3.1,1.5-6,3-8.9,4.4c-2.9,1.2-5.7,2.4-8.4,3.6c-1.3,0.6-2.7,1.1-3.9,1.5
	c-1.3,0.5-2.6,0.9-3.8,1.4c-2.5,0.9-4.7,1.8-7,2.4c-2.2,0.7-4.2,1.3-6.1,1.8c-0.9,0.3-1.8,0.6-2.7,0.8c-0.9,0.3-1.7,0.4-2.5,0.6
	c-6.3,1.5-9.8,2.3-9.8,2.3s3.4-1.1,9.6-3c0.8-0.2,1.6-0.5,2.4-0.8c0.8-0.3,1.7-0.6,2.6-1c1.8-0.7,3.8-1.4,6-2.2
	c2.2-0.7,4.4-1.8,6.8-2.8c1.2-0.5,2.4-1,3.7-1.6c1.3-0.5,2.6-1.1,3.8-1.7c2.6-1.2,5.3-2.6,8.1-3.9c2.8-1.5,5.6-3.1,8.6-4.7
	c1.5-0.8,2.9-1.7,4.4-2.6c1.5-0.9,3-1.8,4.5-2.8c1.5-0.9,3-1.9,4.6-3c1.5-1,3.1-2.1,4.6-3.1c12.4-8.6,25-19.6,36.9-32.4
	c7.1-7.7,13.8-15.9,19.9-24.5c6.1-8.6,11.6-17.6,16.5-26.9c9.9-18.6,17.7-38.3,22.8-58.8c0.7-2.5,1.2-5.1,1.7-7.7
	c0.5-2.6,1-5.1,1.4-7.7c0.2-1.3,0.4-2.6,0.6-3.9l0.4-3.9c0.2-2.6,0.4-5.2,0.4-7.8c0.3-10.5,0.1-21.1-0.3-31.7
	C927.3,362,925.9,340.8,924.1,319.7z"/>


<path class="lotus" d="M974.1,583.8c-0.9-1.4-1.8-2.9-2.7-4.3c-0.9-1.4-1.8-2.8-2.7-4.1c-0.5-0.7-0.9-1.4-1.3-2c-0.5-0.6-1-1.3-1.4-1.9
	c-0.5-0.6-1-1.3-1.4-1.9c-0.5-0.6-0.9-1.3-1.5-1.9c-3.9-4.9-8.3-9.1-12.8-12.6c-0.6-0.4-1.2-0.8-1.7-1.3c-0.6-0.4-1.1-0.8-1.7-1.2
	c-1.2-0.7-2.4-1.4-3.5-2.2c-2.4-1.2-4.8-2.5-7.2-3.4c-2.3-1.1-4.8-1.7-7-2.5c-1.2-0.3-2.3-0.6-3.4-0.9c-0.6-0.2-1.1-0.3-1.7-0.5
	c-0.6-0.1-1.1-0.3-1.6-0.4c-8.6-2-15.8-3-20.7-3.8c-4.9-0.7-7.7-1.1-7.7-1.1s2.8,0.2,7.7,0.4c5,0.3,12.2,0.8,21.1,2.3
	c0.6,0.1,1.1,0.2,1.7,0.3c0.6,0.1,1.1,0.2,1.7,0.4c1.2,0.3,2.3,0.5,3.5,0.8c2.4,0.7,4.9,1.3,7.4,2.3c2.6,0.8,5.1,2,7.7,3.2
	c1.3,0.7,2.5,1.4,3.8,2.1c0.7,0.3,1.3,0.8,1.9,1.2c0.6,0.4,1.2,0.8,1.9,1.3c5,3.5,9.7,7.8,13.9,12.9c0.6,0.6,1,1.3,1.6,1.9
	c0.5,0.7,1,1.3,1.5,2c0.5,0.7,1,1.3,1.5,2c0.5,0.7,0.9,1.4,1.4,2.1c0.9,1.4,1.9,2.8,2.8,4.2c0.9,1.4,1.8,2.8,2.7,4.3
	c4.2,6.6,8.4,13.1,12.7,19.5l6.5,9.7l7.5,11.1L990.5,637l-12.8,13.9c-8.5,9.2-17.1,18.4-25.7,27.5c-4.3,4.6-8.7,9.1-13.1,13.6
	c-2.2,2.2-4.4,4.5-6.8,6.6c-1.2,1.1-2.3,2.2-3.5,3.2l-3.7,3.1c-1.2,1-2.5,2-3.8,2.9l-3.8,2.9l-3.9,2.7c-1.3,0.9-2.6,1.8-4,2.6
	c-5.4,3.4-10.9,6.6-16.6,9.4c-12.3,6.2-24.7,10.7-36.2,13.8c-1.4,0.4-2.9,0.8-4.3,1.1c-0.7,0.2-1.4,0.4-2.1,0.5
	c-0.7,0.1-1.4,0.3-2.1,0.4c-2.8,0.6-5.4,1.1-8,1.7c-2.6,0.4-5.1,0.8-7.6,1.2c-1.2,0.2-2.4,0.4-3.6,0.5c-1.2,0.1-2.3,0.2-3.4,0.3
	c-2.2,0.2-4.4,0.4-6.4,0.6c-2,0.1-3.9,0.2-5.7,0.2c-1.8,0.1-3.4,0.1-5,0.2c-1.5,0-2.9,0-4.2,0c-5-0.1-7.8-0.2-7.8-0.2
	s2.8-0.2,7.7-0.5c1.2-0.1,2.6-0.1,4.1-0.3c1.5-0.2,3.1-0.4,4.9-0.5c1.8-0.2,3.6-0.4,5.6-0.6c2-0.3,4.1-0.6,6.3-1
	c1.1-0.2,2.2-0.3,3.4-0.5c1.1-0.2,2.3-0.5,3.5-0.7c2.4-0.5,4.8-1,7.4-1.5c2.5-0.6,5.1-1.3,7.8-2c0.7-0.2,1.3-0.3,2-0.5
	c0.7-0.2,1.4-0.4,2-0.6c1.4-0.4,2.7-0.8,4.1-1.3c11.2-3.5,23.2-8.1,35.2-14.2c5.6-2.8,10.9-5.9,16.2-9.2c1.3-0.8,2.6-1.7,3.9-2.6
	l3.8-2.6l3.7-2.8c1.2-0.9,2.5-1.8,3.7-2.9l3.6-3c1.2-1,2.3-2.1,3.4-3.1c2.3-2.1,4.5-4.3,6.7-6.5c4.4-4.5,8.7-9,13-13.5
	c8.6-9.1,17.2-18.3,25.7-27.5l12.7-13.8l11.5-12.6l-5.6-8.3l-6.5-9.7C982.5,596.9,978.2,590.4,974.1,583.8z"/>


<path class="lotus" d="M689.3,777.5c-16,0.4-31.3-1.4-44.8-4.7c-13.5-3.4-25.2-8.4-33.8-14.7c-2.1-1.6-4.1-3.2-5.8-4.9c-1.7-1.7-3.2-3.4-4.4-5.1
	c-2.4-3.5-3.8-6.9-4.4-9.8c-0.6-2.9-0.4-5.2-0.3-6.7c0.1-0.8,0.2-1.3,0.3-1.7c0.1-0.4,0.1-0.6,0.1-0.6s0,0.2-0.1,0.6
	c0,0.4-0.1,1-0.2,1.7c-0.1,1.5,0,3.8,0.7,6.6c0.7,2.8,2.3,6,4.8,9.1c1.3,1.6,2.8,3.1,4.5,4.6c1.7,1.5,3.7,3,5.8,4.4
	c8.6,5.6,20.1,10,33.4,12.9c13.2,2.9,28.2,4.3,43.9,4c18.9-0.5,37.8-3.6,55.7-9.7c17.8-6.1,34.8-15.2,49-27.5
	c14.3-12.3,26.2-27.4,35.4-43.8c2.3-4.1,4.4-8.3,6.4-12.6c1.9-4.3,3.7-8.7,5.2-13.1c1.5-4.5,2.8-9,3.7-13.6c1-4.6,1.6-9.2,1.7-13.8
	c0.1-3.8-0.3-7.5-1.4-10.9c-0.2-0.9-0.6-1.6-1-2.4c-0.3-0.7-0.7-1.2-1.2-1.7c-0.5-0.5-1.1-0.9-1.8-1.2c-0.7-0.3-1.5-0.6-2.3-0.8
	c-3.2-0.9-6.8-0.9-10.3-0.7c-3.5,0.2-6.9,0.7-10.3,1.2c-6.7,1.1-13,2.6-18.9,4.1c-5.9,1.5-11.4,3.1-16.3,4.5
	c-10,2.9-18,5.3-23.6,6.8c-5.6,1.6-8.8,2.2-8.8,2.2s3.1-0.9,8.6-2.8c5.5-1.9,13.4-4.9,23.2-8.3c4.9-1.7,10.3-3.5,16.2-5.3
	c5.9-1.8,12.2-3.5,19-4.9c3.4-0.7,7-1.2,10.7-1.5c3.7-0.3,7.6-0.4,11.6,0.6c1,0.2,2,0.6,3,1.1c1,0.5,2,1.1,2.9,1.9
	c0.9,0.8,1.7,1.9,2.1,2.9c0.4,1,1,1.9,1.2,3c1.3,4,1.7,8.2,1.6,12.3c-0.1,5-0.8,9.9-1.8,14.6c-1,4.8-2.3,9.5-3.9,14.1
	c-1.6,4.6-3.4,9.1-5.4,13.5c-2,4.4-4.2,8.7-6.5,13c-9.5,16.9-21.6,32.3-36.4,45c-14.7,12.8-32.1,22.1-50.4,28.4
	C727.9,773.7,708.6,777,689.3,777.5z"/>


<path class="lotus" d="M679,745.7c-4.4,1.1-8.7,2.3-12.9,3c-2.1,0.4-4.2,0.8-6.2,1.1c-2,0.3-4.1,0.5-6,0.7c-2,0.2-3.9,0.5-5.7,0.6
	c-1.9,0.1-3.7,0.2-5.4,0.3c-1.7,0.1-3.4,0.1-5.1,0.2c-1.6,0-3.2-0.1-4.7-0.1c-3-0.1-5.6-0.1-8-0.3c-2.3-0.3-4.4-0.5-6-0.7
	c-3.3-0.4-5.1-0.6-5.1-0.6s1.8,0,5.1-0.1c1.6,0,3.7,0,6,0c2.3-0.1,5-0.3,7.9-0.5c1.5-0.1,3-0.1,4.6-0.3c1.6-0.2,3.2-0.4,4.9-0.6
	c1.7-0.2,3.5-0.4,5.3-0.6c1.8-0.3,3.7-0.6,5.6-1c1.9-0.3,3.9-0.6,5.8-1c2-0.4,4-0.9,6-1.3c4.1-0.8,8.3-2,12.6-3.1
	c10.3-2.9,20.5-6.5,30.4-10.8c9.8-4.3,19.4-9.4,28.4-15.1c2.3-1.4,4.5-3,6.7-4.4c1.1-0.8,2.2-1.6,3.2-2.4c1.1-0.8,2.2-1.6,3.2-2.4
	l3.1-2.5l3.1-2.6c2.1-1.7,4.2-3.5,6.3-5.2c8.6-6.8,17.6-13.2,27.3-18.5c3.6-1.9,7.2-3.6,10.9-5c0.9-0.3,1.8-0.6,2.8-0.9
	c0.9-0.3,1.8-0.5,2.8-0.8c0.9-0.2,1.8-0.4,2.8-0.6c0.5-0.1,0.9-0.1,1.4-0.2l0.4,0l0.1,0l0,0l0,0c0,0,0,0-0.1,0l0,0l0,0l0.1,0
	c0,0,0,0,0.1-0.1c0.1-0.1,0,0,0.1-0.1l0.8-0.9c0.5-0.6,1-1.2,1.5-1.7c1-1.1,2-2.2,3-3.3c2-2.1,4-4,5.9-5.8
	c3.8-3.5,7.4-6.4,10.5-8.7c1.5-1.1,3-2.1,4.2-2.9c1.3-0.8,2.3-1.5,3.2-2c1.8-1,2.8-1.5,2.8-1.5s-0.9,0.7-2.5,1.9
	c-0.8,0.6-1.8,1.4-2.9,2.3c-1.1,1-2.4,2-3.8,3.3c-2.8,2.5-6,5.7-9.5,9.5c-1.7,1.9-3.5,3.9-5.4,6.1c-0.9,1.1-1.9,2.2-2.8,3.4
	c-0.5,0.6-0.9,1.2-1.4,1.8c-0.6,0.8-1.3,1.7-1.9,2.5l-1.2,0.1l-0.3,0l-0.1,0l0,0l0,0l-0.1,0l-0.3,0c-0.4,0-0.8,0.1-1.2,0.2
	c-0.8,0.1-1.6,0.4-2.4,0.6c-0.8,0.3-1.7,0.5-2.5,0.8c-0.8,0.3-1.7,0.6-2.5,0.9c-3.4,1.4-6.8,3-10.3,4.9c-9.4,5.1-18.2,11.3-26.6,18
	c-2.1,1.6-4.2,3.4-6.3,5.1l-3.1,2.6l-3.2,2.6c-1.1,0.9-2.2,1.7-3.3,2.5c-1.1,0.8-2.2,1.7-3.3,2.4c-2.3,1.5-4.5,3.1-6.9,4.6
	c-9.3,5.9-19,11-29,15.4C699.9,739,689.6,742.7,679,745.7z"/>


<path class="lotus" d="M637.5,860.3c3-2.5,5.9-5,8.8-7.4c2.8-2.4,5.4-4.7,7.8-7.1c4.8-4.7,9-9.1,12.3-13c3.4-3.9,5.9-7.1,7.7-9.4
	c0.9-1.2,1.5-2,2-2.7c0.4-0.6,0.7-0.9,0.7-0.9s-0.2,0.4-0.5,1c-0.3,0.7-0.9,1.7-1.5,2.9c-1.4,2.5-3.6,6.1-6.5,10.4
	c-3,4.3-6.7,9.2-11.4,14.2c-2.3,2.5-4.9,5.1-7.7,7.6c-2.8,2.5-5.7,5-8.7,7.5c-9.7,8.4-19.3,17-28.4,26c-4.6,4.5-9.1,9-13.5,13.7
	c-2.2,2.3-4.4,4.7-6.5,7.1c-1.1,1.2-2.1,2.4-3.1,3.6c-1.1,1.4-1.6,1.9-4.1,5l-2.1-0.9l-1.5-0.6l-2.1-0.8l-4.2-1.6l-8.5-3.2l-17-6.3
	c-14.7-5.3-27.9-10.7-37.4-14.7c-9.5-4-15.3-6.7-15.3-6.7s6.2,1.7,16,4.7c9.8,3,23.4,7.3,38.2,12.7l17.1,6.3l8.5,3.2l4.3,1.6
	l2.7,1.1l2.1-2.5c1.1-1.2,2.1-2.5,3.2-3.7c2.2-2.4,4.3-4.8,6.6-7.2c4.5-4.7,9-9.3,13.6-13.8C618.1,877.4,627.7,868.8,637.5,860.3z"
	/>


<path class="lotus" d="M683.7,821.3c5.3-10.8,9.4-20.9,12.6-28.1c2.9-7.4,4.9-11.9,4.9-11.9s-0.9,4.8-2.9,12.6c-2.2,7.7-5.3,18.3-10.7,29.3
	c-6.3,13.3-14,26.1-23.1,37.8c-9.1,11.7-19.6,22.2-31.3,31.3c-9.7,7.5-19.5,12.8-26.8,16.1c-1.8,0.9-3.5,1.5-4.9,2.1
	c-1.5,0.6-2.7,1.1-3.8,1.5c-2.1,0.8-3.2,1.2-3.2,1.2s1-0.7,2.9-1.9c0.9-0.6,2.1-1.3,3.4-2.1c1.3-0.8,2.9-1.7,4.5-2.8
	c6.7-4.3,15.7-10.4,25.1-17.7c11.4-8.9,21.7-19.1,30.5-30.5C670,846.8,677.5,834.3,683.7,821.3z"/>


<path class="lotus" d="M466.5,863c-3.1-5-5.6-10.1-7.2-14.9c-0.5-1.2-0.7-2.4-1.1-3.6c-0.3-1.2-0.7-2.3-0.9-3.4c-0.2-1.1-0.5-2.2-0.7-3.2
	c-0.2-1-0.3-2-0.4-3c-0.1-1-0.3-1.8-0.3-2.7c-0.1-0.9-0.1-1.7-0.2-2.4c0-0.8-0.1-1.5-0.1-2.1c0-0.6,0-1.2,0-1.8
	c0.1-2.1,0.1-3.3,0.1-3.3s0.2,1.2,0.6,3.2c0.1,0.5,0.2,1.1,0.3,1.7c0.1,0.6,0.3,1.3,0.5,2c0.2,0.7,0.3,1.5,0.5,2.3
	c0.2,0.8,0.5,1.7,0.7,2.6c0.3,0.9,0.5,1.8,0.8,2.8c0.3,1,0.7,2,1,3c0.3,1,0.8,2.1,1.2,3.1c0.5,1.1,0.8,2.2,1.4,3.3
	c1.9,4.5,4.5,9.2,7.5,13.9c7.2,11.5,17.1,21.2,28.2,29.2c11.1,7.9,23.5,14.1,36.5,18.4c10.7,3.7,20.7,6,28.1,7.5
	c3.7,0.7,6.7,1.3,8.8,1.6c2.1,0.3,3.2,0.5,3.2,0.5s-1.2,0.1-3.3,0.1c-2.1,0.1-5.2,0.1-9-0.1c-7.6-0.4-18.1-1.8-29.2-5.6
	c-13.3-4.5-26.1-10.8-37.6-19C484.4,885.2,474.1,875.1,466.5,863z"/>


<path class="lotus" d="M818.9,812.6c-0.9-17.4-4.6-32.8-8.8-43.5c-2-5.4-4.2-9.5-5.7-12.4c-1.6-2.8-2.5-4.4-2.5-4.4s1.1,1.4,3.1,4
	c1.8,2.7,4.5,6.6,7.1,11.8c2.6,5.2,5.2,11.7,7.2,19.2c1,3.7,1.8,7.7,2.5,11.9c0.7,4.2,1.1,8.5,1.4,13c0.4,7.1,0.3,14.2-0.1,21.2
	c-0.2,3.5-0.6,7.1-1,10.6c-0.2,1.8-0.5,3.5-0.8,5.3l-0.5,2.6l-0.3,1.3l-0.2,0.9l-0.3,1.3l-1.9,1.2l-1.2,0.7
	c-0.8,0.5-1.6,0.9-2.4,1.3c-1.6,0.9-3.2,1.7-4.8,2.5c-3.2,1.6-6.5,3.2-9.9,4.5c-6.7,2.8-13.5,5.2-20.5,7c-14,3.7-28.7,5.4-43.3,3.7
	c-9-1-17.3-3.5-24.4-6.7c-3.6-1.5-6.8-3.4-9.8-5.2c-2.9-2-5.6-3.7-7.8-5.6c-1.1-0.9-2.2-1.8-3.2-2.6c-0.9-0.9-1.8-1.8-2.7-2.6
	c-0.8-0.8-1.6-1.6-2.3-2.2c-0.7-0.7-1.3-1.4-1.8-2c-2.1-2.4-3.3-3.8-3.3-3.8s1.3,1.2,3.8,3.3c0.6,0.5,1.3,1.1,2,1.8
	c0.8,0.6,1.6,1.2,2.5,1.9c0.9,0.7,1.9,1.4,2.9,2.2c1.1,0.7,2.2,1.5,3.4,2.3c9.4,6.5,24,13,41.2,14.9c13.9,1.6,28.1,0,41.6-3.6
	c6.8-1.8,13.5-4.1,20-6.8c3.3-1.3,6.4-2.8,9.6-4.4c1.6-0.8,3.1-1.6,4.7-2.5c0.8-0.4,1.5-0.9,2.3-1.3l1.5-0.9l0.3-1.6l0.4-2.5
	c0.3-1.7,0.5-3.4,0.8-5.1c0.4-3.4,0.8-6.9,1-10.3C819.2,826.3,819.3,819.4,818.9,812.6z"/>


<path class="lotus" d="M413,916.9c8.9-4,17-8.5,24.2-13c1.8-1.1,3.5-2.3,5.2-3.4c1.7-1.1,3.2-2.3,4.8-3.4c3.1-2.1,5.8-4.4,8.4-6.3
	c0.6-0.5,1.3-1,1.9-1.5c0.6-0.5,1.1-1,1.7-1.5c1.1-0.9,2.1-1.8,3.1-2.7c2-1.6,3.6-3.2,4.9-4.4c2.7-2.5,4.1-3.8,4.1-3.8
	s-1.3,1.5-3.6,4.3c-1.2,1.4-2.6,3.1-4.4,4.9c-0.9,0.9-1.9,1.9-2.9,3c-0.5,0.5-1,1.1-1.6,1.6c-0.5,0.6-1.1,1.1-1.7,1.6
	c-2.4,2.2-5,4.7-8,7.1c-1.5,1.2-3,2.5-4.6,3.7c-1.7,1.2-3.4,2.4-5.1,3.7c-7.1,4.9-15.3,9.8-24.4,13.9
	c-17.9,8.2-37.1,13.4-56.6,15.9c-9.7,1.2-19.6,1.9-29.4,1.8c-4.9,0-9.8-0.2-14.7-0.6c-2.5-0.2-4.9-0.4-7.4-0.7
	c-1.2-0.2-2.4-0.3-3.7-0.5l-0.9-0.1l-1.2-0.2c-1.2-0.2-2.4-0.4-3.6-0.6l1-8.6l0.8-6.5c0.6-4.3,1.1-8.7,1.7-13
	c1.4-9.8,2.9-19.1,4.5-27.5c1.6-8.4,3.4-16,5-22.2c0.8-3.1,1.6-6,2.3-8.4c0.8-2.5,1.4-4.6,2-6.3c1.3-3.4,2-5.3,2-5.3
	s-0.5,1.9-1.3,5.5c-0.4,1.8-0.8,3.9-1.3,6.4c-0.5,2.5-1,5.4-1.6,8.6c-1.1,6.4-2.2,14-3.5,22.4c-1.2,8.5-2.5,17.7-3.8,27.5
	c-0.6,4.3-1.2,8.7-1.7,13l-1.3,11l0,0l1.5,0.2c1.2,0.2,2.4,0.3,3.6,0.5c2.4,0.3,4.8,0.5,7.2,0.7c4.8,0.3,9.6,0.6,14.4,0.6
	c9.6,0.1,19.3-0.6,28.8-1.8C376.7,930,395.5,924.9,413,916.9z"/>


<path class="lotus" d="M427.7,819.9c29.9-7.4,55.5-19.3,72.9-29.6c8.7-5.2,15.5-9.9,20-13.3c1.2-0.8,2.2-1.6,3-2.3c0.9-0.7,1.6-1.3,2.2-1.7
	c1.2-0.9,1.8-1.4,1.8-1.4s-0.6,0.5-1.7,1.6c-0.6,0.5-1.2,1.1-2,1.9c-0.8,0.8-1.7,1.6-2.8,2.5c-4.3,3.8-10.8,8.9-19.3,14.6
	c-8.5,5.7-19.1,11.9-31.4,17.4c-1.5,0.7-3.1,1.4-4.7,2.1c-1.6,0.7-3.2,1.3-4.9,2c-3.3,1.4-6.7,2.6-10.1,3.9
	c-1.7,0.6-3.5,1.2-5.3,1.8c-0.9,0.3-1.8,0.6-2.7,0.9c-0.9,0.3-1.8,0.5-2.7,0.8c-1.8,0.5-3.7,1.1-5.5,1.6c-1.9,0.5-3.7,1-5.6,1.5
	c-18.3,4.6-37.1,7.4-56,7.8c-9.4,0.2-18.9,0-28.3-0.9c-9.4-0.9-18.8-2.4-28-4.5c-9.2-2-18.3-4.8-27.2-8.2
	c-8.9-3.3-17.6-7.4-25.6-12.6c-4-2.7-7.8-5.6-11.3-9c-3.4-3.4-6.6-7.2-9-11.5c-1.2-2.1-2.3-4.4-3.1-6.7c-0.8-2.3-1.5-4.7-1.8-7.2
	c-0.8-4.9-0.5-10,0.6-14.8c1.8-8,5.7-15,10.3-21c4.6-6,9.8-11,15.2-15.3c10.7-8.5,21.6-14.3,31-18.4c9.4-4.1,17.3-6.6,22.7-8.2
	c2.7-0.8,4.9-1.4,6.3-1.7c1.5-0.4,2.2-0.6,2.2-0.6s-0.7,0.3-2.2,0.7c-1.4,0.5-3.5,1.2-6.2,2.2c-5.3,2-13,5-22,9.6
	c-9,4.6-19.4,10.7-29.5,19.3c-5,4.3-9.9,9.2-14.2,14.9c-4.2,5.7-7.7,12.3-9.3,19.5c-1,4.3-1.2,8.8-0.5,13.1
	c0.3,2.2,0.9,4.3,1.6,6.4c0.7,2.1,1.7,4.1,2.8,6c4.4,7.7,11.3,14,18.9,19c7.6,5,16,9,24.7,12.2c8.7,3.3,17.5,6,26.6,8
	c9,2,18.2,3.5,27.4,4.4c9.2,0.9,18.5,1.1,27.8,0.9C391.1,827.1,409.6,824.4,427.7,819.9z"/>


<path class="lotus" d="M329.9,802.5c-9-0.4-17.3-1.7-24.9-2.9c-7.6-1.2-14.3-2.3-20-2.9c-5.7-0.6-10.4-0.6-13.5-0.2c-0.8,0.1-1.5,0.3-2.1,0.4
	c-0.6,0.2-1.1,0.3-1.5,0.4c-0.8,0.3-1.2,0.4-1.2,0.4s0.4-0.2,1.2-0.6c0.4-0.2,0.9-0.4,1.5-0.6c0.6-0.2,1.3-0.5,2.1-0.6
	c3.2-0.9,7.9-1.4,13.8-1.3c5.9,0,12.8,0.6,20.4,1.4c7.6,0.8,15.9,1.8,24.6,2.2c2.6,0.1,5.2,0.1,7.9,0.1l8,0
	c5.3,0,10.6-0.2,15.9-0.4c10.6-0.5,21.2-1,31.8-2.1c10.6-0.9,21.1-2.3,31.6-3.9c5.2-0.9,10.5-1.7,15.7-2.8c2.6-0.5,5.2-1,7.8-1.6
	l7.8-1.7c17.1-3.9,32.5-8.2,43.5-11.6c2.8-0.9,5.3-1.6,7.5-2.3c2.2-0.7,4.1-1.3,5.6-1.8c3.1-1,4.8-1.6,4.8-1.6s-1.6,0.8-4.5,2.2
	c-1.5,0.7-3.3,1.6-5.4,2.5c-2.1,0.9-4.5,1.9-7.2,3.1c-10.7,4.4-26,9.8-43.3,13.8l-7.8,1.7c-2.6,0.6-5.3,1-7.9,1.6
	c-5.2,1.1-10.5,1.9-15.8,2.8c-10.6,1.6-21.2,3-31.9,4c-10.7,1.1-21.4,1.6-32,2.1c-5.3,0.1-10.7,0.3-16,0.4l-8,0
	C335.3,802.6,332.6,802.6,329.9,802.5z"/>


<path class="lotus" d="M195.9,712.4c14,5.8,26.9,10.2,36.4,13.2c2.4,0.7,4.5,1.5,6.4,2c1.9,0.6,3.5,1.1,4.9,1.5c2.7,0.8,4.2,1.3,4.2,1.3
	s-1.5-0.2-4.3-0.6c-1.4-0.2-3.1-0.5-5-0.8c-2-0.3-4.2-0.8-6.6-1.3c-9.8-2-23.3-5.4-37.6-11.3c-8.6-3.6-16.9-7.6-25-12.4
	c-2-1.1-4-2.4-5.9-3.7c-2-1.2-3.9-2.6-5.8-4c-0.5-0.3-1-0.7-1.4-1l-1.4-1.1l-2.8-2.2c-0.9-0.7-1.8-1.6-2.7-2.3
	c-0.9-0.8-1.8-1.5-2.6-2.4l-2.5-2.5c-0.8-0.9-1.6-1.8-2.4-2.7c-0.4-0.5-0.8-0.9-1.2-1.4l-1.1-1.4c-0.7-0.9-1.4-1.8-2.1-2.8
	c-2.7-3.8-5.3-7.6-7.8-11.5c-5-7.8-9.7-15.7-14.3-23.7c-1.8-3.1-3.5-6.1-5-9.1c-0.8-1.5-1.6-2.9-2.3-4.4c-1-1.9-1.9-3.7-2.9-5.5
	c0.9-0.7,1.7-1.5,2.6-2.2c0.5-0.4,1-0.8,1.5-1.2c1-0.8,1.9-1.5,2.8-2.3c1.9-1.5,3.6-2.9,5.3-4.2c3.4-2.6,6.4-4.8,9-6.6
	c2.6-1.8,4.6-3.2,6.1-4c0.7-0.5,1.3-0.8,1.7-1c0.4-0.2,0.6-0.3,0.6-0.3s-0.2,0.1-0.5,0.4c-0.3,0.3-0.9,0.7-1.5,1.2
	c-1.3,1.1-3.1,2.7-5.4,4.8c-2.3,2.1-5,4.7-8.1,7.5c-1.6,1.5-3.2,3-4.9,4.6c-0.9,0.8-1.8,1.6-2.7,2.5c-0.5,0.4-0.9,0.8-1.4,1.3
	c-0.2,0.1-0.1,0.1-0.2,0.2l0,0.1l-0.1,0.1c0,0,0.1,0.1,0.1,0.2c0.1,0.1,0,0,0.3,0.5c0.4,0.7,0.8,1.4,1.2,2.1
	c0.8,1.4,1.6,2.8,2.5,4.3c1.7,2.9,3.4,5.9,5.2,9c4.6,7.9,9.3,15.8,14.2,23.5c2.5,3.8,5,7.6,7.7,11.3c0.7,0.9,1.4,1.8,2,2.7l1,1.3
	c0.3,0.4,0.7,0.8,1.1,1.3c0.7,0.8,1.4,1.7,2.2,2.5l2.4,2.4c0.8,0.8,1.6,1.5,2.5,2.3c0.8,0.7,1.7,1.5,2.5,2.2l2.6,2.1l1.3,1
	c0.4,0.3,0.9,0.7,1.4,1c1.8,1.3,3.7,2.7,5.6,3.8c1.9,1.2,3.8,2.5,5.8,3.6C179.3,704.9,187.5,708.8,195.9,712.4z"/>


<path class="lotus" d="M256.1,649.6c1.9,0.8,3.8,1.5,5.7,2.3c0.9,0.4,1.9,0.8,2.8,1.1c1,0.3,1.9,0.7,2.8,1c3.8,1.4,7.5,2.7,11.1,4.1
	c1.8,0.7,3.6,1.3,5.4,2c1.8,0.6,3.6,1.2,5.4,1.8c3.6,1.2,7,2.3,10.4,3.5c1.7,0.6,3.4,1.2,5,1.7c1.7,0.5,3.3,1,4.9,1.5
	c3.3,1,6.4,1.9,9.5,2.8c6.1,1.9,11.8,3.3,17.1,4.7c2.6,0.7,5.1,1.4,7.5,2c1.2,0.3,2.3,0.6,3.4,0.9c1.1,0.3,2.2,0.5,3.3,0.8
	c4.2,1,7.8,1.8,10.8,2.5c5.9,1.4,9.2,2.2,9.2,2.2s-3.3-0.5-9.3-1.5c-3-0.5-6.7-1.1-10.9-1.8c-1.1-0.2-2.2-0.4-3.3-0.6
	c-1.1-0.2-2.3-0.5-3.5-0.7c-2.4-0.5-4.9-1-7.6-1.6c-5.3-1.2-11.2-2.3-17.4-4c-3.1-0.8-6.3-1.6-9.6-2.5c-1.7-0.4-3.3-0.9-5-1.3
	c-1.7-0.4-3.4-1-5.1-1.5c-3.4-1-7-2.1-10.6-3.2c-1.8-0.6-3.6-1.1-5.5-1.7c-1.8-0.6-3.7-1.3-5.5-1.9c-3.7-1.3-7.5-2.6-11.3-4
	c-1-0.3-1.9-0.7-2.9-1c-0.9-0.4-1.9-0.8-2.9-1.1c-1.9-0.8-3.8-1.5-5.8-2.3l-6.6-2.7l-3.3-1.3l-3.3-1.5l-13.1-5.9
	c-4.3-2-8.6-4.2-12.9-6.3l-3.2-1.6l-1.6-0.8l-1.6-0.9l-6.3-3.4c-16.8-9.2-33-19.4-48.2-31.2l-5.6-4.5l-2.8-2.3
	c-0.9-0.8-1.9-1.5-2.7-2.3l-5.3-4.8c-1.8-1.6-3.6-3.2-5.2-5c-3.3-3.5-6.8-6.8-9.9-10.5c-1.6-1.8-3.2-3.7-4.7-5.5l-4.5-5.5
	c-6-7.4-12.1-14.7-18.2-21.9l-9.3-10.8l-4.7-5.4l-6.3-7.1c0.7-0.6,1.5-1.2,2.2-1.8l1.1-0.9c0.2-0.2,0.4-0.3,0.6-0.4l0.3-0.2
	c0.9-0.6,1.7-1.1,2.6-1.6c1.7-1,3.5-1.9,5.3-2.8c7.7-3.7,15.7-6,23.4-7.6c3.9-0.9,7.7-1.4,11.5-2c1.9-0.3,3.8-0.4,5.6-0.6
	c1.8-0.2,3.7-0.3,5.5-0.5l1.3-0.1l1.3,0c0.9,0,1.8-0.1,2.7-0.1c1.8-0.1,3.5-0.1,5.2-0.2c0.9,0,1.7,0,2.6-0.1c0.8,0,1.7,0,2.5,0.1
	c1.7,0,3.3,0.1,4.9,0.1c1.6,0,3.2,0.1,4.7,0.1c1.5,0,3.1,0.2,4.5,0.3c3,0.2,5.8,0.5,8.5,0.7c10.8,1.2,19.5,2.6,25.5,3.8
	c6,1.2,9.3,1.8,9.3,1.8s-3.3-0.4-9.4-1.1c-6-0.9-14.8-1.6-25.6-2.3c-2.7-0.1-5.5-0.2-8.5-0.3c-1.5,0-3-0.2-4.5-0.1
	c-1.5,0-3.1,0-4.7,0.1c-1.6,0-3.2,0-4.8,0.1c-0.8,0-1.6,0-2.5,0c-0.8,0.1-1.7,0.1-2.5,0.2c-1.7,0.1-3.4,0.2-5.1,0.3
	c-0.9,0.1-1.7,0.1-2.6,0.2l-1.3,0.1l-1.3,0.2c-1.8,0.2-3.6,0.4-5.4,0.6c-1.8,0.2-3.6,0.4-5.5,0.7c-3.7,0.7-7.4,1.2-11.1,2.1
	c-7.5,1.7-15.2,4-22.5,7.4c-1.7,0.8-3.4,1.6-5,2.6c-0.8,0.4-1.6,1-2.4,1.5l-0.3,0.2l7.9,9l9.3,10.8c6.2,7.3,12.3,14.6,18.3,22
	l4.5,5.6c1.5,1.8,3,3.6,4.6,5.4c2.9,3.7,6.4,6.9,9.6,10.3c1.6,1.7,3.4,3.3,5.1,4.9l5.2,4.7c0.9,0.8,1.8,1.5,2.7,2.3l2.7,2.2
	l5.5,4.5c14.9,11.6,31,21.7,47.6,30.8l6.2,3.4l1.6,0.8l1.6,0.8l3.2,1.6c4.3,2.1,8.5,4.3,12.8,6.3l13,5.8l3.2,1.4l3.3,1.3
	L256.1,649.6z"/>


<path class="lotus" d="M140.1,598.2c-8.3-8.7-16-17.3-22.7-25.3c-6.7-8-12.4-15.5-16.9-22c-4.5-6.5-7.9-11.9-10.2-15.7c-1.1-1.9-2-3.4-2.5-4.4
	c-0.6-1-0.9-1.5-0.9-1.5s0.4,0.5,1,1.4c0.7,0.9,1.6,2.4,2.9,4.1c2.6,3.6,6.4,8.7,11.3,14.8c4.9,6.1,11,13.2,18,20.9
	c6.9,7.7,14.7,16,23,24.7c2.5,2.6,5,5.1,7.6,7.6l4,3.6c1.3,1.2,2.7,2.3,4.1,3.5c5.5,4.6,11.2,9,17.1,13.1c1.5,1,2.9,2.1,4.5,3
	l4.5,3c3.1,1.9,6.1,3.8,9.2,5.6c6.2,3.7,12.6,7,19,10.3c12.9,6.5,26.1,12.3,39.6,17.4c13.5,5.1,27.2,9.6,41.1,13.5
	c23,6.5,44.2,11.1,59.7,13.8c3.9,0.7,7.4,1.3,10.5,1.8c3.1,0.5,5.8,0.9,7.9,1.2c4.4,0.6,6.8,0.9,6.8,0.9s-2.4-0.1-6.8-0.3
	c-2.2-0.1-4.9-0.3-8-0.5c-3.1-0.3-6.7-0.6-10.6-1c-15.7-1.7-37.3-5.2-60.6-11.8c-14-3.9-27.9-8.5-41.5-13.6
	c-13.6-5.1-27-11-40-17.5c-6.5-3.3-13-6.7-19.2-10.5c-3.2-1.8-6.3-3.8-9.4-5.7l-4.6-3c-1.5-1-3-2-4.5-3.1
	c-6-4.1-11.9-8.6-17.5-13.3c-1.4-1.2-2.8-2.3-4.2-3.6l-4.1-3.7C145.2,603.4,142.6,600.8,140.1,598.2z"/>


<path class="lotus" d="M216.9,488c10,17.3,21.2,32.8,32.3,46.2c11.1,13.4,22.1,24.6,31.9,33.3c4.9,4.4,9.5,8.1,13.7,11.3
	c4.2,3.1,7.9,5.7,11.1,7.6c0.8,0.5,1.5,0.9,2.2,1.4c0.7,0.4,1.4,0.8,2,1.1c1.2,0.7,2.3,1.3,3.2,1.7c1.7,0.9,2.7,1.3,2.7,1.3
	s-0.9-0.4-2.7-1.1c-0.9-0.3-2-0.9-3.3-1.5c-0.6-0.3-1.3-0.6-2.1-1c-0.7-0.4-1.5-0.8-2.3-1.2c-3.3-1.7-7.1-4.1-11.5-7
	c-4.4-3-9.2-6.6-14.3-10.8c-10.2-8.4-21.7-19.4-33.3-32.6c-11.5-13.3-23.1-28.8-33.3-46.4c-6-10.6-11.4-21.5-15.7-32.9
	c-2.1-5.7-4-11.6-5.5-17.5c-0.4-1.5-0.7-3-1-4.5c-0.2-0.8-0.3-1.5-0.5-2.3l-0.4-2.3l-0.7-4.6c-0.1-0.8-0.2-1.5-0.3-2.3l-0.2-2.3
	c-1.1-12.2-0.4-24.6,1.9-36.6c1-6,2.5-12,4.2-17.8l0.6-2.2l0.7-2.2c0.5-1.5,1-2.9,1.5-4.3c0.5-1.4,1.1-2.9,1.6-4.3l0.9-2.1l0.1-0.3
	l0.2-0.5l0.5-1l0.9-2l19.3,6.6l17.4,5.9c11.6,3.9,23.3,7.7,34.9,11.5c11.7,3.8,23.3,7.5,35,11.2l4.4,1.3l2.2,0.7
	c0.7,0.2,1.4,0.4,2.2,0.7c0.8,0.3,1.6,0.5,2.3,0.9l2.2,1c1.4,0.8,2.8,1.5,4.2,2.4c5.4,3.4,10.1,7.5,14.7,11.7
	c3.7,3.5,7.3,7.1,10.6,10.7c3.4,3.6,6.6,7.2,9.7,10.9c6.2,7.2,12,14.4,17.4,21.3c10.8,13.8,20.1,26.4,27.9,37.1
	c7.8,10.7,14,19.4,18.3,25.4c4.3,6,6.7,9.3,6.7,9.3s-2.6-3.2-7.2-8.9c-4.6-5.8-11.3-14.1-19.5-24.4c-8.2-10.3-18-22.7-29.1-36.1
	c-5.5-6.7-11.4-13.7-17.7-20.8c-3.1-3.6-6.4-7.1-9.7-10.6c-3.3-3.5-6.8-7-10.5-10.4c-4.4-4.1-9-8-14.1-11.2
	c-1.2-0.8-2.5-1.5-3.8-2.2l-2-0.9c-0.6-0.3-1.3-0.5-2-0.8c-0.6-0.2-1.4-0.5-2.1-0.7l-2.2-0.7l-4.4-1.4
	c-11.7-3.6-23.4-7.4-35.1-11.2c-11.7-3.8-23.3-7.6-35-11.5l-33-11.1l-0.9,2.2c-0.5,1.4-1.1,2.8-1.6,4.2c-0.5,1.4-1,2.8-1.4,4.2
	l-0.7,2.1l-0.6,2.1c-1.7,5.7-3.1,11.5-4.1,17.4c-2.2,11.7-2.8,23.7-1.8,35.5l0.2,2.2c0.1,0.7,0.1,1.5,0.3,2.2l0.7,4.4l0.3,2.2
	c0.1,0.7,0.3,1.4,0.5,2.2c0.3,1.4,0.6,2.9,1,4.3c1.5,5.8,3.2,11.4,5.3,17C205.6,466.9,210.9,477.6,216.9,488z"/>


<path class="lotus" d="M374.8,502.9c22.3,33.8,39,66.5,49.7,90.7c2.6,6.1,4.9,11.6,6.9,16.5c0.5,1.2,1,2.4,1.4,3.6c0.4,1.1,0.8,2.3,1.2,3.3
	c0.8,2.1,1.5,4.1,2.1,5.8c2.5,7,3.9,10.8,3.9,10.8s-1.6-3.8-4.5-10.6c-0.7-1.7-1.5-3.6-2.4-5.7c-0.4-1-0.9-2.1-1.4-3.2
	c-0.5-1.1-1-2.3-1.5-3.5c-2.2-4.7-4.8-10.1-7.6-16.1c-11.6-23.7-29.2-55.7-51.4-89.2C357.9,485,343.8,465.2,329,446
	c-7.4-9.6-15-19.1-22.8-28.3l-3-3.5l-1.4-1.6l-0.9,0.2l-1.1,0.2c-0.7,0.2-1.4,0.4-2.1,0.6c-1.4,0.4-2.8,0.9-4.2,1.4
	c-5.5,2.1-10.7,4.9-14.9,8.8c-4.3,3.8-7.5,8.7-9.3,14.1c-0.9,2.7-1.4,5.6-1.6,8.4c-0.1,1.4-0.2,2.9-0.1,4.3c0,1.5,0.2,2.9,0.3,4.4
	c0,0.7,0.2,1.5,0.3,2.2l0.4,2.2l0.7,4.4c0.3,1.5,0.4,3,0.8,4.4l1,4.4l1,4.4l0.5,2.2c0.2,0.7,0.4,1.4,0.6,2.2l2.6,8.7
	c3.8,11.4,8.3,22.7,13.8,33.4c5.3,10.9,11.7,21.1,18.3,31.3c11.2,16.6,23.5,31.3,35.3,44.1c3,3.1,5.9,6.3,8.7,9.2
	c3,2.9,5.8,5.7,8.6,8.4c1.4,1.3,2.7,2.7,4.1,4c1.4,1.2,2.8,2.5,4.1,3.7c2.7,2.4,5.2,4.7,7.7,6.9c10,8.5,18.3,15.4,24.2,19.7
	c5.9,4.5,9.1,7,9.1,7s-3.4-2.3-9.5-6.4c-6.2-4.1-14.8-10.4-25.2-18.6c-2.6-2.1-5.2-4.3-8-6.6c-1.4-1.2-2.8-2.3-4.3-3.5
	c-1.4-1.2-2.8-2.6-4.3-3.9c-2.9-2.6-5.9-5.4-8.9-8.2c-3-2.9-6-6-9.1-9.1c-12.2-12.6-24.9-27.3-36.2-44.2
	c-6.7-10.3-13.2-20.7-18.6-31.7c-5.6-10.9-10.2-22.4-14.1-34l-2.6-8.8c-0.2-0.7-0.5-1.5-0.6-2.2l-0.5-2.2l-1-4.5l-1-4.5
	c-0.3-1.5-0.5-3-0.8-4.5l-0.8-4.6l-0.4-2.3c-0.1-0.8-0.3-1.5-0.3-2.3c-0.2-1.6-0.3-3.1-0.3-4.7c-0.1-1.6,0-3.2,0.1-4.8
	c0.3-3.2,0.8-6.4,1.8-9.5c2-6.2,5.8-11.7,10.6-16c4.8-4.3,10.4-7.4,16.3-9.6c1.5-0.5,3-1.1,4.5-1.5c0.8-0.2,1.5-0.4,2.3-0.6
	l1.2-0.3l1.3-0.3c0.7-0.1,1.5-0.3,2.2-0.4l1.3,1.5l0.6,0.7l0.4,0.4l0.7,0.9l3,3.5c7.9,9.3,15.6,18.8,23,28.5
	C347.3,462.6,361.5,482.5,374.8,502.9z"/>


<path class="lotus" d="M600.1,658.7c9,2.2,17.7,4.7,25.8,8.3c4.1,1.8,7.9,3.9,11.4,6.7c1.7,1.4,3.3,3.1,4.5,5.1c0.6,1,1.1,2.1,1.4,3.3
	c0.1,0.6,0.3,1.2,0.3,1.8c0.1,0.6,0,1.3,0,1.9c-0.3,2.5-1.6,4.5-2.8,6.1c-1.3,1.7-2.7,3.1-4.1,4.4c-2.9,2.6-5.8,4.9-8.7,7
	c-5.8,4.1-11.4,7.7-16.5,10.8c-10.3,6.3-18.8,11.1-24.6,14.4c-5.9,3.3-9.1,5.1-9.1,5.1s3.1-2,8.8-5.7c5.6-3.7,13.8-8.9,23.8-15.7
	c5-3.4,10.4-7.1,15.9-11.4c2.8-2.1,5.6-4.4,8.2-7c1.3-1.3,2.6-2.6,3.6-4.1c1-1.4,1.8-3,2-4.5c0-0.4,0-0.7,0-1.1
	c0-0.4-0.2-0.8-0.3-1.2c-0.2-0.8-0.6-1.5-1.1-2.3c-0.9-1.5-2.3-2.8-3.7-4c-3.1-2.4-6.7-4.3-10.6-6c-7.8-3.3-16.3-5.7-25.2-7.9
	c-10.7-2.6-21.6-4.5-32.5-6.2c-10.9-1.7-21.9-3.1-32.9-4.3c-22-2.4-44-4.1-66.1-5.2l-8.3-0.4l-1.7-0.1c0.3-0.1-0.7,0.3-1.2,0.6
	l-3.7,1.8c-4.9,2.4-9.8,5-14.6,7.7c-9.5,5.5-18.8,11.5-27.1,18.4c-4.2,3.5-8.1,7.3-11.5,11.4c-3.4,4.1-6.2,8.7-7.8,13.6l-0.5,1.9
	l-0.2,0.9c-0.1,0.3-0.1,0.6-0.1,0.9l-0.2,1.9l0,1.9l0,0.9l0.1,0.8c0,0.3,0.1,0.6,0.2,0.8c0.1,0.3,0.1,0.6,0.2,0.8
	c0.4,1.1,0.9,2.2,1.6,3.2c1.4,2,3.3,3.8,5.3,5.4c2.1,1.6,4.4,3,6.7,4.3c7.9,4.2,16.3,7.1,24.5,9.5c8.2,2.4,16.3,4.4,24,6.1
	c15.5,3.4,29.6,5.7,41.5,7.5c11.9,1.8,21.5,3,28.2,3.7c3.3,0.4,5.9,0.6,7.7,0.8c1.8,0.2,2.7,0.2,2.7,0.2s-0.9,0-2.7,0
	c-1.8,0-4.4-0.1-7.7-0.3c-6.7-0.3-16.5-1-28.4-2.2c-12-1.2-26.2-3-41.9-6c-7.8-1.5-16.1-3.3-24.5-5.7c-8.4-2.4-17-5.3-25.4-9.7
	c-2.5-1.4-5-2.9-7.3-4.6c-2.3-1.8-4.5-3.8-6.3-6.4c-0.9-1.3-1.6-2.7-2.2-4.2c-0.1-0.4-0.2-0.8-0.3-1.2c-0.1-0.4-0.2-0.8-0.3-1.2
	l-0.2-1.2l0-1.1l0-2.3l0.3-2.2c0-0.4,0.1-0.8,0.1-1.1l0.3-1.1l0.5-2.2c1.8-5.7,5-10.7,8.6-15.1c3.6-4.4,7.8-8.3,12.1-12
	c8.6-7.2,18.1-13.4,27.8-18.9c4.9-2.8,9.8-5.4,14.8-7.8l3.8-1.8l1-0.4l0.6-0.3c0.3-0.1,0.6-0.3,1-0.3l2.4,0.1l8.3,0.4
	c22.2,1.2,44.3,2.8,66.4,5.2c11,1.2,22.1,2.6,33.1,4.3C578.3,654.1,589.3,656.1,600.1,658.7z"/>


<path class="lotus" d="M841.1,728.2c-7.9,1.9-15.2,2.8-20.5,3.2c-2.6,0.2-4.8,0.3-6.3,0.3c-1.5,0-2.3,0-2.3,0s0.8-0.3,2.2-0.7
	c1.4-0.5,3.5-1,6-1.8c5.1-1.5,12.1-3.4,19.8-5.3c18.8-4.5,37.1-10.7,54.7-18.6c7.3-3.3,14-6.1,18.9-8.1c2.5-1,4.4-1.8,5.8-2.4
	c1.4-0.5,2.2-0.8,2.2-0.8s-0.7,0.5-1.8,1.4c-1.2,0.9-2.9,2.2-5.1,3.7c-4.4,3-10.7,6.8-18.1,10.1
	C878.7,717.4,860.1,723.6,841.1,728.2z"/>


<path class="lotus" d="M438.4,879.3c5.1-5.1,9.9-9.5,13.5-12.7c1.8-1.6,3.2-2.9,4.3-3.7c1-0.9,1.6-1.3,1.6-1.3s-0.4,0.6-1.1,1.8
	c-0.7,1.1-1.8,2.8-3.2,4.7c-2.8,3.9-6.9,9.1-12,14.3c-12.5,12.4-25.9,24-40.8,33.6c-6.2,4-12.3,6.7-16.8,8.3
	c-1.1,0.4-2.2,0.8-3.1,1c-0.9,0.3-1.7,0.5-2.4,0.7c-1.3,0.4-2,0.5-2,0.5s0.6-0.4,1.7-1.2c0.6-0.4,1.2-0.8,2-1.3
	c0.8-0.5,1.7-1.1,2.7-1.7c4-2.6,9.4-6.2,15.4-10.1C412.9,902.9,426.1,891.5,438.4,879.3z"/>


<path class="lotus" d="M288.3,304c-6.2,16.2-10.9,31.2-13.2,42.4c-1.2,5.6-2,10.1-2.4,13.3c-0.2,1.6-0.4,2.8-0.5,3.7c-0.1,0.8-0.2,1.3-0.2,1.3
	s0-0.4,0-1.3c0-0.8-0.1-2.1,0-3.7c0-3.2,0.2-7.9,0.9-13.6c1.3-11.5,5-27.1,11.3-43.5c0.9-2.5,1.9-5,2.9-7.4c1-2.5,2-5,3.2-7.4
	c2.2-4.9,4.7-9.6,7.4-14.3c2.7-4.6,5.5-9.2,8.4-13.6c1.5-2.2,3-4.4,4.6-6.6c0.8-1.1,1.6-2.2,2.4-3.2l1.2-1.6l1.6-2
	c0.1-0.1,0.2-0.3,0.3-0.3l0.4-0.2c0.2-0.1,0.5-0.2,0.8-0.3c0.3,0,0.6,0,1,0l0.8,0.1l2,0.2l3.9,0.6c2.6,0.4,5.2,0.8,7.8,1.3
	c5.2,0.9,10.4,1.9,15.5,3c10.3,2.2,20.6,4.7,30.7,7.6c16.9,4.8,31.7,10.8,41.9,16.1c5.1,2.6,9.1,5,11.9,6.7
	c2.7,1.7,4.2,2.7,4.2,2.7s-1.6-0.8-4.5-2.1c-2.9-1.3-7.1-3.2-12.4-5.3c-10.6-4.2-25.5-9.2-42.2-13.9c-10-2.9-20.2-5.3-30.4-7.5
	c-5.1-1.1-10.2-2.1-15.4-3c-2.6-0.5-5.1-0.9-7.7-1.3l-3.9-0.6l-2-0.3l-2,2.7c-0.8,1.1-1.6,2.1-2.3,3.2c-1.5,2.1-3,4.3-4.5,6.5
	c-2.9,4.4-5.7,8.8-8.3,13.4c-2.6,4.5-5,9.2-7.2,13.9c-1.1,2.4-2.1,4.8-3.1,7.2C290.2,299.1,289.2,301.5,288.3,304z"/>


<path class="lotus" d="M709.2,489.4c1,40.1,1.2,76.5,1.1,102.8c-0.1,13.2-0.2,23.8-0.3,31.2c-0.1,7.4-0.2,11.4-0.2,11.4s-0.2-4.1-0.5-11.4
	c-0.3-7.4-0.7-18-1.2-31.1c-1-26.3-2.3-62.6-3.3-102.7c-0.6-24.2-1.3-48.4-2.1-72.6l-0.3-9.1l-0.1-2.3l-0.1-1.8l0-0.6l0.4-0.4
	l0.8-0.8l0.9-0.9l0.8-0.8c0.5-0.5,1.1-1.1,1.7-1.6c4.5-4.3,9.3-8.2,14.5-11.6c2.6-1.7,5.4-3.2,8.3-4.5c2.9-1.2,6-2.2,9.3-2.7
	c3.2-0.5,6.7-0.3,9.9,0.7c3.3,1,6.2,2.9,8.6,5.2c0.6,0.6,1.2,1.2,1.7,1.8l1.5,1.9c1,1.3,1.7,2.6,2.6,3.9l2.4,4l2.2,4.1
	c2.8,5.5,5.3,11.1,7.5,16.8c4.3,11.5,7.7,23.3,9.8,35.3c4.4,24.1,4.6,49,0.2,73.1c-0.2,1.2-0.4,2.5-0.7,3.7
	c-0.3,1.2-0.6,2.5-0.8,3.7c-0.3,1.2-0.6,2.4-0.8,3.7c-0.3,1.2-0.5,2.4-0.9,3.6c-0.7,2.4-1.3,4.7-2,7.1l-0.5,1.7l-0.6,1.7
	c-0.4,1.1-0.8,2.3-1.2,3.4c-1.4,4.6-3.3,8.9-5,13.1l-0.6,1.6l-0.7,1.6c-0.5,1-1,2.1-1.4,3.1c-1,2-1.9,4.1-2.8,6
	c-8,15.6-16.9,28.7-25.2,39c-1,1.3-2.1,2.5-3.1,3.7c-1,1.2-2,2.4-3,3.5c-1,1.1-1.9,2.2-2.8,3.3c-0.9,1.1-1.9,2-2.8,3
	c-1.8,1.9-3.5,3.7-5,5.3c-0.8,0.8-1.5,1.6-2.2,2.3c-0.7,0.7-1.4,1.4-2.1,2c-5.4,5.1-8.3,7.8-8.3,7.8s2.8-3,7.8-8.3
	c0.6-0.7,1.3-1.4,2-2.1c0.7-0.8,1.4-1.6,2.1-2.4c1.5-1.7,3-3.5,4.7-5.5c0.8-1,1.8-2,2.6-3.1c0.9-1.1,1.7-2.2,2.6-3.4
	c0.9-1.2,1.8-2.4,2.8-3.6c0.9-1.2,2-2.5,2.9-3.8c7.8-10.5,16.2-23.7,23.7-39.3c0.9-2,1.8-4,2.7-6c0.4-1,0.9-2,1.3-3l0.7-1.5
	l0.6-1.6c1.6-4.2,3.4-8.5,4.7-13c0.4-1.1,0.7-2.2,1.1-3.4l0.6-1.7l0.5-1.7c0.6-2.3,1.3-4.6,1.9-6.9c0.3-1.2,0.6-2.3,0.8-3.5
	c0.3-1.2,0.5-2.4,0.8-3.6c0.3-1.2,0.5-2.4,0.8-3.6c0.2-1.2,0.4-2.4,0.6-3.7c4.3-23.6,4.1-47.9-0.2-71.5
	c-2.1-11.8-5.4-23.4-9.6-34.6c-2.2-5.6-4.5-11.1-7.3-16.4l-2.1-3.9l-2.3-3.8c-0.8-1.2-1.6-2.5-2.4-3.6l-1.3-1.7
	c-0.5-0.5-1-1-1.4-1.5c-2-1.9-4.3-3.4-6.8-4.1c-2.5-0.8-5.3-0.9-8-0.5c-5.5,0.8-10.9,3.4-15.8,6.5c-4.9,3.2-9.6,7-13.8,11
	c-0.5,0.5-1.1,1-1.6,1.6l-1.5,1.5l0,0l0,0.5l0.1,2.3l0.3,9.1C707.9,441,708.6,465.2,709.2,489.4z"/>

</svg>
