<svg id="Rose" xmlns="http://www.w3.org/2000/svg" width="938.54" height="775.65" viewBox="0 0 938.54 775.65"><defs><style>.cls-1{opacity:0.85;}.cls-2{fill:#fffacb;}</style></defs><g class="cls-1"><path class="cls-2" d="M472.38,1023.58c16.51-2,33.15-3.74,49.82-5.15,4.17-.35,8.35-.66,12.52-.9,2.09-.12,4.18-.22,6.26-.26,1,0,2.08,0,3.09,0a7.77,7.77,0,0,1,1.4.17l.07,0h0s0,0,0-.08a.31.31,0,0,1,.06-.13.58.58,0,0,1,.1-.12l.06,0,0,0c.15-.11.18,0,.09-.11s-.09-.11-.18-.24l-.08-.16h0a3.93,3.93,0,0,1-.59.09,51.52,51.52,0,0,1-6.17-.23c-2.08-.16-4.17-.36-6.25-.57-4.16-.42-8.33-.89-12.49-1.37,4.19.49,8.36,1,12.53,1.4,2.09.22,4.17.42,6.26.59a49.91,49.91,0,0,0,6.19.23c.22,0,.51-.09.56-.06.14.27.24.36.28.37h0a.19.19,0,0,0-.1,0l0,0,.08,0,0,0-.11.1c-.06.06-.12.23-.1.21h0a.66.66,0,0,0-.11,0,8.55,8.55,0,0,0-1.44-.16c-1-.06-2.07-.05-3.12,0-2.09,0-4.19.13-6.3.24-4.22.23-8.46.53-12.72.87-10.91.88-19.21,1.74-26.81,2.56S480.51,1022.5,472.38,1023.58Z" transform="translate(-83.47 -297.87)"/><path class="cls-2" d="M504.07,1009.28l17.77-1.14,15.2-1.07Z" transform="translate(-83.47 -297.87)"/><path class="cls-2" d="M515.86,1001.24c15.42.66,30.52,1.28,45.34,1.73,7.4.21,14.74.4,22,.44,3.62,0,7.24,0,10.8-.21a13.33,13.33,0,0,0,2.51-.35l.09,0h0s0,0,0,.08l.11.12c.07.13.21.13.14.13s-.09,0-.14.07l-.07.08c-.26.26.33-.32.22-.21l-.11.11a.88.88,0,0,0-.16.28c0,.07,0,0,0,0h-.1l-.29,0c-.42,0-.87,0-1.31,0-1.77,0-3.56.11-5.34.19,1.57-.07,3.16-.14,4.76-.17.77,0,1.65,0,2.3,0h0l0,0s0,0,0,0l.06-.13a1.19,1.19,0,0,1,.16-.23c-.09.09.35-.35-.17.18l0,0a.44.44,0,0,1,.15-.12c.07,0,.11,0,0-.06s0-.05-.13-.14-.15-.2-.12-.17a1.5,1.5,0,0,1-.39.12,9.44,9.44,0,0,1-1.14.17c-3.2.29-6.57.28-10,.3-6.82,0-13.92-.19-21.31-.39C549,1002.56,533.08,1001.94,515.86,1001.24Z" transform="translate(-83.47 -297.87)"/><path class="cls-2" d="M539.48,1006.71c10.72-.66,16-.94-1.71.31l-.73.05c17.38-1.17,34.61-2.46,52.59-3.4C570.81,1004.62,554,1005.82,539.48,1006.71Z" transform="translate(-83.47 -297.87)"/><path class="cls-2" d="M539.48,1006.71l-32.44,2Z" transform="translate(-83.47 -297.87)"/><path class="cls-2" d="M583.37,1002.16c4.41-.26,7.46-.39,10.12-.43h2c.33,0,.64,0,1,0a5.3,5.3,0,0,1,.6.07l.2,0,.27.12a1.12,1.12,0,0,1,.44.37,1.82,1.82,0,0,1,.15.27,1.31,1.31,0,0,1-.2,1.3,1,1,0,0,1-.19.19l-.16.11a2.12,2.12,0,0,1-.24.13,1.88,1.88,0,0,1-.36.12,3.52,3.52,0,0,1-.57.13c-.35.06-.68.1-1,.13-.67.06-1.34.1-2,.13-5.6.16-13.27,0-30.72-.4-40.89-1.18-78.81-3.21-116-4.41l-3.48-.06h-1.71l-.81,0-.15,0h0a3.26,3.26,0,0,0-.11-.52,2.06,2.06,0,0,1-.12-.42c-.34-.29.26.14.2.08s0,0-.06,0-.14,0-.08,0,0,0,.08,0a.61.61,0,0,0,.2-.19c.45-.63.25-.42.39-.42a2.57,2.57,0,0,0,.29.09c.23.06.49.11.75.15.54.08,1.09.14,1.66.19,1.12.09,2.27.15,3.42.19,4.6.16,9.24.13,13.86.07,9.27-.13,18.53-.43,27.82-.77,18.59-.68,37.31-1.56,56.43-2.47,17.41-.88,39.85-1.92,62.29-2.92l33-1.42,15.34-.57,7.18-.18,3.45,0a28,28,0,0,1,3.48.16l.19,0a1.58,1.58,0,0,1,.26.09,1.44,1.44,0,0,1,.53.4,1.26,1.26,0,0,1,.23.43,1,1,0,0,1,0,.75,1.23,1.23,0,0,1-.57.62,3.88,3.88,0,0,1-1.23.38,19,19,0,0,1-2.08.24c-1.37.1-2.75.14-4.16.17-2.82,0-5.74,0-8.75,0-6-.1-12.42-.31-19.09-.56-13.34-.52-27.75-1.24-42.35-2-29.21-1.57-59.16-3.39-82.71-4.82-47.08-2.87-68.54-4.11-7-.13,46.29,2.95,88.56,5.66,128.6,7.43,10,.4,19.87.8,29.68.78a68.58,68.58,0,0,0,7.49-.36c.34,0,.68-.11,1.09-.21a3.65,3.65,0,0,0,.77-.3,2,2,0,0,0,.74-.66,1.88,1.88,0,0,0,.31-1,1.81,1.81,0,0,0-.27-.9,2.75,2.75,0,0,0-.33-.41c-.1-.08-.15-.13-.28-.22a2.17,2.17,0,0,0-.53-.26l-.23-.06-.36-.07-.29,0c-.36,0-.68,0-1-.07-1.27-.05-2.48-.05-3.7,0-4.86.05-9.65.23-14.43.41-19.08.76-37.76,1.74-56.3,2.66C557,995.08,520.51,997,482.9,998.36c-9.4.3-18.88.58-28.42.59-2.39,0-4.78,0-7.16-.11-1.19-.05-2.37-.1-3.54-.2-.58,0-1.16-.11-1.71-.19l-.77-.14-.3-.08-.09,0s.07-.1-.05.12a2.2,2.2,0,0,1-.27.43c-.12.14-.1.18-.19.26s-.21.13-.18.13-.08,0,0,0a.2.2,0,0,1,.15.07c-.55-.42,0,.1-.06.44s.12.87.13.71l.13,0,.82,0h1.78l3.62.07,7.31.24c19.58.73,39.66,1.68,60.46,2.54,16.9.69,33.72,1.36,50.51,1.81,8.4.2,16.77.42,25.19.26q1.57,0,3.18-.12a22.29,22.29,0,0,0,3.34-.39,1.8,1.8,0,0,0,.27-.07l.31-.12.19-.09a1.81,1.81,0,0,0,.29-.19,1.63,1.63,0,0,0,.38-.49,1.3,1.3,0,0,0,.12-.91,1.2,1.2,0,0,0-.28-.6,1.18,1.18,0,0,0-.41-.36,2,2,0,0,0-.51-.2l-.16,0c-.19,0-.38,0-.51,0-.6,0-1.12,0-1.66,0-1.06,0-2.12,0-3.17.09-4.19.18-8.36.43-12.53.68-33.33,2.08-66.51,4.77-99.81,6.49q-3.12.15-6.23.24c-2.06,0-4.2.13-6.12,0l-.31,0-.13,0,.07,0a2,2,0,0,1-.25.55c-.23.31.57-.76.1-.13l-.29.28c-.19.13-.18,0,0,.17a1.43,1.43,0,0,1,.17.35,4,4,0,0,1,.14.4h.08a9.59,9.59,0,0,1,1.37,0c1,0,2,.08,3.07.15,2.07.14,4.14.34,6.21.54,8.3.84,16.61,1.84,24.94,2.83s16.66,2,25,2.9c4.19.44,8.38.88,12.61,1.18,1.06.08,2.12.14,3.2.17.54,0,1.08,0,1.64,0l.87-.06a3.94,3.94,0,0,0,.51-.09,2.08,2.08,0,0,0,.35-.12,1.38,1.38,0,0,0,.28-.17,1.08,1.08,0,0,0,.12-1.63,2.25,2.25,0,0,0-.3-.24,1.43,1.43,0,0,0-.19-.09,2.81,2.81,0,0,0-.57-.17c-.33-.06-.61-.09-.89-.12-.57-.05-1.11-.06-1.65-.07-1.08,0-2.15,0-3.21,0-8.5.31-16.93,1.08-25.4,1.83s-16.93,1.65-25.43,2.58q-6.37.7-12.75,1.48l-6.39.81-3.21.47a23.54,23.54,0,0,0-3.25.69c-.27.08-.54.16-.83.27s-.3.13-.45.2l-.27.16a1,1,0,0,0-.17.13,1.18,1.18,0,0,0-.19.22,1.09,1.09,0,0,0-.18.41,1.25,1.25,0,0,0,.07.59,2,2,0,0,0,.24.33,1.25,1.25,0,0,0,.19.15,1.64,1.64,0,0,0,.3.17,2.24,2.24,0,0,0,.26.1,9,9,0,0,0,.88.24c1.11.23,2.19.36,3.27.49,2.16.25,4.31.44,6.46.63l12.92,1.08c38.66,3.19,74.58,7.77,110.55,13.88-11.75-1.93-23.56-3.87-35.54-5.57s-24.13-3.24-36.49-4.63-25-2.63-37.82-3.74c-6.44-.57-12.94-1.05-19.53-1.75-.82-.1-1.65-.2-2.48-.33-.42-.06-.84-.14-1.26-.23a5.13,5.13,0,0,1-.65-.16,2.91,2.91,0,0,1-.76-.33.88.88,0,0,1-.28-.26,1,1,0,0,1-.13-.26,1,1,0,0,1,0-.39.94.94,0,0,1,.24-.44,1.21,1.21,0,0,1,.23-.19,3.18,3.18,0,0,1,.7-.34c.43-.16.84-.27,1.25-.38a22.05,22.05,0,0,1,2.52-.51c3.32-.51,6.65-.91,10-1.31q13.27-1.57,27.28-2.95c9.34-.92,18.94-1.83,28.84-2.49,2.48-.16,5-.31,7.5-.39,1.26,0,2.53-.06,3.82,0l1,.07a4.64,4.64,0,0,1,1.12.23l.18.07a1.61,1.61,0,0,1,.28.24.75.75,0,0,1,.21.42.82.82,0,0,1-.19.68,1.17,1.17,0,0,1-.5.3,2.77,2.77,0,0,1-.33.09,10.29,10.29,0,0,1-1,.1c-2.63,0-5.17-.18-7.76-.38s-5.17-.48-7.78-.75c-10.42-1.08-21.11-2.38-32.11-3.65-5.51-.64-11.09-1.29-16.75-1.88-2.83-.29-5.68-.57-8.54-.79-1.43-.1-2.88-.2-4.27-.2a8.8,8.8,0,0,0-1,.06l-.11,0a2.31,2.31,0,0,0-.26-.6.28.28,0,0,0-.11-.13s-.06,0,0,0,0,0,.13-.06.07-.08.18-.17a1.78,1.78,0,0,0,.22-.26c-.8,1-.05.1-.18.23a1.39,1.39,0,0,0,.18-.37l0,0h0a16.8,16.8,0,0,0,2,.12c5.79,0,11.76-.37,17.77-.69l18.31-1.14C529.37,1005.85,555.55,1003.84,583.37,1002.16Z" transform="translate(-83.47 -297.87)"/><path class="cls-2" d="M600.51,1070.86c-8.66.53-21.74,1.14-32.65,1.56l-13.94.43c-3.55.11-5.74.15-5.74.15-8.95.1-18,.24-27,.21s-18.15-.07-27.28-.15-18.32-.32-27.53-.47l-.85,0h-.34c0-.16-.08.46-.09.42.06.17.12.54.1.38h.34l1.72-.07,3.45-.08,6.93-.16,13.89-.3c18.55-.43,37.21-.94,55.92-1.71,9.36-.39,18.73-.84,28.1-1.47,4.69-.32,9.38-.68,14.06-1.17l3.51-.4,1.84-.24,1.92-.3a30.59,30.59,0,0,0,3.64-.79,13.31,13.31,0,0,0,1.61-.58,4.06,4.06,0,0,0,.74-.4c.22-.16.49-.38.46-.7a1.55,1.55,0,0,0-.74-.92,7.5,7.5,0,0,0-1-.58,20.38,20.38,0,0,0-2.32-.92c-1.64-.54-3.46-1-5.16-1.39-3.22-.73-6.46-1.35-9.71-1.94,3.24.61,6.48,1.26,9.69,2,1.67.4,3.41.85,5,1.37.8.27,1.57.55,2.3.88a9,9,0,0,1,1.06.57c.31.23.69.48.76.9s-.34.6-.61.77a7.86,7.86,0,0,1-.94.41,16.23,16.23,0,0,1-2,.56c-1.37.32-2.8.54-4.21.74-2.83.38-5.51.64-8.28.89-11.66,1-20.77,1.47-27.2,1.82l-11.2.57c-1,.06.75,0,5.35-.15s12.06-.47,22.44-1.14c-23.79,1.47-47.27,2.07-70.54,2.66l-34.77.74-4.33.11-1.08,0-.54,0h-.13s-.07,0,0-.12h.06l.26,0,2.16,0,8.64.16c5.76.09,11.51.25,17.25.28,23,.29,45.86.1,68.76-.55,11.45-.33,22.89-.82,34.36-1.4s22.93-1.35,34.44-2.15C625.26,1069.52,626.44,1069.41,600.51,1070.86Z" transform="translate(-83.47 -297.87)"/><path class="cls-2" d="M685.05,1066.92c-18.11-.26-36.27,1.2-54,2.38l1.93-.09c9.08-.63,18.14-1.27,27.16-1.73s18-.69,26.88-.54Z" transform="translate(-83.47 -297.87)"/><path class="cls-2" d="M606.51,991c-32.28-1.72-64.28-3.76-95.29-5.75l-45.68-3-22.11-1.4-10.85-.64-5.37-.28-2.67-.11a15.25,15.25,0,0,0-2.7,0,5.09,5.09,0,0,0-1,.36.67.67,0,0,0-.24.19.28.28,0,0,0-.07.22.32.32,0,0,0,.11.19,1.38,1.38,0,0,0,.51.22,12.45,12.45,0,0,0,2,.29c1.32.12,2.64.17,4,.21,2.63.08,5.26.1,7.89.11,5.25,0,10.5-.08,15.73-.17,10.46-.2,20.87-.49,31.24-.81,20.75-.65,41.31-1.42,61.73-2.2l60.83-2.41,30.1-1.16c10-.35,20-.75,29.93-.9,1.25,0,2.49,0,3.72,0l.45,0,.11,0c.06,0,0,.11.11-.09,0,0,0,0-.08-.07l-.06,0a4.79,4.79,0,0,1-.88.12c-.62,0-1.24.07-1.86.09-2.48.06-5,0-7.44,0-5-.07-9.91-.19-14.86-.33q-14.84-.42-29.6-1l-58.78-2.27c-39-1.55-77.72-3.16-116.27-4.46l-22.88-.55-12.3-.24c-4.44-.07-9.3-.16-14.82-.07-1,0-2.09,0-3.13.11a12.14,12.14,0,0,0-1.57.17,1.43,1.43,0,0,0-.39.11.27.27,0,0,0-.19.18.22.22,0,0,0,.17.22,3.75,3.75,0,0,0,.8.11c2.09.11,4.18.09,6.27.1,4.19,0,8.37-.09,12.56-.17q12.55-.24,25.08-.6c31.22-.93,62.37-2,93.29-3.07l32.87-1.18.9,0c17.5-.66,12.3-.56,1.48-.25l-32.65,1,32.65-1,50.23-1.58c14.21-.47,28.75-1,43.58-1.32,3.71-.08,7.43-.18,11.17-.15.47,0,.94,0,1.4,0a1.82,1.82,0,0,1,.31,0s0,0,0,0,.07,0,0,0,0,0,0-.07h0l-.07,0-.16.05c-.22.06-.45.11-.67.15-.92.15-1.86.21-2.79.27-1.88.1-3.76.13-5.65.13-7.55,0-15.16-.27-22.84-.57,8.54.31,16.79.6,24.74.51,2,0,4-.08,5.89-.3a7.88,7.88,0,0,0,1.4-.27l.08,0h0s0-.05.05.07,0,.05,0,.05,0,0,0,0,0,.07,0,.08h-.07c-.1,0-.23,0-.34,0l-.72,0c-1,0-1.93,0-2.89,0-3.84,0-7.6.12-11.3.21-14.79.38-28.47.82-41.11,1.21l-52.61,1.86-15.16.57c35.6-1.21,71.1-2.5,106.55-3.46,4.43-.11,8.87-.22,13.29-.26,1.11,0,2.22,0,3.32,0l.81,0,.17,0h0s.11-.25.09-.24,0,0-.08-.16,0-.07-.06-.09a1.89,1.89,0,0,1-.36.11,11.86,11.86,0,0,1-1.6.24c-2.19.21-4.4.24-6.61.26-8.86,0-17.71-.33-26.57-.69-17.7-.77-35.39-1.79-53.08-2.86L531.14,952l-74.37-4.93-4.31-.26c-.72,0-1.42-.07-2.14-.09H450l-.12,0c-.25.53.11.38.06.44s.1,0,.16,0l.56,0c.38,0,.71,0,1.07,0,2.83,0,5.6-.07,8.33-.12l15.74-.39,27.13-.69,38.06-1.17-7.34.18,14.28-.4c26.73-.8,53.51-1.61,80.35-2.2,6.7-.14,13.42-.27,20.13-.34,3.36,0,6.72,0,10.07,0,1.66,0,3.4,0,5,.22a2.76,2.76,0,0,1,.54.09h0s0,0,0,0l.13-.18c0-.07.12-.13.14-.12l0,0a.17.17,0,0,1-.08-.09.81.81,0,0,1-.1-.18c0-.07,0,0,0,0h0l-.11,0a10.57,10.57,0,0,1-1.19.13c-.83.06-1.66.09-2.5.11-6.7.11-13.43-.09-20.16-.3s-13.45-.52-20.19-.86c-17.38-.84-35-2-52.79-3.41l-13.35-1.13c-4.45-.42-8.92-.75-13.35-1.37a226.69,226.69,0,0,1-26.35-5.4s-5.86-1.55-13.06-3.81-15.73-5.23-21.28-7.35c-6.86-2.5-15.15-5.68-24.29-10-2.28-1.08-4.61-2.24-6.95-3.51a44.2,44.2,0,0,1-6.71-4.3,6.74,6.74,0,0,1-1.34-1.43,1.5,1.5,0,0,1-.28-.93c0-.35.36-.56.63-.72a5.43,5.43,0,0,1,1.95-.4c.68,0,1.35,0,2-.06l8.94-.08h-8.09l-2.55,0a6.66,6.66,0,0,0-2.5.44,1,1,0,0,0-.61,1,2.33,2.33,0,0,0,.57,1.1,18.06,18.06,0,0,0,3.93,3.16,93.54,93.54,0,0,0,9,5c3,1.51,6.09,2.92,9.14,4.27a365,365,0,0,0,36,13.48c8.61,2.75,17.85,5.32,27.57,7.39,4.86,1,9.85,1.93,14.94,2.59s10.28,1,15.51,1.49c20.93,1.79,42.69,3.27,64,4.56-21.29-1.29-43.05-2.77-64-4.56-5.23-.47-10.41-.84-15.51-1.49S530.88,934,526,933c-9.72-2.07-19-4.64-27.57-7.39a365,365,0,0,1-36-13.48c-3.05-1.35-6.1-2.76-9.14-4.27a93.54,93.54,0,0,1-9-5,18.06,18.06,0,0,1-3.93-3.16,2.33,2.33,0,0,1-.57-1.1,1,1,0,0,1,.61-1,6.66,6.66,0,0,1,2.5-.44l2.55,0h8.09c50.87-.28,116.71-.24,169.73-.71-65.84,1-121.26.73-169.73.71l-8.94.08c-.69,0-1.36,0-2,.06a5.43,5.43,0,0,0-1.95.4c-.27.16-.59.37-.63.72a1.5,1.5,0,0,0,.28.93,6.74,6.74,0,0,0,1.34,1.43,44.2,44.2,0,0,0,6.71,4.3c2.34,1.27,4.67,2.43,6.95,3.51,9.14,4.28,17.43,7.46,24.29,10,5.55,2.12,14.07,5.12,21.28,7.35S514,929.66,514,929.66a226.69,226.69,0,0,0,26.35,5.4c4.43.62,8.9,1,13.35,1.37L567,937.56c17.76,1.43,35.41,2.57,52.79,3.41q-19.69-1-39.41-2.51-9.85-.75-19.72-1.61L550.8,936c-3.29-.32-6.58-.6-9.84-1.06a257.73,257.73,0,0,1-38.63-8.85,376,376,0,0,1-37.46-13.5,173.39,173.39,0,0,1-17.95-8.67c-1.41-.82-2.92-1.76-3.95-2.52a11.73,11.73,0,0,1-1.56-1.34,3.85,3.85,0,0,1-.62-.82.9.9,0,0,1,0-1,1.58,1.58,0,0,1,.89-.49,6.87,6.87,0,0,1,1-.17c.69-.05,1.37-.05,2.06-.06l4.87,0,40.23-.13,81.06-.3c21.84-.14,43.63-.3,65.36-.67q8.16-.14,16.3-.35c5.43-.18,10.84-.3,16.3-.77a13.15,13.15,0,0,0,2.12-.32c-.18-.11,1.18.2.49-1.39a2,2,0,0,0-.72-.28c-.38-.08-.72-.13-1.07-.17-1.39-.14-2.75-.19-4.11-.24-2.72-.09-5.43-.11-8.14-.12-5.43,0-10.84.06-16.25.15-21.65.36-43.24,1-64.79,1.62l-32.28.91-8.06.17c-1.34,0-2.69,0-4,0l-.48,0c0-.1-.59-.21-.17,1.24.17,0,.58-.09.88-.12l2-.19c5.34-.43,10.7-.74,16.06-1.1,10.73-.72,21.43-1.58,32.11-2.67s21.33-2.4,31.9-4.23c5.29-.93,10.56-2,15.75-3.4a57.51,57.51,0,0,0,7.68-2.63,18.79,18.79,0,0,0,3.64-2.05,6.45,6.45,0,0,0,1.59-1.72,3,3,0,0,0,.37-2.35,4.47,4.47,0,0,0-1.34-2,10.23,10.23,0,0,0-1.74-1.26,25.4,25.4,0,0,0-3.74-1.76,66.91,66.91,0,0,0-7.74-2.36c-5.22-1.3-10.49-2.26-15.78-3.1-10.57-1.66-21.19-2.82-31.81-3.8s-21.27-1.74-31.9-2.39c-21.27-1.28-42.54-2.08-63.79-2.64q-15.93-.4-31.86-.64l-8-.1-4,0h-1.48c-.27,1.27.15,1.95.24,1.54h2l15.91-.06,63.61-.27q31.78-.2,63.53-.59c21.17-.32,42.33-.6,63.49-1.51,2.65-.13,5.3-.27,7.94-.45,1.33-.09,2.65-.2,4-.33a25.15,25.15,0,0,0,4.09-.66,2.59,2.59,0,0,0,.65-.3c.4.35.76-1.76,0-1.75a2.26,2.26,0,0,0-.7-.27l-.55-.12c-.7-.12-1.37-.18-2-.24-1.34-.11-2.67-.17-4-.22-2.65-.1-5.3-.15-7.95-.19-10.59-.13-21.16-.08-31.74-.07-21.15,0-42.3.08-63.45-.26-10.57-.18-21.14-.44-31.7-.9s-21.12-1.08-31.61-2.26c-2.62-.29-5.23-.63-7.83-1a72.33,72.33,0,0,1-7.7-1.54c-.63-.17-1.27-.3-1.88-.5l-1.84-.63-.91-.32c-.3-.12-.59-.27-.88-.4l-1.75-.8a19.55,19.55,0,0,1-5.87-4.7,12.15,12.15,0,0,1-2.69-6.82,17.44,17.44,0,0,1,1.19-7.42,28,28,0,0,1,3.65-6.76c.71-1.09,1.59-2.05,2.39-3.07s1.72-1.95,2.69-2.83a57.84,57.84,0,0,1,12.56-9.28,65.42,65.42,0,0,1,14.49-5.9c1.26-.34,2.55-.6,3.82-.91s2.57-.45,3.86-.64,2.59-.31,3.91-.4l4-.27c5.27-.33,10.56-.55,15.85-.55s10.57.16,15.87.37,10.65.37,16,.14,10.66-.78,15.95-1.51,10.5-1.64,15.76-2.42c21-3.22,42.09-6.07,63.23-8.74l31.73-3.9,15.89-2c5.3-.68,10.6-1.34,15.9-2.23a33.78,33.78,0,0,0,4-.86,4.5,4.5,0,0,0,.55-.19,1.88,1.88,0,0,0,.78-.52c.79-1.16-.82-2-.73-1.75a3.92,3.92,0,0,0-.66-.09,18.24,18.24,0,0,0-2.12.07c-2.71.21-5.35.56-8,.89l-15.9,2.12-31.84,4.15c-21.25,2.73-42.53,5.4-63.89,7.79s-42.77,4.48-64.28,5.84c-10.76.67-21.53,1.16-32.32,1.34l-16.19,0h-2l-2-.08-4.05-.15-8.1-.29a552.83,552.83,0,0,1-128.24-21.33c-5.25-1.56-10.39-3.17-15.64-5-.34-.13-.66-.21-1-.3s-.66-.2-.82-.27c-.82.48-.26,1.85-.24,1.67a3.19,3.19,0,0,1,.43,0l1,.07c1.34.12,2.7.28,4.05.44l8.15,1c10.88,1.37,21.78,2.68,32.71,3.86q32.77,3.58,65.89,5.61c11,.7,22.09,1.25,33.18,1.57s22.21.4,33.35,0c5.57-.25,11.14-.6,16.7-1.19s11.1-1.44,16.6-2.52a303.41,303.41,0,0,0,32.46-8.58c10.68-3.41,21.26-7.13,31.66-11.48,1.3-.55,2.59-1.11,3.88-1.71a32.29,32.29,0,0,0,3.88-2,3.77,3.77,0,0,0,.55-.45c.39.56.69-2.15-.47-2.13a2.84,2.84,0,0,0-.86-.06l-.6.07c-.76.11-1.47.29-2.1.35l-1,.14-1,.07c-.69.05-1.37.11-2.07.12-5.56.2-11.18.12-16.79,0-22.47-.51-45-1.67-67.64-2.86q-36.75-2-73.31-4.38l-2.29-.16L441.8,741l-.28,0a.73.73,0,0,1,.6.54c1-.56-1.35,1.94-.95,1.61h.28l4.58-.14,9.14-.28,18.28-.55,36.5-1.05c48.6-1.35,97-2.67,145.16-3.64,12-.24,24.07-.46,36.09-.57,6,0,12-.11,18,.06.73,0,1.49.07,2.13.14l.2,0a4.86,4.86,0,0,1,.43-1.05c0,.06-.15,0-.37-.34-.32-.56-.27-.6-.31-.52a4.73,4.73,0,0,1-.88.17c-1.39.18-2.9.24-4.37.3-3,.1-6,.11-9,.11-12,0-23.95-.36-35.91-.7s-23.91-.77-35.85-1.2c-47.75-1.75-95.3-3.83-142.68-5.66l-35.52-1.27-17.75-.49c-5.93-.11-11.81-.28-17.81-.09a19.84,19.84,0,0,0-2.4.21l-.42.1c-.18-1.77-1.25,3.05-.19,2.72a2.9,2.9,0,0,0,.49.15l.33.07c.41.08.79.14,1.17.19,1.51.2,3,.35,4.47.48,3,.26,5.92.45,8.87.62q8.87.5,17.73.66,17.73.36,35.41-.25t35.29-2.1c11.75-1,23.39-2.32,35.11-4.1,5.86-1.07,11.56-2.53,17.24-4.06s11.31-3.22,16.91-5,11.18-3.61,16.72-5.57,11-4,16.44-6.43c1.36-.6,2.69-1.22,4.05-1.91l.53-.27.27-.14.35-.2c.48-.26,1-.51,1.41-.8a14.8,14.8,0,0,0,2.43-1.77,5.82,5.82,0,0,0,1.41-1.94,1.86,1.86,0,0,0,.13-1.2,2,2,0,0,0-.68-1,5.88,5.88,0,0,0-2.13-1,15.54,15.54,0,0,0-3-.44c-2.42-.16-3.5-.19-5.05-.25L610,693l-8.77-.21c-11.68-.23-23.35-.37-35-.52-23.31-.29-46.59-.53-69.83-1-11.61-.23-23.23-.46-34.78-1-2.87-.16-5.78-.31-8.56-.64-.34-.05-.68-.09-1-.15a4.82,4.82,0,0,1-.72-.17,3.51,3.51,0,0,1-.65,1.18c-.21.2-.11,0,.16.37a10.63,10.63,0,0,1,.54,1l.12,0a8.71,8.71,0,0,1,.89-.2c1.39-.23,2.77-.47,4.2-.62,5.67-.68,11.45-1,17.22-1.34,23.1-1.12,46.26-1.35,69.38-1.67l39.69-.52c6.61-.12,13.22-.24,19.83-.48,1.65-.06,3.31-.13,5-.22l1.24-.06,1.79-.13,1.84-.14.92-.07.84-.15,1.67-.31a3.78,3.78,0,0,0,.78-.17l.55-.25a6.85,6.85,0,0,0,1.05-.52,3.32,3.32,0,0,0,.81-.7,1.52,1.52,0,0,0,.28-.6,1.68,1.68,0,0,0,0-.68,3,3,0,0,0-.51-1,7.34,7.34,0,0,0-1.86-1.74,19.05,19.05,0,0,0-3-1.6c-.59-.25-1.17-.49-1.78-.72l-.9-.34-.82-.29q-2.38-.82-4.78-1.53c-3.19-1-6.4-1.8-9.62-2.57q-9.68-2.32-19.48-3.84a176.32,176.32,0,0,0-19.77-2c-3.36-.12-6.62,0-9.89-.1l-9.8-.12q-19.6-.36-39.12-1.58c-13-.84-26-1.92-38.82-3.62-1.6-.22-3.2-.45-4.77-.71-.79-.13-1.58-.27-2.34-.43-.37-.07-.75-.16-1.05-.24l-.17-.05a3.39,3.39,0,0,1-.33.74,2.83,2.83,0,0,1-.47.82c-.1-.06.14.18.29.55l.36,1.11.13,0c.63-.11,1.47-.18,2.24-.25l2.4-.18,4.84-.27c6.48-.31,13-.53,19.46-.74q19.47-.6,38.9-1,38.87-.76,77.57-1c12.89,0,25.78,0,38.63.23,3.21.07,6.42.15,9.61.3,1.59.07,3.18.15,4.75.27.78.06,1.56.13,2.31.23.37,0,.73.1,1,.16l.34.09c0,.09,0,0,.16-.42s.35-.63.38-.76.31-.33.3-.34,0,0,0-.09-.15-.22-.33-.5a7,7,0,0,1-.33-.84c-.12-.33,0-.09-.07-.16H653a3.21,3.21,0,0,1-.43.07c-.33,0-.71.08-1.08.11-.76.06-1.54.09-2.33.11-1.58,0-3.18.07-4.78.08h-9.61c-12.85-.1-25.71-.24-38.55-.21q-9.63,0-19.26.15l-9.63.17c-3.2.06-6.44.2-9.56.13a118.87,118.87,0,0,1-18.82-1.55l-4.67-.79-4.64-1c-1.55-.31-3.08-.7-4.61-1.1s-3.07-.75-4.58-1.22a174.72,174.72,0,0,1-17.93-6.16c-1.47-.58-2.93-1.18-4.37-1.83l-2.16-.95-2.14-1c-1.43-.66-2.83-1.38-4.22-2.1l-.52-.26-.24-.13-.38-.21c-.25-.14-.5-.28-.74-.44a8.67,8.67,0,0,1-.89-.6c-.06,0-.14-.15,0-.22a.65.65,0,0,1,.23-.13,4.42,4.42,0,0,1,.52-.14c.35-.07.7-.11,1.06-.15l.53-.06.93-.08c3.89-.32,7.84-.51,11.78-.67,7.9-.3,15.81-.45,23.72-.57,15.83-.23,31.66-.28,47.48-.36s31.62-.06,47.49-.53c2-.08,4-.16,6-.32.51,0,1-.08,1.55-.15a9.35,9.35,0,0,0,1.85-.35c.23-.4.58.59,1.63-1.87-.59-2.79-1.32-1.81-1.44-2.24a6,6,0,0,0-1-.32c-.57-.14-1.07-.22-1.59-.31-4-.56-7.89-1-11.83-1.45l-11.8-1.41-5.89-.69-5.91-.52-23.63-2.09c-7.87-.63-15.76-1.08-23.63-1.63-15.76-1.16-31.52-1.81-47.28-2.65-7.88-.45-15.76-.68-23.64-1l-23.64-.92L403,617.51Q308.4,615.29,213.73,616c-31.57.26-63.16.63-94.79,1.81-4,.1-7.91.34-11.87.54s-7.91.36-11.89.67l-6,.56-3,.27-1.5.14a5.9,5.9,0,0,0-.64.13c-1.47-.53.28,7.36.29,4.18a7.28,7.28,0,0,0,1,.11c2.11.15,4,.18,6,.23l6,.09c15.85.17,31.68.14,47.53.12q95.1-.25,190.83-1.25l192.5-2Q625,620.43,723,619c65.37-1,131.21-2,197.64-3.47q20.83-.48,43.36-1.11l22.88-.76c7.76-.3,15.62-.6,23.67-1.13,2-.15,4-.29,6.16-.55.55-.08,1.09-.16,1.65-.26.29-.06.57-.11.93-.21a4.05,4.05,0,0,0,.65-.2,3.06,3.06,0,0,0,.65-.3c-.19-.11,1.87-.37,1.41-3.55-1.29-2.38-1.53-1.52-1.82-1.93a4,4,0,0,0-.56-.19c-.27-.07-.46-.11-.64-.14-.35-.06-.64-.09-.93-.12-.58-.06-1.11-.1-1.64-.13-4.2-.23-8.26-.25-12.39-.29-8.24,0-16.57,0-25,.11-16.85.18-34.09.49-51.67.83C857,607,781.2,609.05,703.65,610.9c-38.76.9-78,1.89-117.13,2.34-4.9,0-9.79.08-14.66,0-2.43,0-4.87,0-7.25-.11l-1.75-.08a9.79,9.79,0,0,1-1.42-.15c-.49-.13-1-.22-1.49-.37s-1-.29-1.4-.51a10.41,10.41,0,0,1-4.41-3.47,14.77,14.77,0,0,1-2.35-5.55,38.78,38.78,0,0,1,0-13.47A93.9,93.9,0,0,1,555,575.79q2.13-7,4.25-14a275.52,275.52,0,0,0,7-28.58,140.47,140.47,0,0,0,2.35-29.39,93,93,0,0,0-5.39-29c-1.74-4.62-3.83-9-5.71-13.23a98.65,98.65,0,0,1-7.86-26.22A118.47,118.47,0,0,1,548,421.8a31.35,31.35,0,0,1,1.71-12.5,30.7,30.7,0,0,1,2.78-5.67c1.1-1.83,2.46-3.68,3.75-5.77a32.32,32.32,0,0,0,3.23-6.82,36,36,0,0,0,1.59-7.31,33.94,33.94,0,0,0,.19-3.76c0-1.23-.09-2.41-.1-3.4a9.78,9.78,0,0,1,.27-2.58,10.35,10.35,0,0,1,1-2.43A15.08,15.08,0,0,1,566,367.3a19.59,19.59,0,0,1,5-2.91,18.71,18.71,0,0,1,5.6-1.31,5.32,5.32,0,0,1,.69,0h.34s0,0,0,0h0l-.5.28-.58.29a21.59,21.59,0,0,1-2.68,1,24.18,24.18,0,0,1-5.72.87,10.81,10.81,0,0,1-2.49-.21l-.11,0h0v0c0,.09.08-.22.21-.47A8.41,8.41,0,0,1,567,363a25.81,25.81,0,0,1,4.12-3.38l1.15-.76.59-.36.24-.15h0l0,0s.05,0,0,0v0l-.1.22c-.18.36-.36.73-.56,1.08a12.07,12.07,0,0,1-6.71,5.93c-.35.13-.7.25-1,.34a6.27,6.27,0,0,1-.67.15h0a.06.06,0,0,1,0,0l.18-1c.09-.5.18-1,.24-1.6a14.93,14.93,0,0,0,0-3.47,18.16,18.16,0,0,0-.76-3.25,20.3,20.3,0,0,0-2.89-5.61,15.44,15.44,0,0,0-4.87-4.46,10.12,10.12,0,0,0-3.56-1.13,8,8,0,0,0-2,0,4.21,4.21,0,0,0-.83.12l-.74.14a9.7,9.7,0,0,0-1.51.36,12.18,12.18,0,0,0-3.12,1.37,8.58,8.58,0,0,0-1.47,1.17l-.67.7c-.2.25-.37.51-.55.77a10,10,0,0,0-.86,1.55c-.22.51-.39,1-.56,1.47l-.4,1.3-.34,1.16c-.11.37-.23.72-.35,1l-.09.25a1.12,1.12,0,0,1-.15.3l-.52.92-.26.46-.13.23-.25.27-1,1.1-.56.67a2.6,2.6,0,0,0-.25.32l-.06.24-.22.94a1.66,1.66,0,0,0,0,1.2c0,.13.06.29.11.41s.09.2.16.34.16.25.23.36a3.56,3.56,0,0,0,1.18,1,5.75,5.75,0,0,0,1.87.53,16.2,16.2,0,0,0,2.43,0,24.37,24.37,0,0,0,2.63-.26c.44-.07.9-.12,1.32-.21l.74-.15a27.55,27.55,0,0,0,5.78-1.85,19,19,0,0,0,2.8-1.56,14,14,0,0,0,1.33-1l.63-.57.51-.52a15.93,15.93,0,0,0,3.63-5.37,9.28,9.28,0,0,0-.21-7.5,13.71,13.71,0,0,0-1.89-2.67,5.78,5.78,0,0,1-1-1.43,4.12,4.12,0,0,1-.21-.65,3.4,3.4,0,0,1-.07-.56,4.5,4.5,0,0,1,.43-1.43c.59-1.44,1.32-3.09,2-4.68.3-.78.61-1.56.92-2.33s.61-1.49.93-2.22c.64-1.47,1.35-2.88,2.08-4.45a47.33,47.33,0,0,0,1.94-4.89,50.68,50.68,0,0,0,2.24-10.07,31,31,0,0,0,.16-5.31c0-.47-.07-.94-.15-1.44l-.06-.37-.12-.53a7.73,7.73,0,0,0-.32-1.11,5.31,5.31,0,0,0-2.77-3.27,5.57,5.57,0,0,0-3.36-.21,9.84,9.84,0,0,0-1.69.56c-.3.13-.39.18-.59.28l-.51.27a14.57,14.57,0,0,0-1.91,1.25,10.64,10.64,0,0,0-1,.9,5.58,5.58,0,0,0-.69.91,4.08,4.08,0,0,0-.25.55,3,3,0,0,0-.14.51c0,.09,0,.16,0,.27a4,4,0,0,0,0,.49,3.08,3.08,0,0,0,1.15,2.29,3.12,3.12,0,0,0,1.69.65,2.66,2.66,0,0,0,.63,0,3.14,3.14,0,0,0,.7-.18,4,4,0,0,0,.79-.41l.35-.25c.19-.15.35-.28.49-.41.3-.26.56-.52.81-.78a12.8,12.8,0,0,0,1.44-1.78,6.46,6.46,0,0,0,.71-1.38,4.44,4.44,0,0,0,.27-1.24,3.38,3.38,0,0,0,0-.45,4.52,4.52,0,0,0-.06-.53,3.79,3.79,0,0,0-1.2-2.05,4.23,4.23,0,0,0-.69-.47,4.79,4.79,0,0,0-1-.41,6.93,6.93,0,0,0-1.44-.23,15.81,15.81,0,0,0-4.15.38,16.2,16.2,0,0,0-2,.54,9.92,9.92,0,0,0-1.12.46l-.33.18a3.46,3.46,0,0,0-.39.25,3.77,3.77,0,0,0-1.15,1.21,3.34,3.34,0,0,0-.32.71,4.7,4.7,0,0,0-.12.51,3.31,3.31,0,0,0,0,1,3.84,3.84,0,0,0,.54,1.56,5.27,5.27,0,0,0,1.27,1.4,8.77,8.77,0,0,0,2.16,1.21,7.19,7.19,0,0,0,1.34.39,3.64,3.64,0,0,0,.74.07l.41,0,.25,0,.13,0,.31-.1a3.1,3.1,0,0,0,.58-.28,2.12,2.12,0,0,0,.28-.2,3,3,0,0,0,.48-.47,3.39,3.39,0,0,0,.6-1.24,3.35,3.35,0,0,0,0-1,2.41,2.41,0,0,0-.08-.48,1.83,1.83,0,0,0-.12-.35,2.92,2.92,0,0,0-.14-.31,2.75,2.75,0,0,0-.17-.29l-.1-.14,0-.07a4.92,4.92,0,0,0-.35-.39l-.23-.2-.12-.1a16.43,16.43,0,0,0-1.64-1.14,9.74,9.74,0,0,0-4.22-1.47,7,7,0,0,0-2.62.24,6.82,6.82,0,0,0-2.44,1.29,8.27,8.27,0,0,0-2.51,4c-.1.33-.2.67-.28,1l-.16.95a15,15,0,0,0-.15,1.85,20.58,20.58,0,0,0,.2,3.46l0,.41a3.92,3.92,0,0,0,.09.58c0,.09,0,.19.09.35l0,.11.07.19.09.18a3.61,3.61,0,0,0,.2.36l.13.18.24.27a3.09,3.09,0,0,0,.95.66,3.19,3.19,0,0,0,1,.23,3,3,0,0,0,.91-.07,2.94,2.94,0,0,0,.68-.25,3.54,3.54,0,0,0,.53-.34,3.44,3.44,0,0,0,.65-.72l.13-.24.08-.14a3.49,3.49,0,0,0,.24-.66l.09-.35a12.66,12.66,0,0,0,.24-1.89,23.55,23.55,0,0,0,0-3.36,14.46,14.46,0,0,0-.67-3.61c-.08-.23-.16-.46-.27-.7a7,7,0,0,0-.45-.86,5.43,5.43,0,0,0-1.17-1.37l-.79-.54-.87-.41a5.88,5.88,0,0,0-.94-.28,4.7,4.7,0,0,0-.8-.12,9.21,9.21,0,0,0-2.81.14,11.67,11.67,0,0,0-4.72,2.09,9.65,9.65,0,0,0-2,2,8.87,8.87,0,0,0-.76,1.36,7.2,7.2,0,0,0-.46,1.51,12,12,0,0,0,.26,5,21.92,21.92,0,0,0,1.42,4,17.58,17.58,0,0,0,1.06,2,7,7,0,0,0,.44.63,4.1,4.1,0,0,0,.6.62,4.2,4.2,0,0,0,.49.33,3.13,3.13,0,0,0,.86.31,3.22,3.22,0,0,0,1.28,0,3,3,0,0,0,1.75-1.22l.1-.16.05-.08a3.7,3.7,0,0,0,.28-.69,5,5,0,0,0,.1-.51l0-.31v-.42c0-.24,0-.44,0-.64a18.53,18.53,0,0,0-.82-4.23,11.28,11.28,0,0,0-1.07-2.46,5.51,5.51,0,0,0-2.44-2.27,5.58,5.58,0,0,0-3.72-.13,9.55,9.55,0,0,0-2.75,1.3,18,18,0,0,0-3.56,3.14c-.26.3-.51.61-.77,1a8.74,8.74,0,0,0-.76,1.24,5.83,5.83,0,0,0-.4,1,3.52,3.52,0,0,0-.09,1.13,2.33,2.33,0,0,0,0,.37,3,3,0,0,0,.16.56,3,3,0,0,0,.64,1,2.89,2.89,0,0,0,.91.68,3.79,3.79,0,0,0,.81.29,3.93,3.93,0,0,0,.9.07,3.67,3.67,0,0,0,.55,0l.31-.05.11,0h.09a.12.12,0,0,1,.11,0,.21.21,0,0,1,0,.24l0,0-.08.14a6.87,6.87,0,0,1-.41.58,11.44,11.44,0,0,1-1,1.11,5.4,5.4,0,0,1-.48.43l-.06.06h0l.33.5c.22.36.41.6.58.93a3.83,3.83,0,0,1,.37.79c0,.12.07.14,0,.22s0,0,.13-.08a6.11,6.11,0,0,1,1.68-.12l.52,0h.42v-.11l.06-.28a5.83,5.83,0,0,1,.17-.66,7.35,7.35,0,0,1,1.14-2.35,2.93,2.93,0,0,1,.66-.66,1.41,1.41,0,0,1,.59-.25,3.74,3.74,0,0,1,1.94.25,4.15,4.15,0,0,1,1.73,1.12,4.08,4.08,0,0,1,.54.84c.18.38.38.9.65,1.51a9.64,9.64,0,0,0,2.74,3.71,11.36,11.36,0,0,0,3.88,2.05,8.78,8.78,0,0,0,4.73.23,5.28,5.28,0,0,0,.73-.25l.18-.07,0,0,0,0a.23.23,0,0,0,.07-.07.49.49,0,0,0,.06-.17,3,3,0,0,1,.07-.32c.09,0,.09.15.12.23l.08.28,0,.15,0,.08c0,.14.17.46.27.7a6.06,6.06,0,0,0,1.26,1.94,3.68,3.68,0,0,0,.39.33,3.21,3.21,0,0,0,.54.32,2.83,2.83,0,0,0,.71.26,3.36,3.36,0,0,0,2-.15c.16-.06.32-.14.47-.21l.34-.22a5.52,5.52,0,0,0,1.6-1.72,8.06,8.06,0,0,0,.79-1.69,9.2,9.2,0,0,0,.24-.91,8.31,8.31,0,0,0,.14-1.13,6,6,0,0,0-.3-2.2,4.74,4.74,0,0,0-3-3l-.53-.18a3.4,3.4,0,0,0-.44-.14l-.61-.17c-.37-.1-.71-.19-1-.28a5.6,5.6,0,0,1-1.43-.69,6.9,6.9,0,0,1-2-2.53,9.48,9.48,0,0,1-.94-3.32,6,6,0,0,1,0-1.49,4.83,4.83,0,0,1,.16-.56.78.78,0,0,1,.09-.2c.29-.2-.08-.26,1.83-.06a11.51,11.51,0,0,0,5.28-.58,8.06,8.06,0,0,0,1.23-.55,7.71,7.71,0,0,0,1.12-.67,5.09,5.09,0,0,0,.43-.3l.16-.13.63-.49a4,4,0,0,1,.34-.23,1.11,1.11,0,0,1,.19-.09c.1,0,0,.1,0,.13-.1.22-.23.43-.32.66a2.22,2.22,0,0,0-.09.37l0,.19v.31l-.09,1.81c0,.58,0,1.15-.1,1.71-.3,4.48-1,8.69-2.56,11.82a10.57,10.57,0,0,1-3.1,3.76c-.3.24-.65.45-1,.67a10.42,10.42,0,0,1-1,.51,11.29,11.29,0,0,1-2.15.71,11.6,11.6,0,0,1-8-.84,4.4,4.4,0,0,1-2-2.21c-.21-.49-.38-1.07-.6-1.75a9.21,9.21,0,0,0-1-2.25,5.73,5.73,0,0,0-2-1.89,7.43,7.43,0,0,0-2.23-.86,8.52,8.52,0,0,0-4.18.17,5.81,5.81,0,0,0-3.37,2.51,4.94,4.94,0,0,0-.64,2,7,7,0,0,0,0,1.68,18.52,18.52,0,0,0,.57,2.46,16.63,16.63,0,0,0,.74,2.07,16.46,16.46,0,0,0,1.68,3,12,12,0,0,0,2.14,2.4c.3.21.13-.06-.38-.74a21.11,21.11,0,0,1-2.11-3.44,15.73,15.73,0,0,1-1.06-2.81,18.07,18.07,0,0,1-.64-3.47,4.53,4.53,0,0,1,.38-2.15,3.94,3.94,0,0,1,1.58-1.7,6.73,6.73,0,0,1,4.43-.74,6.24,6.24,0,0,1,2.23.8,4.4,4.4,0,0,1,1.7,1.8c.75,1.5.84,3,1.56,4.29a6.17,6.17,0,0,0,1.34,1.68A8.3,8.3,0,0,0,544.3,332a12,12,0,0,0,4.39,1,13.84,13.84,0,0,0,8.46-2.15,13.43,13.43,0,0,0,4.88-6.17,29.43,29.43,0,0,0,1.7-6.19c.29-1.78.45-3.19.53-4.11.13-1.36.21-2.73.29-4.09a12.1,12.1,0,0,1,.85-4.08c.51-1.29,1.29-2.39,1.8-3.62a.36.36,0,0,0,0-.25.24.24,0,0,0-.23-.06,1.84,1.84,0,0,0-.47.15c-.31.14-.59.3-.88.46q-.84.51-1.68,1.08c-1.12.76-2.25,1.59-3.39,2.43-.28.21-.56.43-.86.62s-.54.38-.84.54a8.65,8.65,0,0,1-1.81.75,9.75,9.75,0,0,1-3.92.17,8.85,8.85,0,0,0-2.07-.08,2.62,2.62,0,0,0-1.8,1.06,5.18,5.18,0,0,0-.92,2.35,9,9,0,0,0,0,2.48,12.2,12.2,0,0,0,1.56,4.65,8.7,8.7,0,0,0,3.5,3.46,13.75,13.75,0,0,0,2.32.84,5.27,5.27,0,0,1,2,.82,2.24,2.24,0,0,1,.63,1.93,4.79,4.79,0,0,1-.66,2.06,3,3,0,0,1-.67.82,1.16,1.16,0,0,1-.37.21.35.35,0,0,1-.25,0,2,2,0,0,1-.56-.78,8.24,8.24,0,0,1-.43-1.12c-.53-1.72-.89-3.66-1.43-5a6.45,6.45,0,0,0-.42-1,1.31,1.31,0,0,0-.33-.45c-.22-.15-.34.09-.38.23-.2.65-.28,1.31-.5,2a3.83,3.83,0,0,1-.88,1.58,7.66,7.66,0,0,0-.74,1.06,3,3,0,0,1-.74.2,6.62,6.62,0,0,1-3.28-.52,7.49,7.49,0,0,1-2.76-1.88,10.18,10.18,0,0,1-1.62-3,6.82,6.82,0,0,0-2.33-3.08,8.35,8.35,0,0,0-3.55-1.49,5.46,5.46,0,0,0-3.89.68,7.44,7.44,0,0,0-2.53,3,11.27,11.27,0,0,0-1.18,3.64,2.53,2.53,0,0,0,0,.28,1.15,1.15,0,0,0,.07.48l0,.05a.55.55,0,0,0,.09.14.61.61,0,0,0,.28.21.76.76,0,0,0,.47,0,.71.71,0,0,0,.23-.1,2,2,0,0,0,.26-.16c.29-.21.52-.42.76-.63a15.38,15.38,0,0,0,1.29-1.39,11.38,11.38,0,0,0,1.12-1.61,6.07,6.07,0,0,0,.77-2,3.27,3.27,0,0,0-.24-2.07,2.81,2.81,0,0,0-1.51-1.41,4.39,4.39,0,0,0-2.1,0l-1.06.22-.32,0s0,0,0,0h0a.34.34,0,0,0,0,.13.41.41,0,0,1-.09.19s0,0,0,0,0,0,.05,0,.13,0,.22,0h.12s0,0,0,0v0a1.09,1.09,0,0,1,.11-.27,4,4,0,0,1,.41-.67,11.14,11.14,0,0,1,1.1-1.3,13.38,13.38,0,0,1,2.67-2.16,7.24,7.24,0,0,1,.73-.38,3.91,3.91,0,0,1,.65-.24,2,2,0,0,1,1.34,0,2.24,2.24,0,0,1,.93,1,8.76,8.76,0,0,1,.59,1.53,15.41,15.41,0,0,1,.61,3.47c0,.14,0,.27,0,.38v.05h0l.1,0,.21.06.14,0a1.65,1.65,0,0,1,.21.11s0,.06,0,0a.17.17,0,0,1,0-.07s.08-.16.14-.23.14-.12.25-.26-.25-.38-.37-.62a15.69,15.69,0,0,1-.79-1.59,18,18,0,0,1-1.12-3.39,7.68,7.68,0,0,1-.08-3.33,4.6,4.6,0,0,1,1.91-2.46,7.88,7.88,0,0,1,3.11-1.27,5.21,5.21,0,0,1,1.62-.05,3.21,3.21,0,0,1,.69.15,2.56,2.56,0,0,1,.58.33,2.36,2.36,0,0,1,.65,1,7.88,7.88,0,0,1,.38,1.43,17.73,17.73,0,0,1,.21,3.11c0,.53,0,1.06-.09,1.57,0,.26-.06.52-.1.75a1.61,1.61,0,0,1-.07.31v0a3.29,3.29,0,0,1,.54.26c.18.09.19.22.2.15a1,1,0,0,1,.41-.22l.34-.12h0v-.06l0-.18-.05-.39-.09-.79c-.07-.53-.05-1-.08-1.57s0-1,.07-1.55a10.2,10.2,0,0,1,.29-1.48,4.45,4.45,0,0,1,1.36-2.36,2.92,2.92,0,0,1,2.39-.64,7,7,0,0,1,2.67,1.08l.62.46.31.23a.53.53,0,0,1,.09.07c.23-.3.68-.56.71-.51s-.07-.06-.09-.22a1,1,0,0,1,0-.24,1.61,1.61,0,0,1,0-.31c0-.15,0-.08,0-.1h-.06a2.16,2.16,0,0,1-.29-.08,5.38,5.38,0,0,1-.66-.27,3.43,3.43,0,0,1-1-.72.58.58,0,0,1-.08-.12h0l-.11,0h-.06l-.39-.13h0l0,0a2,2,0,0,1,.42.33s.06,0,.14-.09a10.08,10.08,0,0,1,2.87-.86,9.63,9.63,0,0,1,3-.12,1.26,1.26,0,0,1,.25.07c.09,0,.07.09.14,0s.35-.28.19-.22l-.12,0h-.18c-.07,0,0,0,0,0a3.46,3.46,0,0,1-.62,1.07,10,10,0,0,1-1,1.14c-.18.17-.38.35-.55.48l-.12.08,0,0h0l.1.18c0,.14.1.21.14.31l.08.25c0,.09,0,.12,0,.13l.07-.07h0l.06,0a1.6,1.6,0,0,1,.64.24l.09.05h0l0,0,.09-.1.24-.23a5.64,5.64,0,0,1,.58-.47,11,11,0,0,1,1.31-.81,5.91,5.91,0,0,1,1.17-.48,1.9,1.9,0,0,1,1.13,0,1.86,1.86,0,0,1,.91,1.32,10.58,10.58,0,0,1,.28,2.09,27.4,27.4,0,0,1-.22,4.77,46.19,46.19,0,0,1-2.24,9.5,40.58,40.58,0,0,1-1.9,4.53c-.72,1.5-1.47,3.05-2.14,4.62s-1.27,3.18-1.91,4.72-1.34,3-2,4.78a7.19,7.19,0,0,0-.34,1.47,5.36,5.36,0,0,0,.06,1.56,7.34,7.34,0,0,0,1,2.78,20.51,20.51,0,0,0,1.64,2.14,5.42,5.42,0,0,1,1.08,1.86,5.8,5.8,0,0,1-.54,4.22,13.84,13.84,0,0,1-3,3.79c-2.26,2.14-5.6,3.29-8.88,3.95l-.49.09-.42.07-.83.1a13.25,13.25,0,0,1-1.67.06,2.25,2.25,0,0,1-.81-.16.16.16,0,0,1-.11-.16c0-.07.07-.11.12-.16l.3-.29a4.76,4.76,0,0,0,.58-.61,5.31,5.31,0,0,0,.49-.68,4.92,4.92,0,0,0,.43-.77l.21-.45.25-.63c.33-.87.57-1.73.81-2.56a8.16,8.16,0,0,1,2.07-4,8.36,8.36,0,0,1,4.23-1.71l.61-.12.53,0a4.75,4.75,0,0,1,1.06.06,6.32,6.32,0,0,1,2,.83,14.5,14.5,0,0,1,5.57,7.87,11,11,0,0,1,.46,4.84c0,.41-.12.83-.2,1.27l-.13.66c0,.23-.1.6-.14.89a5.05,5.05,0,0,0,0,1.82,2.92,2.92,0,0,0,.87,1.53,4.6,4.6,0,0,0,3.58.88,9.23,9.23,0,0,0,1.65-.33,13.72,13.72,0,0,0,1.45-.49,17,17,0,0,0,5.21-3.15,18.64,18.64,0,0,0,3.71-4.84c.24-.46.45-.88.68-1.39s.52-1.2.73-1.83a13.9,13.9,0,0,0,.8-3.59,6.39,6.39,0,0,0-.09-1.54,2.52,2.52,0,0,0-.24-.7.9.9,0,0,0-.24-.32.46.46,0,0,0-.34-.09,7.3,7.3,0,0,0-3,.73,38.93,38.93,0,0,0-3.53,1.87c-1,.56-1.73,1.06-2.58,1.65a27.8,27.8,0,0,0-4.72,3.95,11.5,11.5,0,0,0-1.93,2.66,6.62,6.62,0,0,0-.63,1.78,5.24,5.24,0,0,0,0,2.05,3.74,3.74,0,0,0,2.81,2.55,8.76,8.76,0,0,0,1.67.35c.53.06,1.05.1,1.57.11a26,26,0,0,0,6.11-.66,22.13,22.13,0,0,0,5.86-2.09l.35-.19.45-.27c.29-.18.58-.36.86-.55.58-.38,1.12-.78,1.65-1.19a16.77,16.77,0,0,0,1.45-1.25,8.06,8.06,0,0,0,.95-1.24,5,5,0,0,0,.34-.59.87.87,0,0,0,0-.78,3,3,0,0,0-1.16-1,10.26,10.26,0,0,0-3.44-.95c-.66-.09-1.36-.15-2-.18-.35,0-.71,0-1.05,0h-.84a22.46,22.46,0,0,0-3.18.39,23.42,23.42,0,0,0-11.37,5.71,18.3,18.3,0,0,0-4,5.25,14.6,14.6,0,0,0-1.16,3.19,14,14,0,0,0-.31,3.38,46.29,46.29,0,0,1,0,6.13,32,32,0,0,1-1.17,5.94,26.78,26.78,0,0,1-2.36,5.58c-1,1.79-2.21,3.5-3.41,5.32a35.58,35.58,0,0,0-5.43,12.2,43.14,43.14,0,0,0-.57,13.5c.21,2.24.51,4.47.83,6.69s.67,4.44,1.08,6.68a104.46,104.46,0,0,0,3.33,13.37,122.13,122.13,0,0,0,5.14,13c1.91,4.25,3.87,8.47,5.39,12.86.41,1.09.71,2.21,1.08,3.32s.57,2.26.85,3.4.61,2.27.82,3.43l.6,3.49a108.86,108.86,0,0,1,.53,28.89,198.58,198.58,0,0,1-5.65,29.57q-2,7.42-4.28,14.91c-.76,2.5-1.53,5-2.31,7.54s-1.55,5.1-2.21,7.71a71.47,71.47,0,0,0-2.4,16.24,32.77,32.77,0,0,0,.93,8.48,17.82,17.82,0,0,0,4.14,7.86,16.23,16.23,0,0,0,3.64,2.79,17.72,17.72,0,0,0,4.24,1.61l1.09.25a9.66,9.66,0,0,0,1.19.15c.74.07,1.44.1,2.16.13,1.41.06,2.82.08,4.23.11,5.63.08,11.3,0,17,0,22.85-.18,46.47-.65,71-1.13l76.07-1.64c-78.82,1.8-103.7,2.07-92,1.73l127.29-3.23,113.27-2.75,63.33-1.3,32.62-.48c10.94-.11,22-.23,33-.06,2.72.07,5.54.1,8.13.38l.43.06.16,0c0,.24.08-.26.35-.8s.25-.1,0-.54-.46-1-.41-.75l-.37.09c-.59.14-1.27.24-1.91.33-1.33.17-2.7.28-4.06.39-5.48.41-11,.66-16.53.9-11,.47-22.08.81-33.09,1.13-22,.63-43.87,1.11-65.3,1.54-42.85.85-84,1.48-121.19,2-95.23,1.21-199.43,2.41-309.72,3.55L296.59,618.9c-57.83.46-116.84,1-176.61,1-7.47,0-15,0-22.44-.11-3.72,0-7.51-.08-11.13-.25-.42,0-.92-.06-1.15-.09.13-.94-.52,3.09-.72,2.7.14-.49.89,3.37.78,2.69l.27,0,.34,0,2.76-.25L94.2,624c.92-.08,1.84-.18,2.76-.24l2.81-.15,5.62-.3c3.75-.18,7.49-.42,11.25-.56l22.62-.76c15.11-.33,30.25-.72,45.45-.87s30.41-.32,45.67-.42c61-.31,122.49.27,184,1.84l23.07.66,11.54.33,11.53.44c15.38.6,30.76,1.12,46.11,2l23,1.17,23,1.53,11.49.76c3.82.28,7.64.65,11.46,1l22.89,2,22.76,2.71,2.84.34c1,.11,1.91.22,2.78.37.43.08.86.16,1.2.24l.2.05c-.07.35.08-.2.56-1.27.27-.85.93-1,.57-1a5.9,5.9,0,0,1-.9-2.06c-.07-.32-.07-.08-.15-.14l-.24,0-.6.08-1.33.13c-3.68.27-7.52.36-11.32.46-15.25.31-30.54.32-45.79.4s-30.49.15-45.7.39c-7.6.12-15.2.28-22.82.59-3.8.16-7.61.34-11.46.68-1.6.15-3.48.34-5.07.63a8.17,8.17,0,0,0-3.67,1.39,3.7,3.7,0,0,0-.85,1,2.14,2.14,0,0,0-.28.69,1.21,1.21,0,0,0,0,.7c.11.38.19.75.33,1.13l1.05,1.32a43.4,43.4,0,0,0,4.44,2.8l1.16.69c.18.11.39.24.57.33l.37.19,1.35.7c1.8.95,3.64,1.76,5.46,2.64,3.68,1.63,7.38,3.2,11.14,4.59a181.61,181.61,0,0,0,23,6.9c2,.41,3.91.88,5.88,1.23l5.93,1,6,.72c2,.24,4,.3,6,.45s4,.14,6,.16h3l2.93-.07,11.72-.23c15.62-.23,31.19-.18,46.71,0,7.76.06,15.5.17,23.29.12,2,0,3.9,0,5.94-.18.52,0,1-.07,1.63-.15a9.62,9.62,0,0,0,1-.19l.39-.12a3,3,0,0,0,.6-.27,1.53,1.53,0,0,0,.28-.17,3.17,3.17,0,0,0,.34-.28,3.08,3.08,0,0,0,.3-.33,2.8,2.8,0,0,0,.47-.91,2.72,2.72,0,0,0-.09-1.9,3.06,3.06,0,0,0-.47-.79l-.25-.25a4.19,4.19,0,0,0-.54-.4c-.14-.08-.18-.09-.28-.14a3.25,3.25,0,0,0-.46-.19c-.22-.07-.44-.14-.59-.17-.36-.09-.63-.13-.92-.18-.56-.09-1.07-.15-1.58-.21-4-.39-7.86-.5-11.75-.63-16.68-.45-33.42-.4-50.33-.34s-34,.3-51.16.58-34.58.64-52.15,1.14c-8.79.26-17.61.53-26.52,1-2.23.12-4.46.24-6.74.43-.58,0-1.15.1-1.76.17-.32,0-.62.08-1,.16l-.36.08-.24.07a2.5,2.5,0,0,0-.49.19c-.09.22-.41-.3-1.5,1.67-.93,1.2,1.23,3.7,1,3.22a3.85,3.85,0,0,0,.58.34l.27.11a8.53,8.53,0,0,0,1.15.33l.91.2,1.72.32c4.52.75,9,1.29,13.46,1.8,17.94,2,36.12,3.14,54.53,3.81q13.82.48,27.8.56c2.34,0,4.68,0,6.92.05s4.56.19,6.85.39c4.57.37,9.17.95,13.76,1.67a228,228,0,0,1,27.41,6c1.12.33,2.23.67,3.34,1l1.65.55.54.19a1.48,1.48,0,0,1,.55.3c0,.12-.15.12-.23.14l-.37,0-1.56.09-3.59.16c-19.22.69-38.83.78-58.69,1.07q-19.3.22-38.58.6c-12.86.29-25.7.62-38.58,1.41-3.22.2-6.45.45-9.69.78-1.62.17-3.25.36-4.9.6-.85.15-1.63.25-2.53.43l-.77.19a5,5,0,0,0-1.3.54c-2.66.38.37,7.86.59,5.47a6.62,6.62,0,0,0,1,.3,24.09,24.09,0,0,0,2.69.4c.84.09,1.66.16,2.48.22,1.63.13,3.24.23,4.86.31,3.22.17,6.43.3,9.64.41,12.82.43,25.6.65,38.37.86l76.45,1,19.05.33,9.49.27,3.57.15a.44.44,0,0,1,.16,0c.05,0,0,.1-.07.12l-.07,0-1.44.72c-2.74,1.34-5.62,2.55-8.52,3.72-5.81,2.32-11.76,4.43-17.72,6.44-12,4-24.06,7.64-36.22,10.54-3,.7-6.08,1.36-9.06,1.78s-6.23.86-9.36,1.25q-9.36,1.17-18.76,2a667.9,667.9,0,0,1-75.35,2.74c-6.27-.14-12.54-.37-18.78-.75-3.11-.19-6.24-.41-9.28-.74-.76-.08-1.52-.17-2.2-.27l-.46-.08c0-.86-.17.62-1.06,2.67.38.91,1,3.73.88,2.91l.4,0c1.32-.12,2.93-.15,4.45-.17,6.21,0,12.51.11,18.79.26l18.86.57c25.14.84,50.28,1.86,75.39,2.86l75.31,3c25.1.94,50.18,1.88,75.3,2.44,6.28.13,12.56.24,18.87.24,3.16,0,6.31,0,9.53-.14.81,0,1.62-.08,2.46-.15l1.29-.12a12.11,12.11,0,0,0,1.55-.27,3.86,3.86,0,0,0,1.86-.94c2.86-4.56-3.69-6.62-1.88-5.51-.66-.1-1-.12-1.49-.15-.86-.05-1.66-.08-2.47-.1-6.37-.13-12.62-.06-18.91,0l-18.83.27q-37.62.68-75.21,1.69-75.21,1.93-150.44,4.28l-2.35.07-1.19,0c2.65-2.64-4.73,3.07-2.14,5.17,2.88,1.57,2.13.61,2.5.9l4.7.32,9.4.6,18.8,1.16,37.63,2.16q18.83,1,37.67,1.89c12.58.55,25.15,1.06,37.78,1.3,3.16,0,6.33.08,9.51.07,1.6,0,3.17,0,4.8-.09s3.22-.13,5-.3c.91-.12,1.94-.28,2.5-.41l.45-.06c.13-.12.24.19.23-.25a8.22,8.22,0,0,1,.28-2.58c-.2.24-2.09-2-2-1.91-.1.07-.4.26-.68.41l-.93.5c-.65.33-1.34.65-2,1-2.77,1.27-5.66,2.46-8.55,3.61-11.6,4.56-23.49,8.59-35.48,12.11a224.53,224.53,0,0,1-36.47,7.84c-6.17.74-12.39,1.19-18.64,1.47s-12.52.36-18.8.31c-12.56-.06-25.15-.55-37.74-1.23s-25.21-1.53-37.8-2.54c-25.2-2-50.33-4.85-75.53-8l-4.76-.56-2.43-.26c-.42,0-.84-.07-1.32-.09a7.81,7.81,0,0,0-1,0c-2.83-.54-.51,10.07-.59,5.84,1.09.38,1.79.52,2.4.76l2.23.75,4.57,1.5c6.11,1.92,12.24,3.76,18.42,5.41q18.53,5,37.39,8.71A577.78,577.78,0,0,0,466.92,794c6.42.35,12.85.5,19.28.76l19.32,0c12.88-.22,25.75-.88,38.6-1.79,25.69-1.85,51.33-4.6,77-7.66s51.28-6.4,77-9.81c6.42-.86,12.87-1.77,19.25-2.54,1.58-.18,3.19-.37,4.67-.45.36,0,.72,0,1,0,.22-.5,0,1.13.34-1.11.25-1.74,1-1.18.2-1.71-.64-.81-1.27-2.56-1.11-1.91l-.38.12-1,.25c-3,.62-6.23,1.06-9.41,1.51-12.81,1.73-25.76,3.22-38.69,4.82-25.88,3.16-51.82,6.54-77.76,10.47l-9.73,1.5-4.86.77-4.81.71a146.7,146.7,0,0,1-19.27,1.5c-6.43.07-13-.35-19.61-.51s-13.31-.11-20,.24c-1.67.07-3.32.18-5,.29s-3.28.18-5,.4a62.52,62.52,0,0,0-10.17,1.85,71.51,71.51,0,0,0-9.73,3.42,70.31,70.31,0,0,0-9.1,4.86,65.79,65.79,0,0,0-8.27,6.26,50.72,50.72,0,0,0-7,7.79,31.37,31.37,0,0,0-4.85,9.69,18.6,18.6,0,0,0,.21,11.49,18.24,18.24,0,0,0,7.42,8.77,27.77,27.77,0,0,0,2.41,1.39l2.48,1.14a43.28,43.28,0,0,0,5.07,1.63c1.72.46,3.4.82,5.07,1.12s3.35.57,5,.81c3.34.48,6.68.87,10,1.2,13.36,1.29,26.71,1.87,40.08,2.3,26.75.79,53.55.77,80.43.71,13.42,0,26.91-.13,40.29.18,1.66,0,3.33.11,5,.22.8,0,1.61.12,2.31.21l.45.08c.23-.16-.1.7.62-1.32.68-1.52.93-.54,0-1.69-.84-1.34-.51-1.37-.77-1.54a20.35,20.35,0,0,1-2.07.35l-2.42.25c-1.64.14-3.31.25-5,.36-6.68.39-13.43.62-20.17.83-28.64.82-56.89,1.11-84.73,1.39s-55.31.41-82.4.53l-20.26.08-5.05,0h-1.63c2.14-3.9-3.89,5.08-.12,5.38h.88l2.51,0,10,.11q20,.27,39.83.81c26.37.74,52.42,1.85,78.09,3.85,12.83,1,25.57,2.25,38.12,4.07,6.27.93,12.5,2,18.54,3.47a59,59,0,0,1,8.67,2.76,18.12,18.12,0,0,1,1.87.94,8.5,8.5,0,0,1,.8.51,3.35,3.35,0,0,1,.34.26l.22.19a.55.55,0,0,1,0,.88,6.1,6.1,0,0,1-.53.45c-.23.18-.51.35-.78.52a20.25,20.25,0,0,1-1.86,1,42,42,0,0,1-4.17,1.6c-2.88.95-5.88,1.71-8.89,2.4-6.05,1.37-12.2,2.42-18.35,3.34-12.32,1.83-24.69,3.12-37,4.2q-9.26.8-18.49,1.43l-9.25.62-4.63.34-2.33.19c-.8.07-1.53.13-2.44.26a4.52,4.52,0,0,0-.49.09c.52,1.26-1.54-2.88-.83,4.09,1.26.62.88.29,1.13.41s.55,0,.78,0l1.22,0,2.35,0,4.63-.09,9.22-.24,18.38-.55c24.45-.75,48.72-1.55,72.86-2q6.6-.12,13.23-.16c4.41,0,8.85,0,13.2.15a30.49,30.49,0,0,1,3.08.25l.25,0h0c0,.09,0,0,.13-.39a6.62,6.62,0,0,1,.24-.63,4,4,0,0,1,.27-.55.59.59,0,0,1,.21-.22A.55.55,0,0,1,671,894a4.85,4.85,0,0,1-.54-1.24c-.13-.4-.17-.52-.15-.43h0l-.12,0c-.39.07-.93.14-1.45.19-2.12.21-4.35.32-6.55.42-4.42.2-8.88.33-13.33.44-17.83.43-35.74.61-53.63.77-35.77.3-71.44.39-106.29.47l-26,.05-12.86,0-3.2,0-1.71,0c-.9,0-1.82,0-2.7.07a11.09,11.09,0,0,0-2.34.43c-.3.14-.63.25-.91.4a4.23,4.23,0,0,0-.75.54,2.79,2.79,0,0,0-.62.73,2.51,2.51,0,0,0-.32,1,3.84,3.84,0,0,0,.36,1.84c.87,2.31,5.3,5,6.48,5.7,1.87,1.14,3.75,2.16,5.65,3.14,3.79,2,7.61,3.72,11.45,5.39,7.67,3.35,15.38,6.32,23.08,9.05a329.84,329.84,0,0,0,46,12.87c3.81.74,7.63,1.37,11.44,1.85s7.56.78,11.28,1.13q11.13,1,21.88,1.86c22.52,1.75,44.67,3.09,66.52,3.79,5.46.16,10.9.29,16.37.26,1.37,0,2.73,0,4.15-.1l1.09-.07a9.52,9.52,0,0,0,1.38-.21,2.87,2.87,0,0,0,.39-.13,2.37,2.37,0,0,0,1.12-.91,2.33,2.33,0,0,0-.62-3.14A3,3,0,0,0,665,940l-.28-.11-.18,0-.37-.07-.74-.11-.36,0h-.27l-2.11-.1-2,0c-1.37,0-2.71,0-4.06,0-10.78,0-21.42.28-32,.52-42.27,1-83.22,2.43-123.2,3.69l-29.79.91c-4.93.14-9.85.28-14.74.36q-1.84,0-3.63,0h-.63c-.09.31.13-.69-.22.7-.43,1.83-.31.73-.35,1.44a17.52,17.52,0,0,1,.15,1.93h.33l1.78.08,7.3.43,57.88,3.83q28.66,1.89,56.85,3.59c18.81,1.11,37.48,2.16,56.08,2.91-20.79-.86-40.84-2-60.41-3.21s-38.63-2.44-57.42-3.69l-55.75-3.71-3.44-.2-1.72-.09-.84,0h-.64c0,.35,0-.66-.09-1.36s-.14-.43.09-1.15c.1-.36.54-2.07.38-1.34h.1a.74.74,0,0,1,.21,0h2.49l3.44,0,13.84-.35,27.76-.85c37.13-1.16,74.86-2.44,114.9-3.49,10-.26,20.17-.5,30.51-.66,5.17-.07,10.37-.14,15.69-.06.66,0,1.32,0,2,.06l1,.05.52,0,.71.09.71.12a2.65,2.65,0,0,1,.42.12,3,3,0,0,1,.46.24c0,.1,1.12.31,1,2.27-.69,1.75-1.09,1.33-1.29,1.6a2.42,2.42,0,0,1-.41.15,3.2,3.2,0,0,1-.45.1,6.1,6.1,0,0,1-.64.09c-.76.08-1.44.11-2.13.14-2.72.1-5.39.08-8.08.06-10.74-.13-21.63-.57-32.75-1.11s-22.44-1.23-34-2.05c-15.43-1.1-25.65-2-31.57-2.58s-7.55-.74-5.78-.6c3.54.27,20.65,1.84,44.22,3.34,11.78.75,25.17,1.48,39.29,2,7,.26,14.29.47,21.61.52,1.84,0,3.67,0,5.53,0,.93,0,1.85-.05,2.82-.12a12.74,12.74,0,0,0,1.61-.19l.34-.1a1.7,1.7,0,0,0,.32-.14,1.67,1.67,0,0,0,.75-.8,1.71,1.71,0,0,0-.36-1.89,1.5,1.5,0,0,0-.45-.32l-.22-.11-.16-.06c-.32-.06-.61-.11-.92-.15a11,11,0,0,0-1.56-.13l-1.42-.06-2.77,0h-5.52c-14.64.14-29.05.56-42.37.92l-35.77,1.07c-17.51.57-40,1.17-62.52,1.76l-33.13.87-15.4.39-7.2.17-3.43.05h-2.07c0,.08.05-.29-.17.59,0,.08-.3,1.11-.12.41a2.42,2.42,0,0,1-.1.36c-.06.14-.05.21-.09.26s0,0,0,.13a2,2,0,0,0,.05.33c0,.14,0,.22,0,.42l0,.56c0,.26,0,.34,0,.28h.5c9.4.47,18.87,1.18,28.19,1.78l27.88,1.87c18.51,1.23,36.92,2.42,55.51,3.55s37.35,2.21,56.6,3.1c9.62.44,19.36.85,29.27,1,2.48,0,5,.06,7.49,0a60.22,60.22,0,0,0,7.7-.43,6.38,6.38,0,0,0,1.18-.3l.19-.08c-.27.39,1.2-.68.57-2-1-.93-.54-.39-.86-.62l-.17,0-.37,0-.53,0c-.67,0-1.3,0-1.94,0l-3.82,0-7.64.16c-17.54.5-25.29.69-30.85.76s-8.92.08-17.67.39L452,963.29l-32.3,1.09c-10.47.31-20.65.64-30.53.71-1.23,0-2.46,0-3.66,0l-.87,0-.3,0c-.06.22-.07.37-.13.53a3,3,0,0,1-.14.37c-.11.15.26-.3,0,0-.07,0-.08.07-.11.08s0,0,0,0a.19.19,0,0,1,.1.1,2.28,2.28,0,0,1,.28.49c0,.09.09.27.1.28h.06l.16,0,.39-.05c.27,0,.56-.07.86-.09,2.36-.16,4.8-.17,7.2-.19,4.8,0,9.55.07,14.24.16,9.38.19,18.51.46,27.41.76,54,1.87,102.79,4.07,150.3,6,15,.59,30,1.17,45.22,1.68,7.6.25,15.26.49,23,.66,3.88.07,7.77.14,11.73.1,1,0,2,0,3-.12a7.26,7.26,0,0,0,.9-.12,1.79,1.79,0,0,0,.38-.11l.2-.09.11-.06a1.24,1.24,0,0,0,.22-.18,1.32,1.32,0,0,0,.22-.26,1.5,1.5,0,0,0,.21-.65,1.22,1.22,0,0,0-.09-.59,1.5,1.5,0,0,0-.22-.39,1.45,1.45,0,0,0-.57-.42l-.2-.07-.22,0-.27,0c-.61-.06-1.08-.06-1.6-.07-2,0-4,0-6,.06-19.75.54-40.18,1.46-60.63,2.29,16.21-.49,22.06-.54,27.47-.56L527.7,978.09l100.35-3.78c-5.41,0-11.26.07-27.47.56l-88.28,3.6c-15.12.57-30.44,1.12-46,1.56-7.75.21-15.56.41-23.41.51-3.92.05-7.86.09-11.8.05-2,0-3.94-.06-5.9-.15-1-.05-2-.11-2.89-.23a6.25,6.25,0,0,1-.67-.11l-.28-.06-.08,0h0a1.16,1.16,0,0,0-.07.15,3,3,0,0,1-.21.32c-.14.18-.24.15-.15.16s.13.06.16.12a1.11,1.11,0,0,1,.24.28c.15.19.1.14.11.14l0,0,.11,0,.56-.18a1,1,0,0,1,.39,0H423l1.1,0,2.23.08,4.47.22,9,.5,18,1.1,36.3,2.29,73.23,4.51c24.49,1.42,49,2.82,73.39,3.72,6.11.21,12.2.39,18.3.41,3,0,6.09,0,9.17-.29.38,0,.77-.09,1.17-.17a4.14,4.14,0,0,0,.62-.17,1.49,1.49,0,0,0,.37-.17.88.88,0,0,0,.24-.21.71.71,0,0,0,.15-.5.82.82,0,0,0-.35-.6,1,1,0,0,0-.27-.15,1.36,1.36,0,0,0-.2-.06,5.76,5.76,0,0,0-.64-.09c-.4,0-.78,0-1.17-.07-1.53,0-3.05,0-4.57,0-12.14.25-24.19.87-36.18,1.43l2.11-.06c11.49-.52,22.95-1.09,34.42-1.3,1.43,0,2.86,0,4.31,0,.36,0,.72,0,1.1.07a3.32,3.32,0,0,1,.59.08l.16,0a1.58,1.58,0,0,1,.26.13.89.89,0,0,1,.32.42.61.61,0,0,1,0,.46.74.74,0,0,1-.21.26,1.37,1.37,0,0,1-.35.19,3.82,3.82,0,0,1-.59.17c-.37.08-.73.13-1.1.18-2.9.29-5.75.28-8.62.29-5.73,0-11.44-.18-17.16-.37-22.84-.84-45.64-2.16-68.54-3.52-45.81-2.73-92-6-139.69-9.09,20.62,1.28,29.66,2,27.66,1.88l-11.2-.65-11.67-.7c-4.56-.25-9.79-.6-15.66-.79a7,7,0,0,0-1.47,0,4.28,4.28,0,0,0-.88.32s0,0-.07,0a.32.32,0,0,0-.13-.1s-.06,0-.06,0l.06,0,.12-.12c.05-.08,0,0,.06,0a2.28,2.28,0,0,0,.42.14,17.37,17.37,0,0,0,2.08.27c1.42.12,2.86.18,4.29.23,2.87.1,5.74.13,8.62.14,5.75,0,11.5,0,17.25-.11-5.76.13-11.51.23-17.26.26-2.88,0-5.75,0-8.62-.07-1.44,0-2.87-.09-4.3-.2a18.6,18.6,0,0,1-2.12-.26c-.31-.09-.82-.21-.49-.34a4.25,4.25,0,0,1,1-.37,7.24,7.24,0,0,1,1.62-.06l1.64,0,3.3.14,6.59.35,13.15.78,26.25,1.66,52.12,3.34c34.54,2.19,68.63,4.39,102,6.07,0,0,8.77.4,19.72.69,5.48.12,11.5.27,17.24,0a20.62,20.62,0,0,0,4.23-.48,1,1,0,0,0,.51-.3.31.31,0,0,0,0-.37.66.66,0,0,0-.24-.2,4.54,4.54,0,0,0-1-.16c-.68,0-1.35-.05-2-.06-2.62,0-5.07.05-7.24.11l-22.82.72-7.43.14-54.25,2.71,41-1.85,26.14-1.12,13.44-.47c4.47-.1,8.92-.3,13.3-.09a4.66,4.66,0,0,1,.82.13.5.5,0,0,1,.32.27c.06.17-.1.29-.22.34a5.74,5.74,0,0,1-1.59.36c-1.08.12-2.15.17-3.23.21-2.14.08-4.26.08-6.34.07-4.18,0-8.23-.15-12.1-.28-7.75-.26-14.8-.58-20.76-.87Z" transform="translate(-83.47 -297.87)"/><path class="cls-2" d="M609.61,959.38l-44.3,1.54c29.74-1,59.48-2.09,89.27-2.77l5.58-.08c.93,0,1.86,0,2.78,0l.69,0,.29,0c0,.05.05-.12.07-.16s0,0,0-.1-.06-.15-.07-.12l0,0-.15.05a9.35,9.35,0,0,1-1.34.24,108.55,108.55,0,0,1-11.13.3c-7.45-.09-14.9-.37-22.35-.68-14.9-.64-29.81-1.47-44.72-2.35,15.78,1,36.48,2.33,59.7,3,2.9.07,5.84.13,8.82.15s6,0,9-.24a10.13,10.13,0,0,0,2.21-.39H664c0,.07.07.06,0,.07s0,.09,0,.07l-.11,0-.28,0-.57,0h-1.15c-1.53,0-3.07,0-4.62,0l-9.34.2C635.35,958.51,622.49,958.94,609.61,959.38Z" transform="translate(-83.47 -297.87)"/></g></svg>