<svg id="Logo" xmlns="http://www.w3.org/2000/svg" width="114.75" height="361.51" viewBox="0 0 114.75 361.51"><defs><style>.cls-1{opacity:0.85;}.cls-2{fill:#fffacb;}</style></defs><g class="cls-1"><path class="cls-2" d="M520.17,624c-.61-4.05-1.16-8.14-1.61-12.22.2,2,.39,4.09.59,6.18C519.46,620.62,519.78,622,520.17,624Z" transform="translate(-482.37 -358.63)"/><path class="cls-2" d="M517.76,600.42c0-.74,0-1.49,0-2.18s0-1.29,0-1.86C517.67,597.72,517.74,599.08,517.76,600.42Z" transform="translate(-482.37 -358.63)"/><path class="cls-2" d="M520,579.32A54.3,54.3,0,0,0,518,590,69.18,69.18,0,0,1,520,579.32Z" transform="translate(-482.37 -358.63)"/><path class="cls-2" d="M517.51,596.08c.11-1.31.2-2,.2.21v.09c0-2.12.1-4.23.31-6.42C517.76,592.25,517.6,594.31,517.51,596.08Z" transform="translate(-482.37 -358.63)"/><path class="cls-2" d="M517.51,596.08c-.12,1.26-.14,3.29-.17,4C517.39,598.9,517.41,597.56,517.51,596.08Z" transform="translate(-482.37 -358.63)"/><path class="cls-2" d="M516.11,590.54a10,10,0,0,1,.43-2.18,35.72,35.72,0,0,0,.71-3.76,66.23,66.23,0,0,1,10.69-26.23c1.15-1.83,2.8-4.06,4.39-6.29a49.53,49.53,0,0,0,4-6.45,54.27,54.27,0,0,0,3.38-8.81,64.24,64.24,0,0,0,2-9.8,35.5,35.5,0,0,0,.3-5.3c-.06-.43,0,.77-.5,4.43a61.6,61.6,0,0,1-3.81,14.91,56.38,56.38,0,0,1-3,6.31c-1.14,2-2.31,3.92-3.57,5.81-2.49,3.79-5.08,7.56-7.33,11.72a68.41,68.41,0,0,0-5.57,13.73,73.54,73.54,0,0,0-2.07,24.91c.56,8.27,1.9,16.46,3.29,24.87.85,4.72,1.53,9.15,2.57,13.54q-.47-2.16-.93-4.35c-.25-1.48-.5-3-.75-4.49-.54-3-1-6.16-1.45-9.46-.59-4.35-1.38-9.13-2.06-14.57A91.52,91.52,0,0,1,516.11,590.54Z" transform="translate(-482.37 -358.63)"/><path class="cls-2" d="M549.23,709.68c-.32-1-.89-2.54-1.33-3.81l-.58-1.62-.27-.66A123.49,123.49,0,0,0,541.53,690c-2.15-4.49-4.32-9-6.5-13.57.54,1.37,1.09,2.76,1.65,4.16,2.48,5.2,2.89,5.74.8,1.07,4.73,10.71,9.62,20.75,12.39,31.79A12,12,0,0,0,549.23,709.68Z" transform="translate(-482.37 -358.63)"/><path class="cls-2" d="M551.31,719.91c-.23-1.09-.46-2.19-.68-3.28s-.44-2.17-.76-3.22c0,.05,0,.15,0,.24.33,1.07.51,2.17.76,3.26s.46,2.17.69,3.23Z" transform="translate(-482.37 -358.63)"/><path class="cls-2" d="M540.36,538.8a63.36,63.36,0,0,0,3.4-20.83c0-3.48-.41-6.94,0-10.34a24.81,24.81,0,0,1,3.33-9.55,34.7,34.7,0,0,1,6.19-7.94,42.2,42.2,0,0,1,8-5.92,44,44,0,0,1,18.74-5.76,26.32,26.32,0,0,1,6.12-.11,51.77,51.77,0,0,1,6,1,7,7,0,0,1,2.9,1.21.93.93,0,0,1,.33.69,1.18,1.18,0,0,1-.31.71,14.73,14.73,0,0,1-1.14,1.1c-1,.92-2.23,1.89-3.46,2.81-1,.81-2.14,1.59-3.28,2.34l-.09.06c-1.79,1.18-1.22.91,0,.27s2.44-1.5,3.41-2.15c-.61.42-2.27,1.52-3.41,2.15a38.66,38.66,0,0,1-5.51,2.75,47.83,47.83,0,0,1-10.48,3,58.45,58.45,0,0,0,10.48-3,33.72,33.72,0,0,0,5.65-3.08c.51-.34,1-.7,1.52-1.07a35.84,35.84,0,0,1-11.7,5.57,53.06,53.06,0,0,1-12.81,2.08,31.9,31.9,0,0,1-5.42-.2,12.23,12.23,0,0,1-4.39-1.3,4.26,4.26,0,0,1-1.57-1.43,4.59,4.59,0,0,1-.54-2,8,8,0,0,1,.71-3.8,13.39,13.39,0,0,1,1.69-2.8,26.62,26.62,0,0,1,3-3.52l-.65.62c.48-.5.9-.9,1.25-1.22A58.3,58.3,0,0,1,566,473a92.43,92.43,0,0,1,8.44-5.12c.93-.53,1.87-1,2.83-1.54l1.34-.68c.44-.22.89-.43,1.34-.63a6,6,0,0,1,1.42-.51c.28,0,.4.3.49.51a3.55,3.55,0,0,1,.15.72,12.46,12.46,0,0,1-.2,3l-.12.45c-.08.29-.18.69-.32,1.13-.26.89-.65,1.92-.91,2.6a33.82,33.82,0,0,1-2.68,6.81,40.34,40.34,0,0,0,4-9c.17-.54.31-1.09.44-1.68a14.73,14.73,0,0,0,.26-1.9,8.11,8.11,0,0,0,0-1.91,2.42,2.42,0,0,0-.28-.9.6.6,0,0,0-.81-.32,39.07,39.07,0,0,0-3.68,1.62c-1.19.57-2.39,1.14-3.6,1.67,1.21-.53,2.41-1.1,3.6-1.67a39.07,39.07,0,0,1,3.68-1.62.6.6,0,0,1,.81.32,2.42,2.42,0,0,1,.28.9,8.11,8.11,0,0,1,0,1.91,14.73,14.73,0,0,1-.26,1.9c-.13.59-.27,1.14-.44,1.68a40.34,40.34,0,0,1-4,9,32.45,32.45,0,0,1-6.05,8.27,27.9,27.9,0,0,1-8.73,5.62,32.24,32.24,0,0,0,9-6.31,39.57,39.57,0,0,0,5.76-7.58,33.82,33.82,0,0,0,2.68-6.81c.26-.68.65-1.71.91-2.6.14-.44.24-.84.32-1.13l.12-.45a12.46,12.46,0,0,0,.2-3,3.55,3.55,0,0,0-.15-.72c-.09-.21-.21-.48-.49-.51a6,6,0,0,0-1.42.51c-.45.2-.9.41-1.34.63l-1.34.68c-1,.5-1.9,1-2.83,1.54l2.14-1.12,1.09-.53,1-.44c.62-.29,1.25-.55,1.88-.79.3-.09.69-.34.94,0a1.76,1.76,0,0,1,.3,1,9.84,9.84,0,0,1-.11,2c-.05.34-.12.68-.18,1s-.16.77-.26,1.16a38,38,0,0,1-1.48,4.61,40.64,40.64,0,0,1-4.55,8.59,28.46,28.46,0,0,1-6.75,7,33.69,33.69,0,0,1-5.92,3.33,25.56,25.56,0,0,1-6.41,2,10.78,10.78,0,0,1-3.21,0,3.87,3.87,0,0,1-2.47-1.44,4.42,4.42,0,0,1-.48-2.87c.1-1.07.33-2.19.54-3.31a31.35,31.35,0,0,0,.71-6.93,25.8,25.8,0,0,0-1.14-6.88,36.45,36.45,0,0,0-6.4-12.19,26,26,0,0,0-5-4.8,16,16,0,0,0-6.46-2.79,12.2,12.2,0,0,0-3.57-.11c-1.17.16-2.27.34-3.4.6a20.62,20.62,0,0,0-6.49,2.51,12.89,12.89,0,0,0-4.77,5.19,35.43,35.43,0,0,0-2.32,6.45,40.15,40.15,0,0,1-2.21,6.19,21.53,21.53,0,0,1-1.6,2.8,6,6,0,0,1-.46.66l-.55.72c-.48.55-1,1.09-1.48,1.62l-.86,1c-.29.35-.44.57-.67.86l-.31.41a1,1,0,0,0-.23.44.63.63,0,0,0,.22.54,1.85,1.85,0,0,0,.46.33,11.06,11.06,0,0,0,5,.79c.47,0,.95,0,1.42-.06l1.14-.07c.75-.06,1.51-.14,2.25-.24,1.5-.18,3-.43,4.47-.73a54.54,54.54,0,0,0,8.72-2.51,33.29,33.29,0,0,0,8.06-4.35A19.72,19.72,0,0,0,536.7,476c.56-.53,1.09-1.05,1.62-1.61a33.46,33.46,0,0,0,3-3.51,19.8,19.8,0,0,0,3.78-8.53,14.14,14.14,0,0,0-.11-4.81,11.93,11.93,0,0,0-2-4.42c-.92-1.31-2-2.43-2.86-3.57A14.36,14.36,0,0,1,538,445.9a9.68,9.68,0,0,1,.18-8.15c1.09-2.76,2.37-5.57,3.52-8.4s2.23-5.7,3.42-8.5,2.48-5.58,3.82-8.35,2.68-5.63,3.79-8.57,2.09-5.93,2.93-9a87.08,87.08,0,0,0,3.06-18.85,38.08,38.08,0,0,0-.32-7.23,15.65,15.65,0,0,0-.93-3.6,8.19,8.19,0,0,0-1-1.74,4.68,4.68,0,0,0-1.72-1.4,5.28,5.28,0,0,0-2.55-.34,10.5,10.5,0,0,0-2.23.47,19.3,19.3,0,0,0-3.91,1.79,20.51,20.51,0,0,0-3.48,2.52,8.14,8.14,0,0,0-.81.84,4.68,4.68,0,0,0-.41.57,3.15,3.15,0,0,0-.2.47,1.76,1.76,0,0,0-.07.33,1.94,1.94,0,0,0,0,.54,1.62,1.62,0,0,0,.33.6.76.76,0,0,0,.24.21,1.57,1.57,0,0,0,.42.18,1.38,1.38,0,0,0,.27,0h.17a1.89,1.89,0,0,0,.42-.11l.22-.1a4.4,4.4,0,0,0,.57-.36c.32-.23.6-.46.88-.7a24.26,24.26,0,0,0,2.93-3.07,12.8,12.8,0,0,0,1.4-2.14,4.66,4.66,0,0,0,.6-2.51,2.52,2.52,0,0,0-1.46-2,7,7,0,0,0-2.58-.68l-.7-.06h-.57c-.35,0-.71,0-1.06,0-.7,0-1.4.09-2.09.17a33.23,33.23,0,0,0-4.08.74l-1,.27-.5.14-.67.22a10.44,10.44,0,0,0-2.45,1.16,3.93,3.93,0,0,0-.9.82,3.65,3.65,0,0,0-.34.5,3,3,0,0,0-.16.61,3.23,3.23,0,0,0,.75,2.31,7.3,7.3,0,0,0,2,1.76,11.2,11.2,0,0,0,1.2.67q.48.24,1,.45a10.8,10.8,0,0,0,1.05.37,5.87,5.87,0,0,0,1.27.26h.23l.37,0a2.39,2.39,0,0,0,.34-.12,1,1,0,0,0,.17-.1.87.87,0,0,0,.21-.16,1.53,1.53,0,0,0,.4-.68,1.42,1.42,0,0,0,0-.58,1.34,1.34,0,0,0-.07-.27.58.58,0,0,0,0-.11,2.12,2.12,0,0,0-.11-.21,1.22,1.22,0,0,0-.19-.26,2.78,2.78,0,0,0-.3-.3c-.34-.3-.56-.45-.85-.69a23.88,23.88,0,0,0-3.53-2.27,15.6,15.6,0,0,0-4.09-1.42,10,10,0,0,0-4.51.14,8.81,8.81,0,0,0-4,2.33,11.69,11.69,0,0,0-2.43,3.7,22,22,0,0,0-1.56,8.19,36.56,36.56,0,0,0,.14,4.06c.07.67.13,1.34.23,2l.13,1a6.46,6.46,0,0,0,.14.69,1.92,1.92,0,0,0,.11.28,1.11,1.11,0,0,0,.1.21,1.87,1.87,0,0,0,.24.31,1.81,1.81,0,0,0,.3.25,1.53,1.53,0,0,0,.48.2,1.64,1.64,0,0,0,.66,0,1.72,1.72,0,0,0,.46-.17,1.91,1.91,0,0,0,.28-.2l.16-.16c.11-.14.11-.16.17-.23a3.4,3.4,0,0,0,.34-.85c.06-.21.1-.39.14-.58q.11-.54.18-1.05c.09-.69.16-1.36.2-2,.1-1.35.13-2.69.11-4a28.48,28.48,0,0,0-1.19-8.13,8.45,8.45,0,0,0-2.52-4,8.15,8.15,0,0,0-4.41-1.65,14.1,14.1,0,0,0-4.32.22,20,20,0,0,0-2.06.5,19.42,19.42,0,0,0-2,.74,19.2,19.2,0,0,0-3.68,2.1,15.1,15.1,0,0,0-3.07,3.11,10.64,10.64,0,0,0-1.4,2.75,11.54,11.54,0,0,0-.56,2.95,20.78,20.78,0,0,0,.44,5.61,39.75,39.75,0,0,0,3.63,10.13,19.61,19.61,0,0,0,1.49,2.45c.1.12.17.22.3.36l.22.22a.89.89,0,0,0,.19.16,2,2,0,0,0,.25.18l.14.08a2.28,2.28,0,0,0,.54.18,2,2,0,0,0,.6,0,1.64,1.64,0,0,0,.57-.16,1.84,1.84,0,0,0,.55-.41,2,2,0,0,0,.3-.39,3.54,3.54,0,0,0,.16-.34l.06-.19,0-.09,0-.17a1.37,1.37,0,0,0,0-.3,10.77,10.77,0,0,0,0-1.58,33.6,33.6,0,0,0-.78-5.36,26.06,26.06,0,0,0-1.7-5.22,12.1,12.1,0,0,0-1.56-2.57A6.43,6.43,0,0,0,502,376a5.43,5.43,0,0,0-.85-.5c-.3-.13-.6-.23-.9-.33a7.36,7.36,0,0,0-3.4,0,13.13,13.13,0,0,0-2.79,1,23.75,23.75,0,0,0-4.61,3q-1.05.84-2,1.77c-.33.3-.64.62-1,.94l-.51.53c-.23.25-.44.52-.67.77a16.71,16.71,0,0,0-2.21,3.17,5.4,5.4,0,0,0-.68,2.9c0,.22.09.45.16.7a1.59,1.59,0,0,0,.45.65,2.52,2.52,0,0,0,1.12.56,7,7,0,0,0,3.21,0c.68-.13,1.39-.3,2.07-.41a4.89,4.89,0,0,1,1.25-.1,1.2,1.2,0,0,1,.47.12.61.61,0,0,1,.2.14,2.38,2.38,0,0,1,.31.26,2.9,2.9,0,0,1,.78,2.87,11,11,0,0,1-1.7,3.84,24.57,24.57,0,0,1-2.89,3.59,20.93,20.93,0,0,1-1.65,1.53c-.13.1-.28.22-.38.28l-.11.08h0s.09.17.12.25.2.31.27.48.23.77.3.85a.23.23,0,0,1,0,.14c0,.07,0,0,0,0s.08,0,.22-.11a3.84,3.84,0,0,1,.87-.19c.33-.07.89,0,.73-.05v-.05a3.88,3.88,0,0,1,0-.42,19.25,19.25,0,0,1,1.19-4.32,18.22,18.22,0,0,1,2.13-3.92,9.15,9.15,0,0,1,3-2.74,7.33,7.33,0,0,1,3.81-.8,13.43,13.43,0,0,1,7.83,3.15,10,10,0,0,1,2.46,3.33c.65,1.33,1.2,3,2.05,4.61a14.87,14.87,0,0,0,3.5,4.49,19.4,19.4,0,0,0,10.1,4.45,12.52,12.52,0,0,0,2.94,0,8.17,8.17,0,0,0,3.13-.91,6.65,6.65,0,0,0,1.51-1.11,6,6,0,0,0,.62-.78c.09-.15.09-.14.13-.22a3.68,3.68,0,0,0,.26-.77c.14-.52.19-1.05.33-1.55,0-.08.06-.18.14-.2s.15.09.19.16a3.23,3.23,0,0,1,.18.49c.1.33.18.67.26,1l.22,1,.2.8.44,1.59c.15.54.32,1.08.5,1.62.08.27.19.55.29.82l.16.42c.05.12.11.29.21.51.72,1.65,1.73,3.19,3.25,3.72a4,4,0,0,0,2.37,0,5.63,5.63,0,0,0,2.07-1.4,7.63,7.63,0,0,0,.86-1,4.29,4.29,0,0,0,.4-.55l.31-.52a13.23,13.23,0,0,0,.82-1.75,12.51,12.51,0,0,0,.82-3.8,8.32,8.32,0,0,0-.86-4.26,6,6,0,0,0-1.64-1.93,8.86,8.86,0,0,0-1.91-1,31.54,31.54,0,0,0-3.33-1,16.69,16.69,0,0,1-5.25-2.24,14.92,14.92,0,0,1-3.82-4,20.9,20.9,0,0,1-3.42-11,10.17,10.17,0,0,1,1.12-5.08,3.5,3.5,0,0,1,1.21-1.3,5,5,0,0,1,2-.22,57.86,57.86,0,0,0,6.79.47,18.71,18.71,0,0,0,7.43-1.81c.56-.29,1.14-.57,1.69-.88l1.56-1c.56-.36.94-.67,1.41-1l1.34-1,2.69-1.94c.41-.29.77-.55.71-.49l.11-.06a.75.75,0,0,1,.3-.09c.06,0-.06.15-.08.2l-.12.15,0,.06h0l-.17.5a10,10,0,0,0-.34,1.09,25.72,25.72,0,0,0-.83,4.53c-.09.75-.13,1.5-.17,2.25l-.12,2.09c-.08,1.4-.15,2.81-.28,4.23s-.23,2.84-.4,4.27c-.08.72-.17,1.43-.25,2.16s-.21,1.43-.32,2.15c-.18,1.44-.5,2.85-.76,4.29s-.62,2.85-1.06,4.22c-1.56,5.58-4.19,10.76-8.47,14.21a24.39,24.39,0,0,1-3.41,2.32l-.87.48c-.3.15-.63.27-.93.41a17.67,17.67,0,0,1-1.92.73,27.68,27.68,0,0,1-8.17,1.34,24.76,24.76,0,0,1-7.92-1.11,13.39,13.39,0,0,1-6-3.67c-1.46-1.59-2.09-3.66-2.9-6.42a17.07,17.07,0,0,0-1.95-4.45,11,11,0,0,0-3.89-3.59,15.42,15.42,0,0,0-8.86-1.71,12.71,12.71,0,0,0-7.9,3.44,9,9,0,0,0-2.5,5.29,14.7,14.7,0,0,0,.28,4.54c.27,1.29.59,2.39.89,3.4s.65,2.1,1,3a30.29,30.29,0,0,0,4.65,8,19.42,19.42,0,0,0,3.16,3.18c.69.51,1,.59,1,.39.07-.4-.94-1.88-1.87-3.46s-1.79-3.26-2-3.73a33.89,33.89,0,0,1-3.16-9.68,15.72,15.72,0,0,1-.38-4.83,5.9,5.9,0,0,1,.67-2.13,6.06,6.06,0,0,1,1.46-1.66c4.87-3.46,14.61-2.21,15.61,6a20.48,20.48,0,0,0,2.55,6,15,15,0,0,0,5.34,4.71A27.7,27.7,0,0,0,528.53,426a32.52,32.52,0,0,0,8.35-1.72c.71-.24,1.4-.57,2.1-.85s1.38-.71,2.07-1.07l2-1.26c.63-.48,1.28-.95,1.91-1.46a28,28,0,0,0,6.36-7.75,44.7,44.7,0,0,0,4-9.92,38.18,38.18,0,0,1-3.79,9.48c-.92,1.65-1.3,1.93-.91,1.28s1.24-2.38,2.26-5a62.07,62.07,0,0,0,2.77-10.26,124.68,124.68,0,0,0,1.66-14c.07-1.27.14-2.56.22-3.87a36.93,36.93,0,0,1,.33-3.81,18.78,18.78,0,0,1,.88-3.68,3.78,3.78,0,0,1,.19-.51l.28-.66c.17-.44.43-.88.64-1.33l1.4-2.64a15,15,0,0,0,1.3-3.81,4.63,4.63,0,0,0,.12-.73,1,1,0,0,0-.09-.42.58.58,0,0,0-.42-.3,4,4,0,0,0-1.63.13,11,11,0,0,0-1.81.61,20.3,20.3,0,0,0-2.21,1.22c-.78.49-1.59,1-2.39,1.58s-1.51,1.05-2.25,1.58l-3.24,2.29L547,370.32l-.77.55-.73.46a14.49,14.49,0,0,1-6,2.31,16.77,16.77,0,0,1-4.25,0c-1.5-.14-3-.48-5-.5a8.27,8.27,0,0,0-3.3.64,8.43,8.43,0,0,0-1.56,1,7.8,7.8,0,0,0-1.18,1.29,12.33,12.33,0,0,0-2.23,5.73,23.57,23.57,0,0,0,1.47,11.44,22.33,22.33,0,0,0,7,9.84,18.48,18.48,0,0,0,5.67,2.9,49.33,49.33,0,0,1,4.89,1.56c.51.27.58.39.69.6a3.81,3.81,0,0,1,.23,1.5,6.33,6.33,0,0,1-.37,2,7.4,7.4,0,0,1-.39,1c-.08.15-.15.32-.24.46l-.08.14c-.06.13-.26.22-.33.05a.36.36,0,0,1,0-.09l-.14-.35-.22-.6c-.28-.81-.54-1.69-.78-2.59l-.46-1.77-.66-2.75a35.07,35.07,0,0,0-1.48-5,4.63,4.63,0,0,0-1.81-2.28,2.14,2.14,0,0,0-.94-.31l-.31,0-.2,0h-.18c0-.2,0-.06,0-.1h0a1.79,1.79,0,0,0-.51.1l-.69.4a2.89,2.89,0,0,0-.84.6,4.59,4.59,0,0,0-1.06,1.91c-.34,1.05-.55,2.58-.81,3.85-.14.63-.27,1.25-.45,1.8a4.67,4.67,0,0,1-.48,1.09c0,.05,0,0-.11.09a.67.67,0,0,1-.24.16,4.54,4.54,0,0,1-2,.41,13.84,13.84,0,0,1-9.82-4.41,18.53,18.53,0,0,1-2.78-5.25,19.82,19.82,0,0,0-1.88-3.47,13.38,13.38,0,0,0-2.88-3,18.22,18.22,0,0,0-7.17-3.39,13.38,13.38,0,0,0-8.34.55,14,14,0,0,0-6.1,5.56,24.61,24.61,0,0,0-3,7c-.16.61-.3,1.23-.41,1.9-.05.34-.1.68-.13,1.1a6.47,6.47,0,0,0,0,.77,3.12,3.12,0,0,0,.18.88,3.42,3.42,0,0,0,.13.34,3,3,0,0,0,.84,1,2.82,2.82,0,0,0,.54.31,3,3,0,0,0,.45.14,3.08,3.08,0,0,0,1,.05,3.4,3.4,0,0,0,.38-.07l.1,0,.21-.07.38-.17.37-.21.52-.36c.29-.22.55-.44.8-.65.49-.42.94-.85,1.38-1.29a27.7,27.7,0,0,0,4.52-5.91,14.47,14.47,0,0,0,1.48-3.82,8.2,8.2,0,0,0-.32-4.83,7.14,7.14,0,0,0-1.39-2.17,6.22,6.22,0,0,0-.89-.83,5.17,5.17,0,0,0-1.26-.82,5.85,5.85,0,0,0-1.48-.43,7.67,7.67,0,0,0-1.3-.07l-.53,0-.1,0a3.39,3.39,0,0,1-.41.06c-.06,0-.15,0-.14-.1a.5.5,0,0,1,.08-.2,2,2,0,0,1,.25-.32l.31-.32c.34-.35.69-.7,1.06-1a24.73,24.73,0,0,1,4.4-3.33,10.86,10.86,0,0,1,2.27-1,3.6,3.6,0,0,1,1.63-.15.9.9,0,0,1,.32.17,3.57,3.57,0,0,1,.55.64,10.91,10.91,0,0,1,1.13,2.27,28.06,28.06,0,0,1,1.42,5.76c.08.5.14,1,.18,1.49a10.58,10.58,0,0,1,.06,1.3.38.38,0,0,1,0,.08v0h.05l.25,0a3.5,3.5,0,0,0,.41.05,5.07,5.07,0,0,1,.76.14l.38.11a.74.74,0,0,1,.25,0,1.22,1.22,0,0,1,.24.1.94.94,0,0,0,.17.1.11.11,0,0,1,.08.08c0,.05,0-.07,0-.09a.17.17,0,0,1,.06-.11s.08-.16.13-.23a1.39,1.39,0,0,1,.36-.44A10.4,10.4,0,0,1,507,390c.06,0,0-.07-.06-.13a13.18,13.18,0,0,1-.71-1.14,35.75,35.75,0,0,1-2.56-5.8,25.82,25.82,0,0,1-1.38-6.18,11.38,11.38,0,0,1,.09-2.88,5.85,5.85,0,0,1,.91-2.3c2.17-3.24,7.47-5.41,11.31-4.92a3.87,3.87,0,0,1,2,.77,5.93,5.93,0,0,1,1.1,2.27,27,27,0,0,1,.82,7.07c0,1.23-.05,2.48-.16,3.68-.06.59-.13,1.2-.23,1.68,0,.11,0,.23-.06.29l0,0h0l.21.08a8.66,8.66,0,0,1,1,.35,6.62,6.62,0,0,1,.8.36,2.2,2.2,0,0,1,.49.31c.13.13.09.16.11.12a.82.82,0,0,1,.35-.25,4,4,0,0,1,.73-.29c.32-.12.59-.17,1-.27l.58-.14c.13,0,0,0,.06,0h0v-.1a36.84,36.84,0,0,1-.44-7.29,15.59,15.59,0,0,1,1.52-6.35,5,5,0,0,1,3.84-2.9,9.57,9.57,0,0,1,5.61,1.56c.48.29,1,.59,1.42.93.23.15.46.33.69.51l.34.27.16.12h0l0-.07c.22-.24.47-.48.69-.7a3.79,3.79,0,0,1,.53-.53l.3-.22a.94.94,0,0,1,.2-.16,1.69,1.69,0,0,1,.36-.17s.12,0,.08,0l0,0c-.09-.1-.08-.16-.12-.34a1.75,1.75,0,0,1-.05-.56,8.49,8.49,0,0,1,.09-1.55l0-.41h0l-.1,0-.28-.08a9.29,9.29,0,0,1-1.38-.56s0,0,0,0l.42-.13c.55-.16,1.13-.3,1.71-.43a30.45,30.45,0,0,1,3.51-.55c.58-.05,1.15-.08,1.7-.08h.48a0,0,0,0,1,0,0c-.09.1.3-.36-.68.88a19.41,19.41,0,0,1-2.35,2.36l-.26.2-.08.06h0l.5.85a7.13,7.13,0,0,1,.64,1.46.62.62,0,0,1,0,.35c-.13.14.15-.14.13-.12h0s.11,0,.15,0,.18,0,.3.05.18.09.37.14a2.43,2.43,0,0,1,.46.22c.25.17.72.39,1,.63l.13.1s0,0,0,0,0,0,0,0l0,0a1.33,1.33,0,0,1,.14-.17c.15-.14.31-.3.51-.47a18.14,18.14,0,0,1,2.73-1.92,15.09,15.09,0,0,1,3-1.34,6,6,0,0,1,1.26-.27,3,3,0,0,1,.5,0s0,0,0,0,0,0,0,0a.57.57,0,0,0,.12.15c0,.06.1.17.15.24a6.88,6.88,0,0,1,.6,1.55,20.61,20.61,0,0,1,.61,4.2,54.2,54.2,0,0,1-.38,9.22,92.11,92.11,0,0,1-4.2,18.45,81.3,81.3,0,0,1-3.55,8.8c-1.38,2.91-2.86,5.94-4.18,9s-2.55,6.25-3.73,9.24-2.51,6-3.81,9.19a27.08,27.08,0,0,0-.9,2.64,12.32,12.32,0,0,0-.46,3.18,12.18,12.18,0,0,0,.09,1.62c.08.51.18,1,.27,1.49a15,15,0,0,0,1,2.89,19.58,19.58,0,0,0,3.15,4.83,23.54,23.54,0,0,1,2.7,3.56,9.56,9.56,0,0,1,.41,7.53,21.16,21.16,0,0,1-4.72,7.5c-.52.58-1.08,1.14-1.67,1.71a17.59,17.59,0,0,1-1.66,1.48,24.44,24.44,0,0,1-3.87,2.45,43.17,43.17,0,0,1-9,3.32,54.7,54.7,0,0,1-9.65,1.57l-.4,0h-.12a1,1,0,0,1-.24,0c-.08,0-.2-.07-.09-.13l.18-.17.1-.12.63-.83.6-.92a25.71,25.71,0,0,0,2-3.85,74.36,74.36,0,0,0,2.54-7.71,20.32,20.32,0,0,1,1.72-4.27,9.59,9.59,0,0,1,2.66-3,19.9,19.9,0,0,1,8.29-2.91c.41-.08.69-.09,1-.13s.64,0,1,0a10.31,10.31,0,0,1,1.91.25,12.6,12.6,0,0,1,3.71,1.56,22.88,22.88,0,0,1,6.2,5.95,33.92,33.92,0,0,1,4.22,7.66,24.43,24.43,0,0,1,1.81,8.2,23.67,23.67,0,0,1-.24,4.18c-.19,1.42-.5,2.84-.73,4.47a13.62,13.62,0,0,0-.15,2.71,6.34,6.34,0,0,0,1.15,3.23c.19.23.39.45.59.67a6.88,6.88,0,0,0,.67.54,5.5,5.5,0,0,0,1.44.79,9,9,0,0,0,1.46.43c.48.08.94.11,1.41.16a20.17,20.17,0,0,0,7.2-1.32,38.76,38.76,0,0,0,6.33-2.94,30.12,30.12,0,0,0,5.68-4.2,35.74,35.74,0,0,0,4.48-5.27,44.42,44.42,0,0,0,5.75-11.75c.32-1,.6-2,.82-3.05l.09-.38.1-.58a12,12,0,0,0,.18-1.2,12.47,12.47,0,0,0,.09-2.34,5.58,5.58,0,0,0-.46-1.93,2.83,2.83,0,0,0-1.19-1.36A2.59,2.59,0,0,0,582,462a2.34,2.34,0,0,0-.84,0l-.45,0c-.16,0-.34.11-.51.16-.34.12-.68.22-1,.35l-1.64.71-1.34.63-1.89,1c-1.24.65-2.45,1.31-3.64,2q-3.56,2.06-6.83,4.38a62.41,62.41,0,0,0-6.22,5,32,32,0,0,0-5.26,6,15.81,15.81,0,0,0-1.85,3.78,10.39,10.39,0,0,0-.46,4.5l.23,1.15a5.24,5.24,0,0,0,.57,1.33,6.07,6.07,0,0,0,1.83,1.9,11.15,11.15,0,0,0,4,1.63,29.2,29.2,0,0,0,7.49.54,52,52,0,0,0,7.12-.82,50.92,50.92,0,0,1-7.68.79,27.14,27.14,0,0,1-7.57-.76,9.94,9.94,0,0,1-3.83-1.87,5.69,5.69,0,0,1-1.56-2.07c-.08-.21-.16-.43-.23-.64l-.12-.55a6.71,6.71,0,0,1-.16-1.08,10,10,0,0,1,.55-4.15,16.28,16.28,0,0,1,1.72-3.5c2.8-4.21,6.52-7.36,10.58-10.38,2-1.5,4.2-2.93,6.5-4.32,1.15-.7,2.34-1.37,3.57-2l1.87-1,1-.48,1.12-.55c.73-.35,1.4-.63,2-.9s1.14-.4,1.63-.56a9.68,9.68,0,0,1,1.11-.07,5.8,5.8,0,0,1,.71.12,1.63,1.63,0,0,1,.78.51q.13.18,0,0a1.81,1.81,0,0,0-.72-.41,3.29,3.29,0,0,0-.58-.07h-.35l-.44.06-.48.07a3.17,3.17,0,0,0-.57.19,12,12,0,0,0-1.27.51c-.45.2-.92.41-1.41.65l-1.18.6a102,102,0,0,0-8.91,5.34,79.27,79.27,0,0,0-7.81,5.92,52,52,0,0,0-5.71,5.61,17.4,17.4,0,0,0-2.43,3.74,10.33,10.33,0,0,0-1,4.13l0,1.08c0,.36.12.72.18,1.08a5.07,5.07,0,0,0,.39,1.18,5.49,5.49,0,0,0,.7,1.07,7.93,7.93,0,0,0,3.65,2.29,23.46,23.46,0,0,0,7.29.94,54.24,54.24,0,0,0,14.47-2.3c2.11-.67,3.06-.93,3.76-1.08a8.14,8.14,0,0,0,2.17-.67,38.44,38.44,0,0,0,6.72-4c1-.73,1.95-1.46,2.85-2.21.48-.39.86-.72,1.37-1.16s1.22-1.09,1.77-1.64l.58-.68a6.31,6.31,0,0,0,.44-.66,2.32,2.32,0,0,0,.39-1.43,2.26,2.26,0,0,0-.78-1.33,5.1,5.1,0,0,0-1.3-.84,13.76,13.76,0,0,0-3.22-.94c-.85-.15-1.64-.25-2.43-.34a63.4,63.4,0,0,0-8.89-.35,42.49,42.49,0,0,0-9.67,1.59,48.12,48.12,0,0,0-8.57,3.29,41.69,41.69,0,0,0-9.54,6.62,19,19,0,0,0-1.33,1.36c-.43.47-.9.91-1.3,1.42a35.65,35.65,0,0,0-2.36,3.1c.33-.4.59-.74.85-1l.7-.65a11.26,11.26,0,0,1,1-.76,34.71,34.71,0,0,0-6.49,10.78,34.71,34.71,0,0,1,6.49-10.78,11.26,11.26,0,0,0-1,.76l-.7.65c-.26.27-.52.61-.85,1l-1,1.46-.87,1.56a35.87,35.87,0,0,0-1.57,3.24,24.46,24.46,0,0,0-1.76,7.18,55.09,55.09,0,0,0,.08,7.39,68,68,0,0,1,0,7.28,66.19,66.19,0,0,1-2.57,14.46,56.92,56.92,0,0,1-6,13.28l.17-.2a64.16,64.16,0,0,0,3.88-7.44,62.05,62.05,0,0,0,2.79-7.89,66.06,66.06,0,0,0,2.47-16.92c0,2.54-.17,3.65-.21,3.4s0-1.84-.08-4.72c0-1.49.07-3,.1-4.45.09,2.53.28,5,.26,7.55a51.64,51.64,0,0,1-.57,7.47A53.71,53.71,0,0,1,539,541.21l-.88,2.25c-.54,1.23-1.19,2.7-1.7,3.65-1.59,2.76-1.71,2.52-2.14,3-1.15,1.87-2.35,3.75-3.6,5.61a88.24,88.24,0,0,0,6.34-9.64c.51-1,1-1.89,1.4-2.74s.73-1.67,1-2.34C540,539.68,540.36,538.8,540.36,538.8Z" transform="translate(-482.37 -358.63)"/><path class="cls-2" d="M581.34,491.37a32.1,32.1,0,0,0,4.82-2.47A37.59,37.59,0,0,1,576.09,493a53.38,53.38,0,0,1-10.8,1.76A45.11,45.11,0,0,0,581.34,491.37Z" transform="translate(-482.37 -358.63)"/></g></svg>