<?xml version="1.0" encoding="utf-8"?>
<!-- Generator: Adobe Illustrator 22.1.0, SVG Export Plug-In . SVG Version: 6.00 Build 0)  -->
<svg version="1.1"
	 id="Layer_1" inkscape:version="0.91 r13725" sodipodi:docname="YouTube_light_icon (2017).svg" xmlns:cc="http://creativecommons.org/ns#" xmlns:dc="http://purl.org/dc/elements/1.1/" xmlns:inkscape="http://www.inkscape.org/namespaces/inkscape" xmlns:rdf="http://www.w3.org/1999/02/22-rdf-syntax-ns#" xmlns:sodipodi="http://sodipodi.sourceforge.net/DTD/sodipodi-0.dtd" xmlns:svg="http://www.w3.org/2000/svg"
	 xmlns="http://www.w3.org/2000/svg" xmlns:xlink="http://www.w3.org/1999/xlink" x="0px" y="0px" viewBox="0 0 400 280.1"
	 style="enable-background:new 0 0 400 280.1;" xml:space="preserve">
<style type="text/css">
	.st0{fill:#FFFFFF;}
</style>
<sodipodi:namedview  bordercolor="#666666" borderopacity="1" fit-margin-bottom="0" fit-margin-left="0" fit-margin-right="0" fit-margin-top="0" gridtolerance="10" guidetolerance="10" id="namedview29" inkscape:current-layer="Layer_1" inkscape:cx="30.091613" inkscape:cy="15.29613" inkscape:pageopacity="0" inkscape:pageshadow="2" inkscape:window-height="715" inkscape:window-maximized="1" inkscape:window-width="1366" inkscape:window-x="-8" inkscape:window-y="-8" inkscape:zoom="5.4355702" objecttolerance="10" pagecolor="#ffffff" showgrid="false">
	</sodipodi:namedview>
<g id="g5" transform="scale(0.58823529,0.58823529)">
	<path id="path7" class="st0" d="M340,0c0,0-212.9,0-266.1,14C45.3,21.8,21.8,45.4,14,74.5C0,127.7,0,238.1,0,238.1S0,349,14,401.7
		c7.8,29.1,30.8,52.1,59.9,59.9c53.8,14.6,266.1,14.6,266.1,14.6s212.9,0,266.1-14c29.1-7.8,52.1-30.8,59.9-59.9
		c14-53.2,14-163.6,14-163.6s0.6-110.9-14-164.1c-7.8-29.1-30.8-52.1-59.9-59.9C552.9,0,340,0,340,0z M272.2,136.1l177,102l-177,102
		V136.1z"/>
</g>
</svg>
