<?xml version="1.0" encoding="UTF-8"?>
<svg id="Teeth" xmlns="http://www.w3.org/2000/svg" viewBox="0 0 2160 2160">
  <defs>
    <style>
      .cls-1 {
        fill: #fff;
        stroke-width: 0px;
      }
    </style>
  </defs>
  <g>
    <path class="cls-1" d="M1185.74,1223.75c-6.37,158.46-24.95,280.3,38.26,298.2.8-.66,2.34-1.22,4.74-1.65,104.31-18.83,102.56-181.96,102.56-181.96,0,0-30.81,17.19-37.93,4.74-11.06-19.36-12.12-75.36,4.74-77.04,105.96-10.56,76.33-18.41,66.26-97.07-12.64-98.7,22.52-107.85-58.47-34.15-14.11,12.84-11.01-50.27-4.23-77.37,6.52-26.07,41.99-.59,41.99-.59,0,0,25.72-76.61,11.37-89.55-43.81,5.66-89.89,8.62-137.89,7.88-23,16.36-26.25,120.5-31.4,248.55Z"/>
    <path class="cls-1" d="M1046.76,1508.81c49.83,6.73,126.58-130.88,130.68-283.29,3.23-119.85-24.83-236.18-65.45-257.85-42.97-5.51-87.14-14.2-132.26-26.69-14.76,10.14-14.19,81.25-12.69,120.65-6.03-64.67-11.74-118.13-20.35-130.18-19.36-5.8-38.4-11.89-57.09-18.23-52.65.27-41.04,194.2-29.45,310.21,9.88,98.92,20.87,223.46,67.46,253.27,35.44,22.67,35.79-192.93,38.3-291.29,3.55,94.95,1.39,312.68,80.85,323.4ZM1057.22,1101.3s20.15,2.22,31.26,68c5.67,33.59,1.33,115.11-22.67,125.33-8.44-15.56-13.7-177.78-8.59-193.33Z"/>
    <path class="cls-1" d="M1799.91,800.71c-10.17,6.91-24.89,14.95-41.74,26.5-53.74,36.83-66.8,240.4-109.57,286.28,20.1-56.27,28.18-240.8-6.8-226.6-11.89,4.83-20.67,8.27-31.57,13.25-21.42,9.78-22.83,46.07-29.19,82.47.92-33.98-24.46-62.3-49.84-54.22-28.84,9.19-59.96,16.52-93.84,24.79-42.61,10.4-57.49,70.81-60.43,137.47-8.54,193.74,87,186.19,50.26,233-29.13,37.11-53.93-27.56-53.93-27.56,0,0-118.17,266.63,62.2,167.07,68.48-37.8,110.21-132.21,101.87-270.26-4.02-66.52-110.81-131.26-28.89-181.56-6.33,26.3-3.91,43.51,23.7,46.52,33.33,3.63,45.93-54.81,45.93-54.81-6.96,58.59,12.74,124.67,15.41,199.33,3.69,103.22-87.87,207.17-112.29,233,248.78-169.21,319.9-528.55,334.8-624.53,1.39-8.96-8.58-15.24-16.08-10.15Z"/>
  </g>
  <path class="cls-1" d="M857.11,1345.41c-5.48-44.09-47.5-97.2-50.81-135.41-4-46.07,26.3-79.35,27.41-160.44,1.36-98.98-32.86-156.24-46.66-174.76-59.05-24.22-113.72-50.3-163.3-76.43-33.1-6.43-28.63,108.7-28.63,108.7,0,0-28.11-136.84-81.21-171.19-53.13-34.37-97.61-64.33-131.12-88.03-94.41-66.76,3.38,224.23,78.02,375.31,48.44,98.04,128.58,233.15,215.55,308.7-54.22-82.67-92.3-169.19-132.61-251.02,15.75,12.74,36.31,5.24,48.76-9.43,17.66-20.81,19.69-48.13,19.69-48.13,0,0,38.39,266.13,96,324.67,5.66,5.75,12.36,10.39,18.72,15.42,29.01,22.93,30.35-45.75,19.45-86.25,14.33,24.17,26.61,122.05,75.61,149.64,29.72,16.74,41.07-33.71,35.15-81.35ZM498.37,937.36s-11.56-28.78-25.15-71.19c-8.4-26.22-19-65.15-19-65.15,0,0,37.18,22.44,48.48,63.74,8.59,31.41-4.33,72.59-4.33,72.59ZM709.74,1093.58c-7.11-24.59-16.59-95.11-17.78-127.7,22.72,4.74,36.44,35.53,41.78,63.41,4.88,25.51,5.04,53.33-24,64.3Z"/>
</svg>